{
    "asset": {
        "generator": "COLLADA2GLTF",
        "version": "2.0"
    },
    "scene": 0,
    "scenes": [
        {
            "nodes": [
                0
            ]
        }
    ],
    "nodes": [
        {
            "mesh": 0,
            "matrix": [
                1.0,
                0.0,
                0.0,
                0.0,
                0.0,
                1.0,
                0.0,
                0.0,
                0.0,
                0.0,
                1.0,
                0.0,
                0.0,
                0.0,
                0.0,
                1.0
            ]
        }
    ],
    "meshes": [
        {
            "primitives": [
                {
                    "attributes": {
                        "COLOR_0": 1,
                        "NORMAL": 2,
                        "POSITION": 3,
                        "TEXCOORD_0": 4
                    },
                    "indices": 0,
                    "mode": 4,
                    "material": 0
                }
            ],
            "name": "meshId0_name"
        }
    ],
    "accessors": [
        {
            "bufferView": 0,
            "byteOffset": 0,
            "byteStride": 0,
            "componentType": 5123,
            "count": 14592,
            "max": [
                2550.0
            ],
            "min": [
                0.0
            ],
            "type": "SCALAR"
        },
        {
            "bufferView": 1,
            "byteOffset": 0,
            "byteStride": 0,
            "componentType": 5126,
            "count": 2551,
            "max": [
                0.0,
                0.0,
                0.0
            ],
            "min": [
                0.0,
                0.0,
                0.0
            ],
            "type": "VEC3"
        },
        {
            "bufferView": 1,
            "byteOffset": 30612,
            "byteStride": 0,
            "componentType": 5126,
            "count": 2551,
            "max": [
                0.9999155402183532,
                0.9999614953994752,
                0.9995511770248412
            ],
            "min": [
                -0.9999155402183532,
                -0.9979230761528016,
                -0.9998226165771484
            ],
            "type": "VEC3"
        },
        {
            "bufferView": 1,
            "byteOffset": 61224,
            "byteStride": 0,
            "componentType": 5126,
            "count": 2551,
            "max": [
                0.8106791973114014,
                0.8187642097473145,
                0.7583367228507996
            ],
            "min": [
                -0.8106791973114014,
                -0.8187640905380249,
                -0.8632781505584717
            ],
            "type": "VEC3"
        },
        {
            "bufferView": 1,
            "byteOffset": 91836,
            "byteStride": 0,
            "componentType": 5126,
            "count": 2551,
            "max": [
                0.9917339086532592,
                0.98796808719635
            ],
            "min": [
                0.011699199676513672,
                0.0060114264488220219
            ],
            "type": "VEC2"
        }
    ],
    "materials": [
        {
            "pbrMetallicRoughness": {
                "baseColorTexture": {
                    "index": 0
                }
            },
            "emissiveFactor": [
                0.0,
                0.0,
                0.0
            ],
            "extensions": {
                "KHR_materials_pbrSpecularGlossiness": {
                    "diffuseTexture": {
                        "index": 0
                    },
                    "glossinessFactor": [
                        20.0
                    ],
                    "specularGlossinessTexture": {
                        "index": 1
                    }
                }
            }
        }
    ],
    "textures": [
        {
            "sampler": 0,
            "source": 0
        },
        {
            "sampler": 0,
            "source": 1
        }
    ],
    "images": [
        {
            "uri": "SmilingFace_texture_0001.jpg"
        },
        {
            "uri": "SmilingFace_texture_0002.jpg"
        }
    ],
    "samplers": [
        {
            "magFilter": 9729,
            "minFilter": 9986,
            "wrapS": 10497,
            "wrapT": 10497
        }
    ],
    "bufferViews": [
        {
            "buffer": 0,
            "byteOffset": 112244,
            "byteLength": 29184,
            "target": 34963
        },
        {
            "buffer": 0,
            "byteOffset": 0,
            "byteLength": 112244,
            "target": 34962
        }
    ],
    "buffers": [
        {
            "byteLength": 141428,
            "uri": "SmilingFace0.bin"
        }
    ],
    "extensionsRequired": [
        "KHR_materials_pbrSpecularGlossiness"
    ],
    "extensionsUsed": [
        "KHR_materials_pbrSpecularGlossiness"
    ]
}
