{
  "extensionsUsed": [
    "EXT_mesh_gpu_instancing"
  ],
  "accessors": [
    {
      "bufferView": 0,
      "byteOffset": 0,
      "componentType": 5123,
      "count": 6,
      "type": "SCALAR",
      "max": [
        3
      ],
      "min": [
        0
      ]
    },
    {
      "bufferView": 1,
      "byteOffset": 0,
      "componentType": 5126,
      "count": 4,
      "type": "VEC3",
      "max": [
        1,
        1,
        0
      ],
      "min": [
        0,
        0,
        0
      ]
    },
    {
      "bufferView": 2,
      "byteOffset": 0,
      "componentType": 5126,
      "count": 4,
      "type": "VEC3",
      "max": [
        0,
        0,
        1
      ],
      "min": [
        0,
        0,
        1
      ]
    },
    {
      "bufferView": 3,
      "byteOffset": 0,
      "componentType": 5126,
      "count": 100,
      "type": "VEC3",
      "max": [
        16,
        16,
        0
      ],
      "min": [
        -2,
        -2,
        0
      ]
    },
    {
      "bufferView": 4,
      "byteOffset": 0,
      "componentType": 5126,
      "count": 100,
      "type": "VEC4",
      "max": [
        0.926499,
        0.926499,
        0,
        1
      ],
      "min": [
        -0.11504344,
        -0.11504344,
        0,
        0.2760332
      ]
    },
    {
      "bufferView": 5,
      "byteOffset": 0,
      "componentType": 5126,
      "count": 100,
      "type": "VEC3",
      "max": [
        1.8,
        1.8,
        1
      ],
      "min": [
        0.9,
        0.9,
        1
      ]
    }
  ],
  "asset": {
    "generator": "JglTF from https://github.com/javagl/JglTF",
    "version": "2.0"
  },
  "buffers": [
    {
      "uri": "SimpleInstancing_data.bin",
      "byteLength": 4108
    }
  ],
  "bufferViews": [
    {
      "name": "indices",
      "buffer": 0,
      "byteOffset": 0,
      "byteLength": 12,
      "target": 34963
    },
    {
      "name": "attribute",
      "buffer": 0,
      "byteOffset": 12,
      "byteLength": 48,
      "target": 34962
    },
    {
      "name": "attribute",
      "buffer": 0,
      "byteOffset": 60,
      "byteLength": 48,
      "target": 34962
    },
    {
      "name": "additional",
      "buffer": 0,
      "byteOffset": 108,
      "byteLength": 1200
    },
    {
      "name": "additional",
      "buffer": 0,
      "byteOffset": 1308,
      "byteLength": 1600
    },
    {
      "name": "additional",
      "buffer": 0,
      "byteOffset": 2908,
      "byteLength": 1200
    }
  ],
  "meshes": [
    {
      "primitives": [
        {
          "attributes": {
            "POSITION": 1,
            "NORMAL": 2
          },
          "indices": 0,
          "mode": 4
        }
      ]
    }
  ],
  "nodes": [
    {
      "extensions": {
        "EXT_mesh_gpu_instancing": {
          "attributes": {
            "TRANSLATION": 3,
            "ROTATION": 4,
            "SCALE": 5
          }
        }
      },
      "mesh": 0
    }
  ],
  "scene": 0,
  "scenes": [
    {
      "nodes": [
        0
      ]
    }
  ]
}