{
  "extensionsUsed": [
    "KHR_technique_webgl"
  ],
  "extensionsRequired": [
    "KHR_technique_webgl"
  ],

  "scenes" : [
    {
      "nodes" : [ 0 ]
    }
  ],
  
  "nodes" : [
    {
      "mesh" : 0
    }
  ],
  
  "meshes" : [
    {
      "primitives" : [ {
        "attributes" : {
          "POSITION" : 1
        },
        "indices" : 0
      } ]
    }
  ],

  "buffers" : [
    {
      "uri" : "simpleTriangle.bin",
      "byteLength" : 44
    }
  ],
  "bufferViews" : [
    {
      "buffer" : 0,
      "byteOffset" : 0,
      "byteLength" : 6,
      "target" : 34963
    },
    {
      "buffer" : 0,
      "byteOffset" : 8,
      "byteLength" : 36,
      "target" : 34962
    }
  ],
  "accessors" : [
    {
      "bufferView" : 0,
      "byteOffset" : 0,
      "componentType" : 5123,
      "count" : 3,
      "type" : "SCALAR",
      "max" : [ 2 ],
      "min" : [ 0 ]
    },
    {
      "bufferView" : 1,
      "byteOffset" : 0,
      "componentType" : 5126,
      "count" : 3,
      "type" : "VEC3",
      "max" : [ 1.0, 1.0, 0.0 ],
      "min" : [ 0.0, 0.0, 0.0 ]
    }
  ],
  
  "materials" : [
    {
      "technique" : 0,
      "values" : {
        "emissionParameter" : [ 0.9, 0.5, 0.1, 1.0 ]
      }
    }
  ],
  
  "extensions" : {
    "KHR_technique_webgl": {
    
      "techniques": [
        {
          "program": 0,
          "attributes": {
            "a_position": "POSITION"
          },
          "uniforms": {
            "u_modelViewMatrix": "modelViewMatrixParameter",
            "u_projectionMatrix": "projectionMatrixParameter",
            "u_emission": "emissionParameter"
          },
          "parameters": {
            "modelViewMatrixParameter": {
              "type": 35676,
              "semantic": "MODELVIEW"
            },
            "projectionMatrixParameter": {
              "type": 35676,
              "semantic": "PROJECTION"
            },
            "emissionParameter": {
              "type": 35666,
              "value": [ 0.5, 0.5, 0.5, 1.0 ]
            }
          }
        }
      ],
      
      "programs": [
        {
          "vertexShader": 0,
          "fragmentShader": 1,
          "attributes": [
            "a_position"
          ]
        }
      ],
      
      "shaders": [
        {
          "type": 35633,
          "uri": "simple.vert"
        },
        {
          "type": 35632,
          "uri": "simple.frag"
        }
      ]
      
    }
  },
  
  "asset" : {
    "version" : "2.0"
  }
}
