{
    "asset": {
        "generator": "COLLADA2GLTF",
        "version": "2.0"
    },
    "scene": 0,
    "scenes": [
        {
            "nodes": [
                6,
                1,
                0
            ]
        }
    ],
    "nodes": [
        {
            "matrix": [
                1.0,
                0.0,
                0.0,
                0.0,
                0.0,
                1.0,
                0.0,
                0.0,
                0.0,
                0.0,
                1.0,
                0.0,
                0.0,
                0.0,
                0.0,
                1.0
            ]
        },
        {
            "mesh": 0,
            "children": [
                4,
                2
            ],
            "matrix": [
                1.0,
                0.0,
                0.0,
                0.0,
                0.0,
                1.0,
                0.0,
                0.0,
                0.0,
                0.0,
                1.0,
                0.0,
                0.0,
                0.0,
                0.0,
                1.0
            ]
        },
        {
            "children": [
                3
            ],
            "matrix": [
                1.0,
                0.0,
                0.0,
                0.0,
                0.0,
                1.0,
                0.0,
                0.0,
                0.0,
                0.0,
                1.0,
                0.0,
                -1.352329969406128,
                0.4277220070362091,
                -2.98022992950564e-8,
                1.0
            ]
        },
        {
            "mesh": 1,
            "translation": [
                0.0,
                0.0,
                0.0
            ],
            "rotation": [
                -0.0,
                -0.0,
                0.08848590403795243,
                -0.9960774183273317
            ],
            "scale": [
                1.0,
                1.0,
                1.0
            ]
        },
        {
            "children": [
                5
            ],
            "matrix": [
                1.0,
                0.0,
                0.0,
                0.0,
                0.0,
                1.0,
                0.0,
                0.0,
                0.0,
                0.0,
                1.0,
                0.0,
                1.432669997215271,
                0.4277220070362091,
                -2.98022992950564e-8,
                1.0
            ]
        },
        {
            "mesh": 1,
            "translation": [
                0.0,
                0.0,
                0.0
            ],
            "rotation": [
                -0.0,
                -0.0,
                0.08848590403795243,
                -0.9960774183273317
            ],
            "scale": [
                1.0,
                1.0,
                1.0
            ]
        },
        {
            "matrix": [
                1.0,
                0.0,
                0.0,
                0.0,
                0.0,
                1.0,
                0.0,
                0.0,
                0.0,
                0.0,
                1.0,
                0.0,
                0.0,
                0.0,
                0.0,
                1.0
            ]
        }
    ],
    "meshes": [
        {
            "primitives": [
                {
                    "attributes": {
                        "NORMAL": 1,
                        "POSITION": 2,
                        "TEXCOORD_0": 3
                    },
                    "indices": 0,
                    "mode": 4,
                    "material": 0
                },
                {
                    "attributes": {
                        "NORMAL": 5,
                        "POSITION": 6
                    },
                    "indices": 4,
                    "mode": 4,
                    "material": 1
                },
                {
                    "attributes": {
                        "NORMAL": 8,
                        "POSITION": 9
                    },
                    "indices": 7,
                    "mode": 4,
                    "material": 2
                }
            ],
            "name": "Cesium_Milk_Truck"
        },
        {
            "primitives": [
                {
                    "attributes": {
                        "NORMAL": 11,
                        "POSITION": 12,
                        "TEXCOORD_0": 13
                    },
                    "indices": 10,
                    "mode": 4,
                    "material": 3
                }
            ],
            "name": "Wheels"
        }
    ],
    "animations": [
        {
            "channels": [
                {
                    "sampler": 0,
                    "target": {
                        "node": 5,
                        "path": "rotation"
                    }
                }
            ],
            "samplers": [
                {
                    "input": 14,
                    "interpolation": "LINEAR",
                    "output": 15
                }
            ]
        },
        {
            "channels": [
                {
                    "sampler": 0,
                    "target": {
                        "node": 3,
                        "path": "rotation"
                    }
                }
            ],
            "samplers": [
                {
                    "input": 16,
                    "interpolation": "LINEAR",
                    "output": 17
                }
            ]
        }
    ],
    "accessors": [
        {
            "bufferView": 0,
            "byteOffset": 4944,
            "byteStride": 0,
            "componentType": 5123,
            "count": 5232,
            "max": [
                1855.0
            ],
            "min": [
                0.0
            ],
            "type": "SCALAR"
        },
        {
            "bufferView": 1,
            "byteOffset": 20480,
            "byteStride": 0,
            "componentType": 5126,
            "count": 1856,
            "max": [
                1.0,
                1.0,
                1.0
            ],
            "min": [
                -1.0,
                -1.0,
                -1.0
            ],
            "type": "VEC3"
        },
        {
            "bufferView": 1,
            "byteOffset": 42752,
            "byteStride": 0,
            "componentType": 5126,
            "count": 1856,
            "max": [
                2.437999963760376,
                2.5843698978424074,
                1.3960000276565552
            ],
            "min": [
                -2.430910110473633,
                0.2667999863624573,
                -1.3960000276565552
            ],
            "type": "VEC3"
        },
        {
            "bufferView": 1,
            "byteOffset": 65024,
            "byteStride": 0,
            "componentType": 5126,
            "count": 1856,
            "max": [
                0.8964580297470093,
                0.997245192527771
            ],
            "min": [
                0.002956389915198088,
                0.015672028064727784
            ],
            "type": "VEC2"
        },
        {
            "bufferView": 0,
            "byteOffset": 0,
            "byteStride": 0,
            "componentType": 5123,
            "count": 168,
            "max": [
                71.0
            ],
            "min": [
                0.0
            ],
            "type": "SCALAR"
        },
        {
            "bufferView": 1,
            "byteOffset": 0,
            "byteStride": 0,
            "componentType": 5126,
            "count": 72,
            "max": [
                0.957480013370514,
                0.28850099444389346,
                1.0
            ],
            "min": [
                -1.0,
                0.0,
                -1.0
            ],
            "type": "VEC3"
        },
        {
            "bufferView": 1,
            "byteOffset": 864,
            "byteStride": 0,
            "componentType": 5126,
            "count": 72,
            "max": [
                1.6011799573898316,
                2.3545401096343996,
                1.3960000276565552
            ],
            "min": [
                0.22885000705718998,
                1.631850004196167,
                -1.3960000276565552
            ],
            "type": "VEC3"
        },
        {
            "bufferView": 0,
            "byteOffset": 15408,
            "byteStride": 0,
            "componentType": 5123,
            "count": 864,
            "max": [
                463.0
            ],
            "min": [
                0.0
            ],
            "type": "SCALAR"
        },
        {
            "bufferView": 1,
            "byteOffset": 79872,
            "byteStride": 0,
            "componentType": 5126,
            "count": 464,
            "max": [
                1.0,
                1.0,
                1.0
            ],
            "min": [
                -1.0,
                -1.0,
                -1.0
            ],
            "type": "VEC3"
        },
        {
            "bufferView": 1,
            "byteOffset": 85440,
            "byteStride": 0,
            "componentType": 5126,
            "count": 464,
            "max": [
                1.62267005443573,
                2.3919999599456789,
                1.100000023841858
            ],
            "min": [
                0.1932000070810318,
                1.5961999893188477,
                -1.1100000143051148
            ],
            "type": "VEC3"
        },
        {
            "bufferView": 0,
            "byteOffset": 336,
            "byteStride": 0,
            "componentType": 5123,
            "count": 2304,
            "max": [
                585.0
            ],
            "min": [
                0.0
            ],
            "type": "SCALAR"
        },
        {
            "bufferView": 1,
            "byteOffset": 1728,
            "byteStride": 0,
            "componentType": 5126,
            "count": 586,
            "max": [
                0.9990389943122864,
                0.9990379810333252,
                1.0
            ],
            "min": [
                -0.9990379810333252,
                -0.9990379810333252,
                -1.0
            ],
            "type": "VEC3"
        },
        {
            "bufferView": 1,
            "byteOffset": 8760,
            "byteStride": 0,
            "componentType": 5126,
            "count": 586,
            "max": [
                0.4277999997138977,
                0.4277999997138977,
                1.0579999685287476
            ],
            "min": [
                -0.4277999997138977,
                -0.4277999997138977,
                -1.0579999685287476
            ],
            "type": "VEC3"
        },
        {
            "bufferView": 1,
            "byteOffset": 15792,
            "byteStride": 0,
            "componentType": 5126,
            "count": 586,
            "max": [
                0.9936569929122924,
                0.9895756244659424
            ],
            "min": [
                0.6050930023193359,
                0.00905001163482666
            ],
            "type": "VEC2"
        },
        {
            "bufferView": 2,
            "byteOffset": 0,
            "byteStride": 0,
            "componentType": 5126,
            "count": 31,
            "max": [
                1.25
            ],
            "min": [
                0.0
            ],
            "type": "SCALAR"
        },
        {
            "bufferView": 2,
            "byteOffset": 124,
            "byteStride": 0,
            "componentType": 5126,
            "count": 31,
            "max": [
                -0.0,
                -0.0,
                0.9990190863609314,
                1.0
            ],
            "min": [
                -0.0,
                -0.0,
                0.0,
                -0.9960774183273317
            ],
            "type": "VEC4"
        },
        {
            "bufferView": 2,
            "byteOffset": 620,
            "byteStride": 0,
            "componentType": 5126,
            "count": 31,
            "max": [
                1.25
            ],
            "min": [
                0.0
            ],
            "type": "SCALAR"
        },
        {
            "bufferView": 2,
            "byteOffset": 744,
            "byteStride": 0,
            "componentType": 5126,
            "count": 31,
            "max": [
                -0.0,
                -0.0,
                0.9990190863609314,
                1.0
            ],
            "min": [
                -0.0,
                -0.0,
                0.0,
                -0.9960774183273317
            ],
            "type": "VEC4"
        }
    ],
    "materials": [
        {
            "pbrMetallicRoughness": {
                "baseColorTexture": {
                    "index": 0
                }
            },
            "extensions": {
                "KHR_materials_pbrSpecularGlossiness": {
                    "diffuseTexture": {
                        "index": 0
                    },
                    "specularFactor": [
                        0.03999999910593033,
                        0.03999999910593033,
                        0.03999999910593033
                    ],
                    "glossinessFactor": [
                        256.0
                    ]
                }
            }
        },
        {
            "pbrMetallicRoughness": {
                "baseColorFactor": [
                    0.0,
                    0.04050629958510399,
                    0.021240700036287309,
                    1.0
                ]
            }
        },
        {
            "pbrMetallicRoughness": {
                "baseColorFactor": [
                    0.06400000303983689,
                    0.06400000303983689,
                    0.06400000303983689,
                    1.0
                ]
            }
        },
        {
            "pbrMetallicRoughness": {
                "baseColorTexture": {
                    "index": 1
                }
            },
            "extensions": {
                "KHR_materials_pbrSpecularGlossiness": {
                    "diffuseTexture": {
                        "index": 1
                    },
                    "specularFactor": [
                        0.03999999910593033,
                        0.03999999910593033,
                        0.03999999910593033
                    ],
                    "glossinessFactor": [
                        256.0
                    ]
                }
            }
        }
    ],
    "textures": [
        {
            "sampler": 0,
            "source": 0
        },
        {
            "sampler": 0,
            "source": 0
        }
    ],
    "images": [
        {
            "uri": "CesiumMilkTruck.png"
        }
    ],
    "samplers": [
        {
            "magFilter": 9729,
            "minFilter": 9986,
            "wrapS": 10497,
            "wrapT": 10497
        }
    ],
    "bufferViews": [
        {
            "buffer": 0,
            "byteOffset": 91008,
            "byteLength": 17136,
            "target": 34963
        },
        {
            "buffer": 0,
            "byteOffset": 0,
            "byteLength": 91008,
            "target": 34962
        },
        {
            "buffer": 0,
            "byteOffset": 108144,
            "byteLength": 1240
        }
    ],
    "buffers": [
        {
            "byteLength": 109384,
            "uri": "CesiumMilkTruck0.bin"
        }
    ],
    "extensionsRequired": [
        "KHR_materials_pbrSpecularGlossiness"
    ],
    "extensionsUsed": [
        "KHR_materials_pbrSpecularGlossiness"
    ]
}
