{
  "accessors": {
    "accessor_21": {
      "bufferView": "bufferView_1",
      "byteOffset": 0,
      "byteStride": 0,
      "componentType": 5123,
      "count": 36,
      "type": "SCALAR",
      "min": [
        0
      ],
      "max": [
        23
      ]
    },
    "accessor_23": {
      "bufferView": "bufferView_0",
      "byteOffset": 0,
      "byteStride": 0,
      "componentType": 5126,
      "count": 24,
      "max": [
        0.5,
        0.5,
        0.5
      ],
      "min": [
        -0.5,
        -0.5,
        -0.5
      ],
      "type": "VEC3"
    },
    "accessor_25": {
      "bufferView": "bufferView_0",
      "byteOffset": 288,
      "byteStride": 0,
      "componentType": 5126,
      "count": 24,
      "max": [
        1,
        1,
        1
      ],
      "min": [
        -1,
        -1,
        -1
      ],
      "type": "VEC3"
    }
  },
  "animations": {},
  "asset": {
    "generator": "collada2gltf@027f74366341d569dea42e9a68b7104cc3892054",
    "premultipliedAlpha": true,
    "profile": {
      "api": "WebGL",
      "version": "1.0.2"
    },
    "version": "1.0"
  },
  "bufferViews": {
    "bufferView_0": {
      "buffer": "Box",
      "byteLength": 576,
      "byteOffset": 0,
      "target": 34962
    },
    "bufferView_1": {
      "buffer": "Box",
      "byteLength": 72,
      "byteOffset": 576,
      "target": 34963
    }
  },
  "buffers": {
    "Box": {
      "type": "arraybuffer",
      "byteLength": 648,
      "uri": "Box.bin"
    }
  },
  "materials": {
    "Effect-Red": {
      "name": "Red",
      "technique": "technique0",
      "values": {
        "diffuse": [
          0.8,
          0,
          0,
          1
        ],
        "shininess": 256,
        "specular": [
          0.2,
          0.2,
          0.2,
          1
        ]
      }
    }
  },
  "meshes": {
    "Geometry-mesh002": {
      "name": "Mesh",
      "primitives": [
        {
          "attributes": {
            "NORMAL": "accessor_25",
            "POSITION": "accessor_23"
          },
          "indices": "accessor_21",
          "material": "Effect-Red",
          "mode": 4
        }
      ]
    }
  },
  "nodes": {
    "rootNode": {
      "children": [],
      "meshes": [
        "Geometry-mesh002"
      ],
      "matrix": [
        1,
        0,
        0,
        0,
        0,
        1,
        0,
        0,
        0,
        0,
        1,
        0,
        0,
        0,
        0,
        1
      ]
    }
  },
  "programs": {
    "program_0": {
      "attributes": [
        "a_normal",
        "a_position"
      ],
      "fragmentShader": "Box0FS",
      "vertexShader": "Box0VS"
    }
  },
  "scene": "defaultScene",
  "scenes": {
    "defaultScene": {
      "nodes": [
        "rootNode"
      ]
    }
  },
  "shaders": {
    "Box0FS": {
      "type": 35632,
      "uri": "Box0FS.glsl"
    },
    "Box0VS": {
      "type": 35633,
      "uri": "Box0VS.glsl"
    }
  },
  "skins": {},
  "techniques": {
    "technique0": {
      "attributes": {
        "a_normal": "normal",
        "a_position": "position"
      },
      "parameters": {
        "diffuse": {
          "type": 35666
        },
        "modelViewMatrix": {
          "semantic": "MODELVIEW",
          "type": 35676
        },
        "normal": {
          "semantic": "NORMAL",
          "type": 35665
        },
        "normalMatrix": {
          "semantic": "MODELVIEWINVERSETRANSPOSE",
          "type": 35675
        },
        "position": {
          "semantic": "POSITION",
          "type": 35665
        },
        "projectionMatrix": {
          "semantic": "PROJECTION",
          "type": 35676
        },
        "shininess": {
          "type": 5126
        },
        "specular": {
          "type": 35666
        }
      },
      "program": "program_0",
      "states": {
        "enable": [
          2929,
          2884
        ]
      },
      "uniforms": {
        "u_diffuse": "diffuse",
        "u_modelViewMatrix": "modelViewMatrix",
        "u_normalMatrix": "normalMatrix",
        "u_projectionMatrix": "projectionMatrix",
        "u_shininess": "shininess",
        "u_specular": "specular"
      }
    }
  },
  "extensionsUsed": [],
  "cameras": {},
  "images": {},
  "samplers": {},
  "textures": {}
}
