{
  "scenes" : {
    "scene0" : {
      "nodes" : [ "meshNode", "perspectiveCameraNode", "orthographicCameraNode" ]
    }
  },
  "nodes" : {
    "meshNode" : {
      "rotation" : [ -0.383, 0.0, 0.0, 0.924 ],
      "meshes" : [ "mesh0" ]
    },
    "perspectiveCameraNode" : {
      "translation" : [ 0.5, 0.5, 3.0 ],
      "camera" : "exampleCameraPerspective"
    },
    "orthographicCameraNode" : {
      "translation" : [ 0.5, 0.5, 3.0 ],
      "camera" : "exampleCameraOrthographic"
    }
  },
  
  "cameras" : {
    "exampleCameraPerspective": {
      "type": "perspective",
      "perspective": {
        "aspectRatio": 1.0,
        "yfov": 0.7,
        "zfar": 100,
        "znear": 0.01
      }
    },
    "exampleCameraOrthographic": {
      "type": "orthographic",
      "orthographic": {
        "xmag": 1.0,
        "ymag": 1.0,
        "zfar": 100,
        "znear": 0.01
      }
    }
  },
  
  "meshes" : {
    "mesh0" : {
      "primitives" : [ {
        "attributes" : {
          "POSITION" : "positionsAccessor",
          "NORMAL" : "normalsAccessor",
          "TEXCOORD_0" : "texCoordsAccessor"
        },
        "indices" : "indicesAccessor"
      } ]
    }
  },

  "buffers" : {
    "buffer0" : {
      "uri" : "data:application/octet-stream;base64,",
      "byteLength" : 144
    }
  },
  "bufferViews" : {
    "indicesBufferView" : {
      "buffer" : "buffer0",
      "byteOffset" : 0,
      "byteLength" : 12,
      "target" : 34963
    },
    "attributesBufferView" : {
      "buffer" : "buffer0",
      "byteOffset" : 12,
      "byteLength" : 128,
      "target" : 34962
    }
  },
  "accessors" : {
    "indicesAccessor" : {
      "bufferView" : "indicesBufferView",
      "byteOffset" : 0,
      "componentType" : 5123,
      "count" : 6,
      "type" : "SCALAR",
      "max" : [ 3 ],
      "min" : [ 0 ]
    },
    "positionsAccessor" : {
      "bufferView" : "attributesBufferView",
      "byteOffset" : 0,
      "componentType" : 5126,
      "count" : 4,
      "type" : "VEC3",
      "max" : [ 1.0, 1.0, 0.0 ],
      "min" : [ 0.0, 0.0, 0.0 ]
    },
    "normalsAccessor" : {
      "bufferView" : "attributesBufferView",
      "byteOffset" : 48,
      "componentType" : 5126,
      "count" : 4,
      "type" : "VEC3",
      "max" : [ 0.0, 0.0, 1.0 ],
      "min" : [ 0.0, 0.0, 1.0 ]
    },
    "texCoordsAccessor" : {
      "bufferView" : "attributesBufferView",
      "byteOffset" : 96,
      "componentType" : 5126,
      "count" : 4,
      "type" : "VEC2",
      "max" : [ 1.0, 1.0 ],
      "min" : [ 0.0, 0.0 ]
    }
  },
  "asset" : {
    "version" : "1.1"
  }
}
