{
   "accessors" : [
      {
         "bufferView" : 0,
         "byteOffset" : 0,
         "componentType" : 5123,
         "count" : 36,
         "max" : [
            35
         ],
         "min" : [
            0
         ],
         "type" : "SCALAR"
      },
      {
         "bufferView" : 1,
         "byteOffset" : 0,
         "componentType" : 5126,
         "count" : 36,
         "max" : [
            1.000000,
            1.000000,
            1.000001
         ],
         "min" : [
            -1.000000,
            -1.000000,
            -1.000000
         ],
         "type" : "VEC3"
      },
      {
         "bufferView" : 2,
         "byteOffset" : 0,
         "componentType" : 5126,
         "count" : 36,
         "max" : [
            1.000000,
            1.000000,
            1.000000
         ],
         "min" : [
            -1.000000,
            -1.000000,
            -1.000000
         ],
         "type" : "VEC3"
      },
      {
         "bufferView" : 3,
         "byteOffset" : 0,
         "componentType" : 5126,
         "count" : 36,
         "max" : [
            -0.000000,
            1.000000,
            0.000000
         ],
         "min" : [
            -0.000000,
            0.000000,
            -1.000000
         ],
         "type" : "VEC3"
      },
      {
         "bufferView" : 4,
         "byteOffset" : 0,
         "componentType" : 5126,
         "count" : 36,
         "max" : [
            1.000000,
            -0.000000,
            -0.000000
         ],
         "min" : [
            0.000000,
            -0.000000,
            -1.000000
         ],
         "type" : "VEC3"
      },
      {
         "bufferView" : 5,
         "byteOffset" : 0,
         "componentType" : 5126,
         "count" : 36,
         "max" : [
            1.000000,
            1.000000
         ],
         "min" : [
            -1.000000,
            -1.000000
         ],
         "type" : "VEC2"
      }
   ],
   "asset" : {
      "generator" : "VKTS glTF 2.0 exporter",
      "version" : "2.0"
   },
   "bufferViews" : [
      {
         "buffer" : 0,
         "byteLength" : 72,
         "byteOffset" : 0,
         "target" : 34963
      },
      {
         "buffer" : 0,
         "byteLength" : 432,
         "byteOffset" : 72,
         "target" : 34962
      },
      {
         "buffer" : 0,
         "byteLength" : 432,
         "byteOffset" : 504,
         "target" : 34962
      },
      {
         "buffer" : 0,
         "byteLength" : 432,
         "byteOffset" : 936,
         "target" : 34962
      },
      {
         "buffer" : 0,
         "byteLength" : 432,
         "byteOffset" : 1368,
         "target" : 34962
      },
      {
         "buffer" : 0,
         "byteLength" : 288,
         "byteOffset" : 1800,
         "target" : 34962
      }
   ],
   "buffers" : [
      {
         "byteLength" : 2088,
         "uri" : "cube.bin"
      }
   ],
   "images" : [
      {
         "uri" : "Cube_BaseColor.png"
      },
      {
         "uri" : "Cube_MetallicRoughness.png"
      },
      {
         "uri" : "Cube_Normal.png"
      }
   ],
   "materials" : [
      {
         "name" : "CubeMaterial",
         "normalTexture" : {
            "index" : 2
         },
         "pbrMetallicRoughness" : {
            "baseColorTexture" : {
               "index" : 0
            },
            "metallicRoughnessTexture" : {
               "index" : 1
            }
         }
      }
   ],
   "meshes" : [
      {
         "name" : "CubeMesh",
         "primitives" : [
            {
               "attributes" : {
                  "BITANGENT" : 3,
                  "NORMAL" : 2,
                  "POSITION" : 1,
                  "TANGENT" : 4,
                  "TEXCOORD_0" : 5
               },
               "indices" : 0,
               "material" : 0,
               "mode" : 4
            }
         ]
      }
   ],
   "nodes" : [
      {
         "children" : [],
         "mesh" : 0,
         "name" : "CubeNode"
      }
   ],
   "samplers" : [
      {}
   ],
   "scene" : 0,
   "scenes" : [
      {
         "nodes" : [
            0
         ]
      }
   ],
   "textures" : [
      {
         "sampler" : 0,
         "source" : 0
      },
      {
         "sampler" : 0,
         "source" : 1
      },
      {
         "sampler" : 0,
         "source" : 2
      }
   ]
}