{
    "asset": {
        "version": "2.0",
        "copyright": "(C) 2021, Wayfair LLC. License: CC BY 4.0 International",
        "generator": "Generated with 3ds Max, exported with babylon.js glTF exporter, hand-edited in VSCode with glTF Tools, compressed with toktx"
    },
    "scene": 0,
    "scenes": [
        {
            "nodes": [
                0,
                1,
                2,
                3,
                4,
                5,
                6,
                7
            ]
        }
    ],
    "nodes": [
        {
            "mesh": 0,
            "name": "StainedGlassLamp_grill"
        },
        {
            "mesh": 1,
            "name": "StainedGlassLamp_steel"
        },
        {
            "mesh": 2,
            "name": "StainedGlassLamp_beads"
        },
        {
            "mesh": 3,
            "name": "StainedGlassLamp_gems"
        },
        {
            "mesh": 4,
            "name": "StainedGlassLamp_hardware"
        },
        {
            "mesh": 5,
            "name": "StainedGlassLamp_base"
        },
        {
            "mesh": 6,
            "name": "StainedGlassLamp_bulbs"
        },
        {
            "mesh": 7,
            "name": "StainedGlassLamp_glass"
        }
    ],
    "meshes": [
        {
            "primitives": [
                {
                    "attributes": {
                        "POSITION": 1,
                        "NORMAL": 2,
                        "TEXCOORD_0": 3
                    },
                    "indices": 0,
                    "material": 0
                }
            ],
            "name": "StainedGlassLamp_grill"
        },
        {
            "primitives": [
                {
                    "attributes": {
                        "POSITION": 5,
                        "NORMAL": 6,
                        "TEXCOORD_0": 7
                    },
                    "indices": 4,
                    "material": 1
                }
            ],
            "name": "StainedGlassLamp_steel"
        },
        {
            "primitives": [
                {
                    "attributes": {
                        "POSITION": 9,
                        "NORMAL": 10
                    },
                    "indices": 8,
                    "material": 2
                }
            ],
            "name": "StainedGlassLamp_beads"
        },
        {
            "primitives": [
                {
                    "attributes": {
                        "POSITION": 12,
                        "NORMAL": 13
                    },
                    "indices": 11,
                    "material": 3
                }
            ],
            "name": "StainedGlassLamp_gems"
        },
        {
            "primitives": [
                {
                    "attributes": {
                        "POSITION": 15,
                        "NORMAL": 16,
                        "TEXCOORD_0": 17
                    },
                    "indices": 14,
                    "material": 4
                }
            ],
            "name": "StainedGlassLamp_hardware"
        },
        {
            "primitives": [
                {
                    "attributes": {
                        "POSITION": 19,
                        "NORMAL": 20,
                        "TEXCOORD_0": 21
                    },
                     "indices": 18,
                    "material": 5
                }
            ],
            "name": "StainedGlassLamp_base"
        },
        {
            "primitives": [
                {
                    "attributes": {
                        "POSITION": 23,
                        "NORMAL": 24,
                        "TEXCOORD_0": 25
                    },
                    "indices": 22,
                    "material": 6
                }
            ],
            "name": "StainedGlassLamp_bulbs"
        },
        {
            "primitives": [
                {
                    "attributes": {
                        "POSITION": 27,
                        "NORMAL": 28,
                        "TEXCOORD_0": 29
                    },
                    "indices": 26,
                    "material": 7
                }
            ],
            "name": "StainedGlassLamp_glass"
        }
    ],
    "accessors": [
        {
            "bufferView": 0,
            "componentType": 5123,
            "count": 2880,
            "type": "SCALAR",
            "name": "accessorIndices"
        },
        {
            "bufferView": 1,
            "componentType": 5126,
            "count": 924,
            "max": [
                0.121872455,
                0.632353,
                0.121602245
            ],
            "min": [
                -0.1220465,
                0.538193643,
                -0.121876873
            ],
            "type": "VEC3",
            "name": "accessorPositions"
        },
        {
            "bufferView": 1,
            "byteOffset": 11088,
            "componentType": 5126,
            "count": 924,
            "type": "VEC3",
            "name": "accessorNormals"
        },
        {
            "bufferView": 2,
            "componentType": 5126,
            "count": 924,
            "type": "VEC2",
            "name": "accessorUVs"
        },
        {
            "bufferView": 0,
            "byteOffset": 5760,
            "componentType": 5123,
            "count": 14760,
            "type": "SCALAR",
            "name": "accessorIndices"
        },
        {
            "bufferView": 1,
            "byteOffset": 22176,
            "componentType": 5126,
            "count": 8110,
            "max": [
                0.186242431,
                0.45427236,
                0.186246678
            ],
            "min": [
                -0.1861026,
                0.367100567,
                -0.186068371
            ],
            "type": "VEC3",
            "name": "accessorPositions"
        },
        {
            "bufferView": 1,
            "byteOffset": 119496,
            "componentType": 5126,
            "count": 8110,
            "type": "VEC3",
            "name": "accessorNormals"
        },
        {
            "bufferView": 2,
            "byteOffset": 7392,
            "componentType": 5126,
            "count": 8110,
            "type": "VEC2",
            "name": "accessorUVs"
        },
        {
            "bufferView": 0,
            "byteOffset": 35280,
            "componentType": 5123,
            "count": 29820,
            "type": "SCALAR",
            "name": "accessorIndices"
        },
        {
            "bufferView": 1,
            "byteOffset": 216816,
            "componentType": 5126,
            "count": 26718,
            "max": [
                0.189578831,
                0.412281066,
                0.188140616
            ],
            "min": [
                -0.189503238,
                0.366148323,
                -0.1903317
            ],
            "type": "VEC3",
            "name": "accessorPositions"
        },
        {
            "bufferView": 1,
            "byteOffset": 537432,
            "componentType": 5126,
            "count": 26718,
            "type": "VEC3",
            "name": "accessorNormals"
        },
        {
            "bufferView": 0,
            "byteOffset": 94920,
            "componentType": 5123,
            "count": 2592,
            "type": "SCALAR",
            "name": "accessorIndices"
        },
        {
            "bufferView": 1,
            "byteOffset": 858048,
            "componentType": 5126,
            "count": 486,
            "max": [
                0.220352143,
                0.4807241,
                0.220353678
            ],
            "min": [
                -0.220350817,
                0.273218334,
                -0.220350578
            ],
            "type": "VEC3",
            "name": "accessorPositions"
        },
        {
            "bufferView": 1,
            "byteOffset": 863880,
            "componentType": 5126,
            "count": 486,
            "type": "VEC3",
            "name": "accessorNormals"
        },
        {
            "bufferView": 0,
            "byteOffset": 100104,
            "componentType": 5123,
            "count": 26010,
            "type": "SCALAR",
            "name": "accessorIndices"
        },
        {
            "bufferView": 1,
            "byteOffset": 869712,
            "componentType": 5126,
            "count": 6867,
            "max": [
                0.190454245,
                0.6888952,
                0.190355822
            ],
            "min": [
                -0.190383732,
                0.225237176,
                -0.190363824
            ],
            "type": "VEC3",
            "name": "accessorPositions"
        },
        {
            "bufferView": 1,
            "byteOffset": 952116,
            "componentType": 5126,
            "count": 6867,
            "type": "VEC3",
            "name": "accessorNormals"
        },
        {
            "bufferView": 2,
            "byteOffset": 72272,
            "componentType": 5126,
            "count": 6867,
            "type": "VEC2",
            "name": "accessorUVs"
        },
        {
            "bufferView": 0,
            "byteOffset": 152124,
            "componentType": 5123,
            "count": 14754,
            "type": "SCALAR",
            "name": "accessorIndices"
        },
        {
            "bufferView": 1,
            "byteOffset": 1034520,
            "componentType": 5126,
            "count": 3868,
            "max": [
                0.08520825,
                0.4155568,
                0.08520126
            ],
            "min": [
                -0.0852482244,
                -3.027916E-09,
                -0.08525522
            ],
            "type": "VEC3",
            "name": "accessorPositions"
        },
        {
            "bufferView": 1,
            "byteOffset": 1080936,
            "componentType": 5126,
            "count": 3868,
            "type": "VEC3",
            "name": "accessorNormals"
        },
        {
            "bufferView": 2,
            "byteOffset": 127208,
            "componentType": 5126,
            "count": 3868,
            "type": "VEC2",
            "name": "accessorUVs"
        },
        {
            "bufferView": 0,
            "byteOffset": 181632,
            "componentType": 5123,
            "count": 1032,
            "type": "SCALAR",
            "name": "accessorIndices"
        },
        {
            "bufferView": 1,
            "byteOffset": 1127352,
            "componentType": 5126,
            "count": 231,
            "max": [
                0.0435070321,
                0.5029492,
                0.131507292
            ],
            "min": [
                -0.042474214,
                0.301588237,
                -0.129162222
            ],
            "type": "VEC3",
            "name": "accessorPositions"
        },
        {
            "bufferView": 1,
            "byteOffset": 1130124,
            "componentType": 5126,
            "count": 231,
            "type": "VEC3",
            "name": "accessorNormals"
        },
        {
            "bufferView": 2,
            "byteOffset": 158152,
            "componentType": 5126,
            "count": 231,
            "type": "VEC2",
            "name": "accessorUVs"
        },
        {
            "bufferView": 0,
            "byteOffset": 183696,
            "componentType": 5123,
            "count": 12096,
            "type": "SCALAR",
            "name": "accessorIndices"
        },
        {
            "bufferView": 1,
            "byteOffset": 1132896,
            "componentType": 5126,
            "count": 2616,
            "max": [
                0.218617469,
                0.5964446,
                0.218339816
            ],
            "min": [
                -0.218594968,
                0.261687368,
                -0.218334079
            ],
            "type": "VEC3",
            "name": "accessorPositions"
        },
        {
            "bufferView": 1,
            "byteOffset": 1164288,
            "componentType": 5126,
            "count": 2616,
            "type": "VEC3",
            "name": "accessorNormals"
        },
        {
            "bufferView": 2,
            "byteOffset": 160000,
            "componentType": 5126,
            "count": 2616,
            "type": "VEC2",
            "name": "accessorUVs"
        }
    ],
    "bufferViews": [
        {
            "buffer": 0,
            "byteLength": 207888,
            "name": "bufferViewScalar"
        },
        {
            "buffer": 0,
            "byteOffset": 207888,
            "byteLength": 1195680,
            "byteStride": 12,
            "name": "bufferViewFloatVec3"
        },
        {
            "buffer": 0,
            "byteOffset": 1403568,
            "byteLength": 201856,
            "byteStride": 8,
            "name": "bufferViewFloatVec2"
        }
    ],
    "buffers": [
        {
            "uri": "StainedGlassLamp.bin",
            "byteLength": 1605424
        }
    ],
    "materials": [
        {
            "pbrMetallicRoughness": {
                "baseColorTexture": {
                    "index": 3
                },
                "metallicFactor": 0,
                "metallicRoughnessTexture": {
                    "index": 1
                }
            },
            "normalTexture": {
                "index": 0
            },
            "occlusionTexture": {
                "index": 1
            },
            "emissiveTexture": {
                "index": 2
            },
            "emissiveFactor": [
                1,
                1,
                1
            ],
            "alphaMode": "MASK",
            "name": "StainedGlassLamp_grill"
        },
        {
            "pbrMetallicRoughness": {
                "baseColorFactor": [
                    0.95,
                    0.95,
                    0.95,
                    1
                ],
                "roughnessFactor": 0.1
            },
            "occlusionTexture": {
                "index": 4
            },
            "name": "StainedGlassLamp_steel"
        },
        {
            "pbrMetallicRoughness": {
                "baseColorFactor": [
                    0.7,
                    0.35,
                    0.1,
                    0.75
                ],
                "metallicFactor": 0,
                "roughnessFactor": 0.1
            },
            "emissiveFactor": [
                0.25,
                0.1,
                0
            ],
            "alphaMode": "BLEND",
            "name": "StainedGlassLamp_beads"
        },
        {
            "pbrMetallicRoughness": {
                "baseColorFactor": [
                    0.5,
                    0,
                    0,
                    0.75
                ],
                "metallicFactor": 0,
                "roughnessFactor": 0.1
            },
            "emissiveFactor": [
                0.25,
                0,
                0
            ],
            "alphaMode": "BLEND",
            "name": "StainedGlassLamp_gems"
        },
        {
            "pbrMetallicRoughness": {
                "baseColorTexture": {
                    "index": 8
                },
                "metallicFactor": 0,
                "metallicRoughnessTexture": {
                    "index": 6
                }
            },
            "normalTexture": {
                "index": 5
            },
            "occlusionTexture": {
                "index": 6
            },
            "emissiveTexture": {
                "index": 7
            },
            "emissiveFactor": [
                1,
                1,
                1
            ],
            "name": "StainedGlassLamp_hardware"
        },
        {
            "pbrMetallicRoughness": {
                "baseColorTexture": {
                    "index": 12
                },
                "metallicRoughnessTexture": {
                    "index": 10
                }
            },
            "normalTexture": {
                "index": 9
            },
            "occlusionTexture": {
                "index": 10
            },
            "emissiveTexture": {
                "index": 11
            },
            "emissiveFactor": [
                1,
                1,
                1
            ],
            "name": "StainedGlassLamp_base"
        },
        {
            "pbrMetallicRoughness": {
                "baseColorFactor": [
                    0,
                    0,
                    0,
                    1
                ],
                "metallicFactor": 0,
                "roughnessFactor": 0
            },
            "occlusionTexture": {
                "index": 13
            },
            "emissiveFactor": [
                1,
                1,
                1
            ],
            "name": "StainedGlassLamp_bulbs"
        },
        {
            "pbrMetallicRoughness": {
                "baseColorTexture": {
                    "index": 17
                },
                "metallicRoughnessTexture": {
                    "index": 15
                }
            },
            "normalTexture": {
                "index": 14
            },
            "occlusionTexture": {
                "index": 15
            },
            "emissiveTexture": {
                "index": 16
            },
            "emissiveFactor": [
                1,
                1,
                1
            ],
            "alphaMode": "MASK",
            "name": "StainedGlassLamp_glass"
        }
    ],
    "textures": [
        {
            "sampler": 0,
            "source": 0,
            "name": "StainedGlassLamp_grill_normal.ktx2"
        },
        {
            "sampler": 0,
            "source": 1,
            "name": "StainedGlassLamp_grill_occlusion-rough-metal.ktx2"
        },
        {
            "sampler": 0,
            "source": 2,
            "name": "StainedGlassLamp_grill_emissive.ktx2"
        },
        {
            "sampler": 0,
            "source": 3,
            "name": "StainedGlassLamp_grill_basecolor-alpha.ktx2"
        },
        {
            "sampler": 0,
            "source": 4,
            "name": "StainedGlassLamp_steel_occlusion.ktx2"
        },
        {
            "sampler": 0,
            "source": 5,
            "name": "StainedGlassLamp_hardware_normal.ktx2"
        },
        {
            "sampler": 0,
            "source": 6,
            "name": "StainedGlassLamp_hardware_occlusion-rough-metal.ktx2"
        },
        {
            "sampler": 0,
            "source": 7,
            "name": "StainedGlassLamp_hardware_emissive.ktx2"
        },
        {
            "sampler": 0,
            "source": 8,
            "name": "StainedGlassLamp_hardware_basecolor.ktx2"
        },
        {
            "sampler": 0,
            "source": 9,
            "name": "StainedGlassLamp_base_normal.ktx2"
        },
        {
            "sampler": 0,
            "source": 10,
            "name": "StainedGlassLamp_base_occlusion-rough-metal.ktx2"
        },
        {
            "sampler": 0,
            "source": 11,
            "name": "StainedGlassLamp_base_emissive.ktx2"
        },
        {
            "sampler": 0,
            "source": 12,
            "name": "StainedGlassLamp_base_basecolor.ktx2"
        },
        {
            "sampler": 0,
            "source": 13,
            "name": "StainedGlassLamp_bulbs_occlusion.ktx2"
        },
        {
            "sampler": 0,
            "source": 14,
            "name": "StainedGlassLamp_glass_normal.ktx2"
        },
        {
            "sampler": 0,
            "source": 15,
            "name": "StainedGlassLamp_glass_occlusion-rough-metal.ktx2"
        },
        {
            "sampler": 0,
            "source": 16,
            "name": "StainedGlassLamp_glass_emissive.ktx2"
        },
        {
            "sampler": 0,
            "source": 17,
            "name": "StainedGlassLamp_glass_basecolor-alpha.ktx2"
        }
    ],
    "images": [
        {
            "uri": "StainedGlassLamp_grill_normal.ktx2"
        },
        {
            "uri": "StainedGlassLamp_grill_occlusion-rough-metal.ktx2"
        },
        {
            "uri": "StainedGlassLamp_grill_emissive.ktx2"
        },
        {
            "uri": "StainedGlassLamp_grill_basecolor-alpha.ktx2"
        },
        {
            "uri": "StainedGlassLamp_steel_occlusion-rough-metal.ktx2"
        },
        {
            "uri": "StainedGlassLamp_hardware_normal.ktx2"
        },
        {
            "uri": "StainedGlassLamp_hardware_occlusion-rough-metal.ktx2"
        },
        {
            "uri": "StainedGlassLamp_hardware_emissive.ktx2"
        },
        {
            "uri": "StainedGlassLamp_hardware_basecolor.ktx2"
        },
        {
            "uri": "StainedGlassLamp_base_normal.ktx2"
        },
        {
            "uri": "StainedGlassLamp_base_occlusion-rough-metal.ktx2"
        },
        {
            "uri": "StainedGlassLamp_base_emissive.ktx2"
        },
        {
            "uri": "StainedGlassLamp_base_basecolor.ktx2"
        },
        {
            "uri": "StainedGlassLamp_bulbs_occlusion-rough-metal.ktx2"
        },
        {
            "uri": "StainedGlassLamp_glass_normal.ktx2"
        },
        {
            "uri": "StainedGlassLamp_glass_occlusion-rough-metal.ktx2"
        },
        {
            "uri": "StainedGlassLamp_glass_emissive.ktx2"
        },
        {
            "uri": "StainedGlassLamp_glass_basecolor-alpha.ktx2"
        }
    ],
    "samplers": [
        {
            "magFilter": 9729,
            "minFilter": 9987
        }
    ]
}