{
  "scenes" : {
    "scene0" : {
      "nodes" : [ "node0" ]
    }
  },
  "nodes" : {
    "node0" : {
      "meshes" : [ "mesh0" ],
      "rotation" : [ 0.0, 0.0, 0.0, 1.0 ]
    }
  },
  "meshes" : {
    "mesh0" : {
      "primitives" : [ {
        "attributes" : {
          "POSITION" : "positionsAccessor"
        },
        "indices" : "indicesAccessor"
      } ]
    }
  },
  
  "animations": {
    "animation0": {
      "samplers" : {
        "rotationSampler" : {
          "input" : "timeAccessor",
          "interpolation" : "LINEAR",
          "output" : "rotationAccessor"
        }
      },
      "channels" : [ {
        "sampler" : "rotationSampler",
        "target" : {
          "id" : "node0",
          "path" : "rotation"
        }
      } ]
    }
  },

  "buffers" : {
    "buffer0" : {
      "uri" : "triangle0.bin",
      "byteLength" : 48
    },
    "buffer1" : {
      "uri" : "animation0.bin",
      "byteLength" : 112
    }
  },
  "bufferViews" : {
    "indicesBufferView" : {
      "buffer" : "buffer0",
      "byteOffset" : 0,
      "byteLength" : 6,
      "target" : 34963
    },
    "positionsBufferView" : {
      "buffer" : "buffer0",
      "byteOffset" : 12,
      "byteLength" : 36,
      "target" : 34962
    },
    "animationsBufferView" : {
      "buffer" : "buffer1",
      "byteOffset" : 0,
      "byteLength" : 112
    }
  },
  "accessors" : {
    "indicesAccessor" : {
      "bufferView" : "indicesBufferView",
      "byteOffset" : 0,
      "componentType" : 5123,
      "count" : 3,
      "type" : "SCALAR",
      "max" : [ 2 ],
      "min" : [ 0 ]
    },
    "positionsAccessor" : {
      "bufferView" : "positionsBufferView",
      "byteOffset" : 0,
      "componentType" : 5126,
      "count" : 3,
      "type" : "VEC3",
      "max" : [ 1.0, 1.0, 0.0 ],
      "min" : [ 0.0, 0.0, 0.0 ]
    },
    "timeAccessor" : {
      "bufferView" : "animationsBufferView",
      "byteOffset" : 0,
      "componentType" : 5126,
      "count" : 5,
      "type" : "SCALAR",
      "max" : [ 1.0 ],
      "min" : [ 0.0 ]
    },
    "rotationAccessor" : {
      "bufferView" : "animationsBufferView",
      "byteOffset" : 32,
      "componentType" : 5126,
      "count" : 5,
      "type" : "VEC4",
      "max" : [ 0.0, 0.0, 1.0, 1.0 ],
      "min" : [ 0.0, 0.0, 0.0, -0.707 ]
    }
  },
  
  "asset" : {
    "version" : "1.1"
  }
  
}
