{
  "scenes" : {
    "scene0" : {
      "nodes" : [ "node0" ]
    }
  },
  "nodes" : {
    "node0" : {
      "meshes" : [ "mesh0" ],
      "skeletons": [ "jointNode0" ],
      "skin": "simpleSkin"
    },
    "jointNode0" : {
      "jointName" : "joint0",
      "children" : [ "jointNode1" ],
      "translation" : [ 0.0, 1.0, 0.0 ]
    },
    "jointNode1" : {
      "jointName" : "joint1",
      "rotation" : [ 0.0, 0.0, 0.0, 1.0 ]
    }
  },
  
  "skins": {
    "simpleSkin": {
      "bindShapeMatrix": [
         1.0, 0.0, 0.0, 0.0,
         0.0, 1.0, 0.0, 0.0,
         0.0, 0.0, 1.0, 0.0,
        -0.5, 0.0, 0.0, 1.0
      ],
      "jointNames": [
        "joint0",
        "joint1"
      ],
      "inverseBindMatrices": "inverseBindMatricesAccessor"
    }
  },
  
  "animations": {
    "animation0": {
      "samplers" : {
        "rotationSampler" : {
          "input" : "TIMEAccessor",
          "interpolation" : "LINEAR",
          "output" : "rotationAccessor"
        }
      },
      "channels" : [ {
        "sampler" : "rotationSampler",
        "target" : {
          "id" : "jointNode1",
          "path" : "rotation"
        }
      } ]
    }
  },
  
  "meshes" : {
    "mesh0" : {
      "primitives" : [ {
        "attributes" : {
          "POSITION" : "positionsAccessor",
          "JOINT" : "jointsAccessor",
          "WEIGHT" : "weightsAccessor"
        },
        "indices" : "indicesAccessor",
        "material" : "simpleSkinMaterial"
      } ]
    }
  },


  "materials": {
    "simpleSkinMaterial": {
      "technique": "simpleSkinTechnique"
    }
  },
  
  "techniques": {
    "simpleSkinTechnique": {
      "attributes": {
        "a_position": "position",
        "a_joint": "joint",
        "a_weight": "weight"
      },
      "uniforms": {
        "u_jointMat": "jointMat",
        "u_modelViewMatrix": "modelViewMatrix",
        "u_projectionMatrix": "projectionMatrix"
      },
      "parameters": {
        "position": {
          "semantic": "POSITION",
          "type": 35665
        },
        "joint": {
          "semantic": "JOINT",
          "type": 35666
        },
        "weight": {
          "semantic": "WEIGHT",
          "type": 35666
        },
        "jointMat": {
          "count": 2,
          "semantic": "JOINTMATRIX",
          "type": 35676
        },
        "modelViewMatrix": {
          "semantic": "MODELVIEW",
          "type": 35676
        },
        "projectionMatrix": {
          "semantic": "PROJECTION",
          "type": 35676
        }
      },
      "program": "simpleSkinProgram",
      "states": {
        "enable": [
          2929
        ]
      }
    }
  },
  
  "programs": {
    "simpleSkinProgram": {
      "attributes": [
        "a_position",
        "a_joint",
        "a_weight"
      ],
      "vertexShader": "simpleSkinVertexShader",
      "fragmentShader": "simpleSkinFragmentShader"
    }
  },
  "shaders": {
    "simpleSkinVertexShader": {
      "type": 35633,
      "uri": "simpleSkin.vert"
    },
    "simpleSkinFragmentShader": {
      "type": 35632,
      "uri": "simpleSkin.frag"
    }
  },


  "buffers" : {
    "geometryBuffer" : {
      "uri" : "skinGeometry.bin",
      "byteLength" : 168
    },
    "skinningBuffer" : {
      "uri" : "skinningData.bin",
      "byteLength" : 320
    },
    "inverseBindMatricesBuffer" : {
      "uri" : "inverseBindMatrices.bin",
      "byteLength" : 128
    },
    "animationBuffer" : {
      "uri" : "skinAnimation.bin",
      "byteLength" : 240
    }
  },
  
  "bufferViews" : {
    "indicesBufferView" : {
      "buffer" : "geometryBuffer",
      "byteOffset" : 0,
      "byteLength" : 48,
      "target" : 34963
    },
    "positionsBufferView" : {
      "buffer" : "geometryBuffer",
      "byteOffset" : 48,
      "byteLength" : 120,
      "target" : 34962
    },
    "skinningBufferView" : {
      "buffer" : "skinningBuffer",
      "byteOffset" : 0,
      "byteLength" : 320,
      "target" : 34962
    },
    "inverseBindMatricesBufferView" : {
      "buffer" : "inverseBindMatricesBuffer",
      "byteOffset" : 0,
      "byteLength" : 128
    },
    "animationBufferView" : {
      "buffer" : "animationBuffer",
      "byteOffset" : 0,
      "byteLength" : 240
    }
  },
  "accessors" : {
    "indicesAccessor" : {
      "bufferView" : "indicesBufferView",
      "byteOffset" : 0,
      "componentType" : 5123,
      "count" : 24,
      "type" : "SCALAR",
      "max" : [ 9 ],
      "min" : [ 0 ]
    },
    "positionsAccessor" : {
      "bufferView" : "positionsBufferView",
      "byteOffset" : 0,
      "componentType" : 5126,
      "count" : 10,
      "type" : "VEC3",
      "max" : [ 1.0, 2.0, 0.0 ],
      "min" : [ 0.0, 0.0, 0.0 ]
    },
    "jointsAccessor" : {
      "bufferView" : "skinningBufferView",
      "byteOffset" : 0,
      "componentType" : 5126,
      "count" : 10,
      "type" : "VEC4",
      "max" : [ 1.0, 1.0, 0.0, 0.0 ],
      "min" : [ 0.0, 0.0, 0.0, 0.0 ]
    },
    "weightsAccessor" : {
      "bufferView" : "skinningBufferView",
      "byteOffset" : 160,
      "componentType" : 5126,
      "count" : 10,
      "type" : "VEC4",
      "max" : [ 1.0, 1.0, 0.0, 0.0 ],
      "min" : [ 0.0, 0.0, 0.0, 0.0 ]
    },
    "inverseBindMatricesAccessor" : {
      "bufferView" : "inverseBindMatricesBufferView",
      "byteOffset" : 0,
      "componentType" : 5126,
      "count" : 2,
      "type" : "MAT4",
      "max" : [1.0, 0.0, 0.0, 0.0, 0.0, 1.0, 0.0, 0.0, 0.0, 0.0, 1.0, 0.0, 0.0, -1.0, 0.0, 1.0],
      "min" : [1.0, 0.0, 0.0, 0.0, 0.0, 1.0, 0.0, 0.0, 0.0, 0.0, 1.0, 0.0, 0.0, -2.0, 0.0, 1.0]
    },
    "TIMEAccessor" : {
      "bufferView" : "animationBufferView",
      "byteOffset" : 0,
      "componentType" : 5126,
      "count" : 12,
      "type" : "SCALAR",
      "max" : [ 1.0 ],
      "min" : [ 0.0 ]
    },
    "rotationAccessor" : {
      "bufferView" : "animationBufferView",
      "byteOffset" : 48,
      "componentType" : 5126,
      "count" : 12,
      "type" : "VEC4",
      "max" : [ 0.0, 0.0, 0.707, 1.0 ],
      "min" : [ 0.0, 0.0, -0.707, -0.707 ]
    }
  },
  "asset" : {
    "version" : "1.1"
  }
}
