{
    "asset": {
        "generator": "COLLADA2GLTF",
        "version": "2.0"
    },
    "scene": 0,
    "scenes": [
        {
            "nodes": [
                6,
                5,
                2,
                1,
                0
            ]
        }
    ],
    "nodes": [
        {
            "matrix": [
                0.7071067690849304,
                0.0,
                0.7071067690849304,
                0.0,
                0.3535533845424652,
                0.8660253882408142,
                -0.3535533845424652,
                0.0,
                -0.6123724579811096,
                0.5,
                0.6123724579811096,
                0.0,
                -2.0,
                2.0,
                2.0,
                1.0
            ]
        },
        {
            "matrix": [
                1.0,
                0.0,
                0.0,
                0.0,
                0.0,
                0.9961947202682496,
                -0.08715574443340302,
                0.0,
                0.0,
                0.08715574443340302,
                0.9961947202682496,
                0.0,
                0.0,
                0.75,
                4.0,
                1.0
            ]
        },
        {
            "children": [
                3
            ],
            "translation": [
                0.0,
                0.0,
                0.0
            ],
            "rotation": [
                -0.0,
                -0.0,
                -0.0,
                -1.0
            ],
            "scale": [
                1.0,
                1.0,
                1.0
            ]
        },
        {
            "children": [
                4
            ],
            "matrix": [
                1.0,
                0.0,
                0.0,
                0.0,
                0.0,
                1.0,
                0.0,
                0.0,
                0.0,
                0.0,
                1.0,
                0.0,
                0.0,
                0.0,
                0.0,
                1.0
            ]
        },
        {
            "mesh": 0,
            "translation": [
                0.0,
                0.0,
                0.0
            ],
            "rotation": [
                -0.0,
                -0.0,
                -0.0,
                -1.0
            ],
            "scale": [
                1.0,
                1.0,
                1.0
            ]
        },
        {
            "mesh": 1,
            "matrix": [
                1.0,
                0.0,
                0.0,
                0.0,
                0.0,
                1.0,
                0.0,
                0.0,
                0.0,
                0.0,
                1.0,
                0.0,
                0.0,
                0.0,
                0.0,
                1.0
            ]
        },
        {
            "matrix": [
                1.0,
                0.0,
                0.0,
                0.0,
                0.0,
                1.0,
                0.0,
                0.0,
                0.0,
                0.0,
                1.0,
                0.0,
                0.0,
                0.0,
                0.0,
                1.0
            ]
        }
    ],
    "meshes": [
        {
            "primitives": [
                {
                    "attributes": {
                        "NORMAL": 1,
                        "POSITION": 2
                    },
                    "indices": 0,
                    "mode": 4,
                    "material": 0
                }
            ],
            "name": "inner_box"
        },
        {
            "primitives": [
                {
                    "attributes": {
                        "NORMAL": 4,
                        "POSITION": 5
                    },
                    "indices": 3,
                    "mode": 4,
                    "material": 1
                }
            ],
            "name": "outer_box"
        }
    ],
    "animations": [
        {
            "channels": [
                {
                    "sampler": 0,
                    "target": {
                        "node": 4,
                        "path": "rotation"
                    }
                }
            ],
            "samplers": [
                {
                    "input": 6,
                    "interpolation": "LINEAR",
                    "output": 7
                }
            ]
        },
        {
            "channels": [
                {
                    "sampler": 0,
                    "target": {
                        "node": 2,
                        "path": "translation"
                    }
                }
            ],
            "samplers": [
                {
                    "input": 8,
                    "interpolation": "LINEAR",
                    "output": 9
                }
            ]
        }
    ],
    "accessors": [
        {
            "bufferView": 0,
            "byteOffset": 1152,
            "byteStride": 0,
            "componentType": 5123,
            "count": 186,
            "max": [
                95.0
            ],
            "min": [
                0.0
            ],
            "type": "SCALAR"
        },
        {
            "bufferView": 1,
            "byteOffset": 5376,
            "byteStride": 0,
            "componentType": 5126,
            "count": 96,
            "max": [
                1.0,
                1.0,
                1.0
            ],
            "min": [
                -1.0,
                -1.0,
                -1.0
            ],
            "type": "VEC3"
        },
        {
            "bufferView": 1,
            "byteOffset": 6528,
            "byteStride": 0,
            "componentType": 5126,
            "count": 96,
            "max": [
                0.33504000306129458,
                0.5,
                0.33504000306129458
            ],
            "min": [
                -0.33504000306129458,
                -0.5,
                -0.33504000306129458
            ],
            "type": "VEC3"
        },
        {
            "bufferView": 0,
            "byteOffset": 0,
            "byteStride": 0,
            "componentType": 5123,
            "count": 576,
            "max": [
                223.0
            ],
            "min": [
                0.0
            ],
            "type": "SCALAR"
        },
        {
            "bufferView": 1,
            "byteOffset": 0,
            "byteStride": 0,
            "componentType": 5126,
            "count": 224,
            "max": [
                1.0,
                1.0,
                1.0
            ],
            "min": [
                -1.0,
                -1.0,
                -1.0
            ],
            "type": "VEC3"
        },
        {
            "bufferView": 1,
            "byteOffset": 2688,
            "byteStride": 0,
            "componentType": 5126,
            "count": 224,
            "max": [
                0.5,
                0.5,
                0.5
            ],
            "min": [
                -0.5,
                -0.5,
                -0.5
            ],
            "type": "VEC3"
        },
        {
            "bufferView": 2,
            "byteOffset": 0,
            "byteStride": 0,
            "componentType": 5126,
            "count": 2,
            "max": [
                2.5
            ],
            "min": [
                1.25
            ],
            "type": "SCALAR"
        },
        {
            "bufferView": 2,
            "byteOffset": 8,
            "byteStride": 0,
            "componentType": 5126,
            "count": 2,
            "max": [
                1.0,
                0.0,
                0.0,
                4.4896593387466768e-11
            ],
            "min": [
                -0.0,
                0.0,
                0.0,
                -1.0
            ],
            "type": "VEC4"
        },
        {
            "bufferView": 2,
            "byteOffset": 40,
            "byteStride": 0,
            "componentType": 5126,
            "count": 4,
            "max": [
                3.708329916000366
            ],
            "min": [
                0.0
            ],
            "type": "SCALAR"
        },
        {
            "bufferView": 2,
            "byteOffset": 56,
            "byteStride": 0,
            "componentType": 5126,
            "count": 4,
            "max": [
                0.0,
                2.5199999809265138,
                0.0
            ],
            "min": [
                0.0,
                0.0,
                0.0
            ],
            "type": "VEC3"
        }
    ],
    "materials": [
        {
            "pbrMetallicRoughness": {
                "baseColorFactor": [
                    0.800000011920929,
                    0.4159420132637024,
                    0.7952920198440552,
                    1.0
                ]
            }
        },
        {
            "pbrMetallicRoughness": {
                "baseColorFactor": [
                    0.3016040027141571,
                    0.5335419774055481,
                    0.800000011920929,
                    1.0
                ]
            }
        }
    ],
    "bufferViews": [
        {
            "buffer": 0,
            "byteOffset": 7680,
            "byteLength": 1524,
            "target": 34963
        },
        {
            "buffer": 0,
            "byteOffset": 0,
            "byteLength": 7680,
            "target": 34962
        },
        {
            "buffer": 0,
            "byteOffset": 9204,
            "byteLength": 104
        }
    ],
    "buffers": [
        {
            "byteLength": 9308,
            "uri": "data:application/octet-stream;base64,"
        }
    ]
}
