{
  "scenes" : {
    "scene0" : {
      "nodes" : [ "node0", "node1" ]
    }
  },
  "nodes" : {
    "node0" : {
      "meshes" : [ "mesh0" ]
    },
    "node1" : {
      "meshes" : [ "mesh0" ],
      "translation" : [ 1.0, 0.0, 0.0 ]
    }
  },

  "meshes" : {
    "mesh0" : {
      "primitives" : [ {
        "attributes" : {
          "POSITION" : "positionsAccessor",
          "NORMAL" : "normalsAccessor"
        },
        "indices" : "indicesAccessor"
      } ]
    }
  },

  "buffers" : {
    "geometryBuffer" : {
      "uri" : "data:application/octet-stream;base64,",
      "byteLength" : 80
    }
  },
  "bufferViews" : {
    "indicesBufferView" : {
      "buffer" : "geometryBuffer",
      "byteOffset" : 0,
      "byteLength" : 6,
      "target" : 34963
    },
    "attributesBufferView" : {
      "buffer" : "geometryBuffer",
      "byteOffset" : 8,
      "byteLength" : 72,
      "target" : 34962
    }
  },
  "accessors" : {
    "indicesAccessor" : {
      "bufferView" : "indicesBufferView",
      "byteOffset" : 0,
      "componentType" : 5123,
      "count" : 3,
      "type" : "SCALAR",
      "max" : [ 2 ],
      "min" : [ 0 ]
    },
    "positionsAccessor" : {
      "bufferView" : "attributesBufferView",
      "byteOffset" : 0,
      "componentType" : 5126,
      "count" : 3,
      "type" : "VEC3",
      "max" : [ 1.0, 1.0, 0.0 ],
      "min" : [ 0.0, 0.0, 0.0 ]
    },
    "normalsAccessor" : {
      "bufferView" : "attributesBufferView",
      "byteOffset" : 36,
      "componentType" : 5126,
      "count" : 3,
      "type" : "VEC3",
      "max" : [ 0.0, 0.0, 1.0 ],
      "min" : [ 0.0, 0.0, 1.0 ]
    }
  },
  
  "asset" : {
    "version" : "1.1"
  }
}