{
  "asset": {
    "version": "2.0",
    "generator": "babylon.js glTF exporter for Maya 2018 v20200617.6"
  },
  "extensionsUsed": [
    "KHR_texture_transform",
    "KHR_materials_sheen"
  ],
  "extensionsRequired": [
    "KHR_texture_transform",
    "KHR_materials_sheen"
  ],
  "scene": 0,
  "scenes": [
    {
      "nodes": [
        0
      ]
    }
  ],
  "nodes": [
    {
      "mesh": 0,
      "name": "sheen_clothAsset_mesh"
    }
  ],
  "meshes": [
    {
      "primitives": [
        {
          "attributes": {
            "POSITION": 1,
            "TANGENT": 2,
            "NORMAL": 3,
            "TEXCOORD_0": 4
          },
          "indices": 0,
          "material": 0
        }
      ],
      "name": "sheen_clothAsset_mesh"
    }
  ],
  "accessors": [
    {
      "bufferView": 0,
      "componentType": 5123,
      "count": 345600,
      "type": "SCALAR",
      "name": "accessorIndices"
    },
    {
      "bufferView": 1,
      "componentType": 5126,
      "count": 58081,
      "max": [
        0.0447657481,
        0.0404023454,
        0.022842247
      ],
      "min": [
        -0.02736334,
        9.99381155E-05,
        -0.04848177
      ],
      "type": "VEC3",
      "name": "accessorPositions"
    },
    {
      "bufferView": 2,
      "componentType": 5126,
      "count": 58081,
      "type": "VEC4",
      "name": "accessorTangents"
    },
    {
      "bufferView": 1,
      "byteOffset": 696972,
      "componentType": 5126,
      "count": 58081,
      "type": "VEC3",
      "name": "accessorNormals"
    },
    {
      "bufferView": 3,
      "componentType": 5126,
      "count": 58081,
      "type": "VEC2",
      "name": "accessorUVs"
    }
  ],
  "bufferViews": [
    {
      "buffer": 0,
      "byteOffset": 0,
      "byteLength": 691200,
      "name": "bufferViewScalar"
    },
    {
      "buffer": 0,
      "byteOffset": 691200,
      "byteLength": 1393944,
      "byteStride": 12,
      "name": "bufferViewFloatVec3"
    },
    {
      "buffer": 0,
      "byteOffset": 2085144,
      "byteLength": 929296,
      "byteStride": 16,
      "name": "bufferViewFloatVec4"
    },
    {
      "buffer": 0,
      "byteOffset": 3014440,
      "byteLength": 464648,
      "byteStride": 8,
      "name": "bufferViewFloatVec2"
    }
  ],
  "buffers": [
    {
      "byteLength": 3479088,
      "uri": "sheen_clothAsset.bin"
    }
  ],
  "materials": [
    {
      "pbrMetallicRoughness": {
        "baseColorTexture": {
          "index": 2,
          "extensions": {
            "KHR_texture_transform": {
              "offset": [
                0.0,
                0.0
              ],
              "scale": [
                30.0,
                -30.0
              ],
              "texCoord": 0
            }
          }
        },
        "metallicRoughnessTexture": {
          "index": 1,
          "extensions": {
            "KHR_texture_transform": {
              "offset": [
                0.0,
                0.0
              ],
              "scale": [
                30.0,
                -30.0
              ],
              "texCoord": 0
            }
          }
        }
      },
      "normalTexture": {
        "index": 0,
        "extensions": {
          "KHR_texture_transform": {
            "offset": [
              0.0,
              0.0
            ],
            "scale": [
              30.0,
              -30.0
            ],
            "texCoord": 0
          }
        }
      },
      "occlusionTexture": {
        "index": 1,
        "extensions": {
          "KHR_texture_transform": {
            "offset": [
              0.0,
              0.0
            ],
            "scale": [
              30.0,
              -30.0
            ],
            "texCoord": 0
          }
        }
      },
      "extensions": {
        "KHR_materials_sheen": {
          "sheenColorFactor": [
              1.0,
              1.0,
              1.0
          ],
          "sheenRoughnessFactor": 1.0,
          "sheenTexture": {
            "index": 3,
            "extensions": {
              "KHR_texture_transform": {
                "offset": [
                  0.0,
                  0.0
                ],
                "scale": [
                  30.0,
                  -30.0
                ],
                "texCoord": 0
              }
            }
          }
        }
      },
      "doubleSided": true,
      "name": "sheen_clothAssetMat"
    }
  ],
  "textures": [
    {
      "sampler": 0,
      "source": 0,
      "name": "technicalFabric_normal.png"
    },
    {
      "sampler": 0,
      "source": 1,
      "name": "technicalFabric_orm.png"
    },
    {
      "sampler": 0,
      "source": 2,
      "name": "technicalFabric_basecolor.png"
    },
    {
      "sampler": 0,
      "source": 3,
      "name": "technicalFabric_sheen.png"
    }
  ],
  "images": [
    {
      "uri": "sheen_clothAsset_image0.png"
    },
    {
      "uri": "sheen_clothAsset_image1.png"
    },
    {
      "uri": "sheen_clothAsset_image2.png"
    },
    {
      "uri": "sheen_clothAsset_image3.png"
    }
  ],
  "samplers": [
    {
      "magFilter": 9729,
      "minFilter": 9987
    }
  ]
}