{
  "asset": {
    "generator": "glTF-Transform v0.7.5",
    "version": "2.0"
  },
  "accessors": [
    {
      "name": "accessorIndices",
      "type": "SCALAR",
      "componentType": 5123,
      "count": 59040,
      "max": [
        10471
      ],
      "min": [
        0
      ],
      "normalized": false,
      "bufferView": 0,
      "byteOffset": 0
    },
    {
      "name": "accessorIndices",
      "type": "SCALAR",
      "componentType": 5123,
      "count": 72534,
      "max": [
        13637
      ],
      "min": [
        0
      ],
      "normalized": false,
      "bufferView": 0,
      "byteOffset": 118080
    },
    {
      "name": "accessorIndices",
      "type": "SCALAR",
      "componentType": 5123,
      "count": 24408,
      "max": [
        4675
      ],
      "min": [
        0
      ],
      "normalized": false,
      "bufferView": 0,
      "byteOffset": 263148
    },
    {
      "name": "accessorIndices",
      "type": "SCALAR",
      "componentType": 5123,
      "count": 60288,
      "max": [
        13635
      ],
      "min": [
        0
      ],
      "normalized": false,
      "bufferView": 0,
      "byteOffset": 311964
    },
    {
      "name": "accessorIndices",
      "type": "SCALAR",
      "componentType": 5123,
      "count": 65688,
      "max": [
        12533
      ],
      "min": [
        0
      ],
      "normalized": false,
      "bufferView": 0,
      "byteOffset": 432540
    },
    {
      "name": "accessorIndices",
      "type": "SCALAR",
      "componentType": 5123,
      "count": 2208,
      "max": [
        435
      ],
      "min": [
        0
      ],
      "normalized": false,
      "bufferView": 0,
      "byteOffset": 563916
    },
    {
      "name": "accessorPositions",
      "type": "VEC3",
      "componentType": 5126,
      "count": 10472,
      "max": [
        0.108108289539814,
        0.3565802574157715,
        0.19040986895561218
      ],
      "min": [
        -0.0722125768661499,
        0.10412022471427917,
        -0.08839477598667145
      ],
      "normalized": false,
      "bufferView": 1,
      "byteOffset": 0
    },
    {
      "name": "accessorTangents",
      "type": "VEC4",
      "componentType": 5126,
      "count": 10472,
      "max": [
        0.9998195767402649,
        0.971885621547699,
        0.9998193383216858,
        1
      ],
      "min": [
        -0.9998931884765625,
        -0.9998220205307007,
        -0.9998051524162292,
        1
      ],
      "normalized": false,
      "bufferView": 1,
      "byteOffset": 12
    },
    {
      "name": "accessorNormals",
      "type": "VEC3",
      "componentType": 5126,
      "count": 10472,
      "max": [
        0.9999465346336365,
        0.9999475479125977,
        0.9997301697731018
      ],
      "min": [
        -0.9998682737350464,
        -0.9999690055847168,
        -0.9999495148658752
      ],
      "normalized": false,
      "bufferView": 1,
      "byteOffset": 28
    },
    {
      "name": "accessorUVs",
      "type": "VEC2",
      "componentType": 5126,
      "count": 10472,
      "max": [
        0.9269070029258728,
        0.5900999903678894
      ],
      "min": [
        0.008617740124464035,
        0.4589419960975647
      ],
      "normalized": false,
      "bufferView": 1,
      "byteOffset": 40
    },
    {
      "name": "accessorPositions",
      "type": "VEC3",
      "componentType": 5126,
      "count": 13638,
      "max": [
        0.1629406362771988,
        0.7025225758552551,
        0.2000291645526886
      ],
      "min": [
        -0.15885746479034424,
        -0.00002142429366358556,
        -0.17154578864574432
      ],
      "normalized": false,
      "bufferView": 2,
      "byteOffset": 0
    },
    {
      "name": "accessorTangents",
      "type": "VEC4",
      "componentType": 5126,
      "count": 13638,
      "max": [
        1,
        0.9999997019767761,
        0.9996488690376282,
        1
      ],
      "min": [
        -0.9999998807907104,
        -0.9999496936798096,
        -0.9999695420265198,
        -1
      ],
      "normalized": false,
      "bufferView": 2,
      "byteOffset": 12
    },
    {
      "name": "accessorNormals",
      "type": "VEC3",
      "componentType": 5126,
      "count": 13638,
      "max": [
        1,
        1,
        1
      ],
      "min": [
        -1,
        -1,
        -1
      ],
      "normalized": false,
      "bufferView": 2,
      "byteOffset": 28
    },
    {
      "name": "accessorUVs",
      "type": "VEC2",
      "componentType": 5126,
      "count": 13638,
      "max": [
        0.9925310015678406,
        0.9847761988639832
      ],
      "min": [
        0.009647809900343418,
        0.010762989521026611
      ],
      "normalized": false,
      "bufferView": 2,
      "byteOffset": 40
    },
    {
      "name": "accessorPositions",
      "type": "VEC3",
      "componentType": 5126,
      "count": 4676,
      "max": [
        0.14049406349658966,
        0.6182865500450134,
        0.14737364649772644
      ],
      "min": [
        -0.14084601402282715,
        0.4409570097923279,
        -0.1078183650970459
      ],
      "normalized": false,
      "bufferView": 3,
      "byteOffset": 0
    },
    {
      "name": "accessorTangents",
      "type": "VEC4",
      "componentType": 5126,
      "count": 4676,
      "max": [
        0.9994044899940491,
        0.9996466636657715,
        0.9999945163726807,
        1
      ],
      "min": [
        -0.9999966621398926,
        -0.9998803734779358,
        -0.9999945759773254,
        1
      ],
      "normalized": false,
      "bufferView": 3,
      "byteOffset": 12
    },
    {
      "name": "accessorNormals",
      "type": "VEC3",
      "componentType": 5126,
      "count": 4676,
      "max": [
        0.9999154210090637,
        0.9999252557754517,
        0.9999473690986633
      ],
      "min": [
        -0.999915361404419,
        -0.9999002814292908,
        -0.9998449087142944
      ],
      "normalized": false,
      "bufferView": 3,
      "byteOffset": 28
    },
    {
      "name": "accessorUVs",
      "type": "VEC2",
      "componentType": 5126,
      "count": 4676,
      "max": [
        0.9942280054092407,
        0.9887650012969971
      ],
      "min": [
        0.017704999074339867,
        0.01640099287033081
      ],
      "normalized": false,
      "bufferView": 3,
      "byteOffset": 40
    },
    {
      "name": "accessorPositions",
      "type": "VEC3",
      "componentType": 5126,
      "count": 13636,
      "max": [
        0.1327083706855774,
        0.6024364233016968,
        0.19947707653045654
      ],
      "min": [
        -0.20364271104335785,
        0.021160749718546867,
        -0.14751268923282623
      ],
      "normalized": false,
      "bufferView": 4,
      "byteOffset": 0
    },
    {
      "name": "accessorTangents",
      "type": "VEC4",
      "componentType": 5126,
      "count": 13636,
      "max": [
        0.9998770356178284,
        0.9999485015869141,
        0.9998076558113098,
        1
      ],
      "min": [
        -0.9999999403953552,
        -0.9999996423721313,
        -0.9999971985816956,
        -1
      ],
      "normalized": false,
      "bufferView": 4,
      "byteOffset": 12
    },
    {
      "name": "accessorNormals",
      "type": "VEC3",
      "componentType": 5126,
      "count": 13636,
      "max": [
        0.9996864199638367,
        0.9999645352363586,
        0.999999463558197
      ],
      "min": [
        -0.9995061159133911,
        -0.999977707862854,
        -0.999999463558197
      ],
      "normalized": false,
      "bufferView": 4,
      "byteOffset": 28
    },
    {
      "name": "accessorUVs",
      "type": "VEC2",
      "componentType": 5126,
      "count": 13636,
      "max": [
        0.9912530183792114,
        0.9927529692649841
      ],
      "min": [
        0.00990993995219469,
        0.012597978115081787
      ],
      "normalized": false,
      "bufferView": 4,
      "byteOffset": 40
    },
    {
      "name": "accessorPositions",
      "type": "VEC3",
      "componentType": 5126,
      "count": 12534,
      "max": [
        0.12493337690830231,
        0.7160004377365112,
        0.1291685551404953
      ],
      "min": [
        -0.12586301565170288,
        0.29582661390304565,
        -0.15415160357952118
      ],
      "normalized": false,
      "bufferView": 5,
      "byteOffset": 0
    },
    {
      "name": "accessorTangents",
      "type": "VEC4",
      "componentType": 5126,
      "count": 12534,
      "max": [
        0.9999915957450867,
        0.9999412298202515,
        0.9999598860740662,
        1
      ],
      "min": [
        -0.9999614953994751,
        -0.9999892711639404,
        -0.9999998807907104,
        1
      ],
      "normalized": false,
      "bufferView": 5,
      "byteOffset": 12
    },
    {
      "name": "accessorNormals",
      "type": "VEC3",
      "componentType": 5126,
      "count": 12534,
      "max": [
        0.9999923706054688,
        0.9998153448104858,
        0.999984860420227
      ],
      "min": [
        -0.9999925494194031,
        -0.9998548030853271,
        -0.999951958656311
      ],
      "normalized": false,
      "bufferView": 5,
      "byteOffset": 28
    },
    {
      "name": "accessorUVs",
      "type": "VEC2",
      "componentType": 5126,
      "count": 12534,
      "max": [
        0.9929220080375671,
        0.9929952621459961
      ],
      "min": [
        0.007117580156773329,
        0.0034009814262390137
      ],
      "normalized": false,
      "bufferView": 5,
      "byteOffset": 40
    },
    {
      "name": "accessorPositions",
      "type": "VEC3",
      "componentType": 5126,
      "count": 436,
      "max": [
        0.10192074626684189,
        0.5936986207962036,
        0.1529267281293869
      ],
      "min": [
        -0.101920947432518,
        0.5300428867340088,
        0.09017482399940491
      ],
      "normalized": false,
      "bufferView": 6,
      "byteOffset": 0
    },
    {
      "name": "accessorTangents",
      "type": "VEC4",
      "componentType": 5126,
      "count": 436,
      "max": [
        0.9991254806518555,
        0.9998031854629517,
        0.9990941286087036,
        1
      ],
      "min": [
        -0.9381080269813538,
        -0.9910504817962646,
        -0.9864502549171448,
        1
      ],
      "normalized": false,
      "bufferView": 6,
      "byteOffset": 12
    },
    {
      "name": "accessorNormals",
      "type": "VEC3",
      "componentType": 5126,
      "count": 436,
      "max": [
        0.989447832107544,
        0.9989492893218994,
        0.9983446002006531
      ],
      "min": [
        -0.9894489049911499,
        -0.9974570274353027,
        -0.941438615322113
      ],
      "normalized": false,
      "bufferView": 6,
      "byteOffset": 28
    },
    {
      "name": "accessorUVs",
      "type": "VEC2",
      "componentType": 5126,
      "count": 436,
      "max": [
        0.9790530204772949,
        0.6322129964828491
      ],
      "min": [
        0.03044150024652481,
        0.03334200382232666
      ],
      "normalized": false,
      "bufferView": 6,
      "byteOffset": 40
    }
  ],
  "bufferViews": [
    {
      "buffer": 0,
      "byteOffset": 0,
      "byteLength": 568332,
      "target": 34963
    },
    {
      "buffer": 0,
      "byteOffset": 568332,
      "byteLength": 502656,
      "byteStride": 48,
      "target": 34962
    },
    {
      "buffer": 0,
      "byteOffset": 1070988,
      "byteLength": 654624,
      "byteStride": 48,
      "target": 34962
    },
    {
      "buffer": 0,
      "byteOffset": 1725612,
      "byteLength": 224448,
      "byteStride": 48,
      "target": 34962
    },
    {
      "buffer": 0,
      "byteOffset": 1950060,
      "byteLength": 654528,
      "byteStride": 48,
      "target": 34962
    },
    {
      "buffer": 0,
      "byteOffset": 2604588,
      "byteLength": 601632,
      "byteStride": 48,
      "target": 34962
    },
    {
      "buffer": 0,
      "byteOffset": 3206220,
      "byteLength": 20928,
      "byteStride": 48,
      "target": 34962
    }
  ],
  "samplers": [
    {
      "magFilter": 9729,
      "minFilter": 9987,
      "wrapS": 10497,
      "wrapT": 10497
    }
  ],
  "textures": [
    {
      "sampler": 0,
      "extensions": {
        "KHR_texture_basisu": {
          "source": 2
        }
      }
    },
    {
      "sampler": 0,
      "extensions": {
        "KHR_texture_basisu": {
          "source": 0
        }
      }
    },
    {
      "sampler": 0,
      "extensions": {
        "KHR_texture_basisu": {
          "source": 1
        }
      }
    },
    {
      "sampler": 0,
      "extensions": {
        "KHR_texture_basisu": {
          "source": 5
        }
      }
    },
    {
      "sampler": 0,
      "extensions": {
        "KHR_texture_basisu": {
          "source": 3
        }
      }
    },
    {
      "sampler": 0,
      "extensions": {
        "KHR_texture_basisu": {
          "source": 4
        }
      }
    },
    {
      "sampler": 0,
      "extensions": {
        "KHR_texture_basisu": {
          "source": 8
        }
      }
    },
    {
      "sampler": 0,
      "extensions": {
        "KHR_texture_basisu": {
          "source": 6
        }
      }
    },
    {
      "sampler": 0,
      "extensions": {
        "KHR_texture_basisu": {
          "source": 7
        }
      }
    },
    {
      "sampler": 0,
      "extensions": {
        "KHR_texture_basisu": {
          "source": 11
        }
      }
    },
    {
      "sampler": 0,
      "extensions": {
        "KHR_texture_basisu": {
          "source": 9
        }
      }
    },
    {
      "sampler": 0,
      "extensions": {
        "KHR_texture_basisu": {
          "source": 10
        }
      }
    },
    {
      "sampler": 0,
      "extensions": {
        "KHR_texture_basisu": {
          "source": 14
        }
      }
    },
    {
      "sampler": 0,
      "extensions": {
        "KHR_texture_basisu": {
          "source": 12
        }
      }
    },
    {
      "sampler": 0,
      "extensions": {
        "KHR_texture_basisu": {
          "source": 13
        }
      }
    }
  ],
  "images": [
    {
      "mimeType": "image/ktx2",
      "uri": "FlightHelmet_Materials_RubberWoodMat_Normal.ktx2"
    },
    {
      "mimeType": "image/ktx2",
      "uri": "FlightHelmet_Materials_RubberWoodMat_OcclusionRoughMetal.ktx2"
    },
    {
      "mimeType": "image/ktx2",
      "uri": "FlightHelmet_Materials_RubberWoodMat_BaseColor.ktx2"
    },
    {
      "mimeType": "image/ktx2",
      "uri": "FlightHelmet_Materials_GlassPlasticMat_Normal.ktx2"
    },
    {
      "mimeType": "image/ktx2",
      "uri": "FlightHelmet_Materials_GlassPlasticMat_OcclusionRoughMetal.ktx2"
    },
    {
      "mimeType": "image/ktx2",
      "uri": "FlightHelmet_Materials_GlassPlasticMat_BaseColor.ktx2"
    },
    {
      "mimeType": "image/ktx2",
      "uri": "FlightHelmet_Materials_MetalPartsMat_Normal.ktx2"
    },
    {
      "mimeType": "image/ktx2",
      "uri": "FlightHelmet_Materials_MetalPartsMat_OcclusionRoughMetal.ktx2"
    },
    {
      "mimeType": "image/ktx2",
      "uri": "FlightHelmet_Materials_MetalPartsMat_BaseColor.ktx2"
    },
    {
      "mimeType": "image/ktx2",
      "uri": "FlightHelmet_Materials_LeatherPartsMat_Normal.ktx2"
    },
    {
      "mimeType": "image/ktx2",
      "uri": "FlightHelmet_Materials_LeatherPartsMat_OcclusionRoughMetal.ktx2"
    },
    {
      "mimeType": "image/ktx2",
      "uri": "FlightHelmet_Materials_LeatherPartsMat_BaseColor.ktx2"
    },
    {
      "mimeType": "image/ktx2",
      "uri": "FlightHelmet_Materials_LensesMat_Normal.ktx2"
    },
    {
      "mimeType": "image/ktx2",
      "uri": "FlightHelmet_Materials_LensesMat_OcclusionRoughMetal.ktx2"
    },
    {
      "mimeType": "image/ktx2",
      "uri": "FlightHelmet_Materials_LensesMat_BaseColor.ktx2"
    }
  ],
  "buffers": [
    {
      "uri": "FlightHelmet.bin",
      "byteLength": 3227148
    }
  ],
  "materials": [
    {
      "name": "HoseMat",
      "alphaMode": "OPAQUE",
      "doubleSided": true,
      "pbrMetallicRoughness": {
        "baseColorFactor": [
          1,
          1,
          1,
          1
        ],
        "roughnessFactor": 1,
        "metallicFactor": 1,
        "baseColorTexture": {
          "index": 0,
          "texCoord": 0
        },
        "metallicRoughnessTexture": {
          "index": 2,
          "texCoord": 0
        }
      },
      "emissiveFactor": [
        0,
        0,
        0
      ],
      "normalTexture": {
        "index": 1,
        "texCoord": 0
      },
      "occlusionTexture": {
        "index": 2,
        "texCoord": 0
      }
    },
    {
      "name": "RubberWoodMat",
      "alphaMode": "OPAQUE",
      "doubleSided": false,
      "pbrMetallicRoughness": {
        "baseColorFactor": [
          1,
          1,
          1,
          1
        ],
        "roughnessFactor": 1,
        "metallicFactor": 1,
        "baseColorTexture": {
          "index": 0,
          "texCoord": 0
        },
        "metallicRoughnessTexture": {
          "index": 2,
          "texCoord": 0
        }
      },
      "emissiveFactor": [
        0,
        0,
        0
      ],
      "normalTexture": {
        "index": 1,
        "texCoord": 0
      },
      "occlusionTexture": {
        "index": 2,
        "texCoord": 0
      }
    },
    {
      "name": "GlassPlasticMat",
      "alphaMode": "OPAQUE",
      "doubleSided": false,
      "pbrMetallicRoughness": {
        "baseColorFactor": [
          1,
          1,
          1,
          1
        ],
        "roughnessFactor": 1,
        "metallicFactor": 1,
        "baseColorTexture": {
          "index": 3,
          "texCoord": 0
        },
        "metallicRoughnessTexture": {
          "index": 5,
          "texCoord": 0
        }
      },
      "emissiveFactor": [
        0,
        0,
        0
      ],
      "normalTexture": {
        "index": 4,
        "texCoord": 0
      },
      "occlusionTexture": {
        "index": 5,
        "texCoord": 0
      }
    },
    {
      "name": "MetalPartsMat",
      "alphaMode": "OPAQUE",
      "doubleSided": false,
      "pbrMetallicRoughness": {
        "baseColorFactor": [
          1,
          1,
          1,
          1
        ],
        "roughnessFactor": 1,
        "metallicFactor": 1,
        "baseColorTexture": {
          "index": 6,
          "texCoord": 0
        },
        "metallicRoughnessTexture": {
          "index": 8,
          "texCoord": 0
        }
      },
      "emissiveFactor": [
        0,
        0,
        0
      ],
      "normalTexture": {
        "index": 7,
        "texCoord": 0
      },
      "occlusionTexture": {
        "index": 8,
        "texCoord": 0
      }
    },
    {
      "name": "LeatherPartsMat",
      "alphaMode": "OPAQUE",
      "doubleSided": false,
      "pbrMetallicRoughness": {
        "baseColorFactor": [
          1,
          1,
          1,
          1
        ],
        "roughnessFactor": 1,
        "metallicFactor": 1,
        "baseColorTexture": {
          "index": 9,
          "texCoord": 0
        },
        "metallicRoughnessTexture": {
          "index": 11,
          "texCoord": 0
        }
      },
      "emissiveFactor": [
        0,
        0,
        0
      ],
      "normalTexture": {
        "index": 10,
        "texCoord": 0
      },
      "occlusionTexture": {
        "index": 11,
        "texCoord": 0
      }
    },
    {
      "name": "LensesMat",
      "alphaMode": "BLEND",
      "doubleSided": false,
      "pbrMetallicRoughness": {
        "baseColorFactor": [
          1,
          1,
          1,
          1
        ],
        "roughnessFactor": 1,
        "metallicFactor": 1,
        "baseColorTexture": {
          "index": 12,
          "texCoord": 0
        },
        "metallicRoughnessTexture": {
          "index": 14,
          "texCoord": 0
        }
      },
      "emissiveFactor": [
        0,
        0,
        0
      ],
      "normalTexture": {
        "index": 13,
        "texCoord": 0
      },
      "occlusionTexture": {
        "index": 14,
        "texCoord": 0
      }
    }
  ],
  "meshes": [
    {
      "name": "Hose_low",
      "primitives": [
        {
          "attributes": {
            "POSITION": 6,
            "TANGENT": 7,
            "NORMAL": 8,
            "TEXCOORD_0": 9
          },
          "material": 0,
          "mode": 4,
          "indices": 0
        }
      ]
    },
    {
      "name": "RubberWood_low",
      "primitives": [
        {
          "attributes": {
            "POSITION": 10,
            "TANGENT": 11,
            "NORMAL": 12,
            "TEXCOORD_0": 13
          },
          "material": 1,
          "mode": 4,
          "indices": 1
        }
      ]
    },
    {
      "name": "GlassPlastic_low",
      "primitives": [
        {
          "attributes": {
            "POSITION": 14,
            "TANGENT": 15,
            "NORMAL": 16,
            "TEXCOORD_0": 17
          },
          "material": 2,
          "mode": 4,
          "indices": 2
        }
      ]
    },
    {
      "name": "MetalParts_low",
      "primitives": [
        {
          "attributes": {
            "POSITION": 18,
            "TANGENT": 19,
            "NORMAL": 20,
            "TEXCOORD_0": 21
          },
          "material": 3,
          "mode": 4,
          "indices": 3
        }
      ]
    },
    {
      "name": "LeatherParts_low",
      "primitives": [
        {
          "attributes": {
            "POSITION": 22,
            "TANGENT": 23,
            "NORMAL": 24,
            "TEXCOORD_0": 25
          },
          "material": 4,
          "mode": 4,
          "indices": 4
        }
      ]
    },
    {
      "name": "Lenses_low",
      "primitives": [
        {
          "attributes": {
            "POSITION": 26,
            "TANGENT": 27,
            "NORMAL": 28,
            "TEXCOORD_0": 29
          },
          "material": 5,
          "mode": 4,
          "indices": 5
        }
      ]
    }
  ],
  "nodes": [
    {
      "name": "Hose_low",
      "translation": [
        0,
        0,
        0
      ],
      "rotation": [
        0,
        0,
        0,
        1
      ],
      "scale": [
        1,
        1,
        1
      ],
      "mesh": 0
    },
    {
      "name": "RubberWood_low",
      "translation": [
        0,
        0,
        0
      ],
      "rotation": [
        0,
        0,
        0,
        1
      ],
      "scale": [
        1,
        1,
        1
      ],
      "mesh": 1
    },
    {
      "name": "GlassPlastic_low",
      "translation": [
        0,
        0,
        0
      ],
      "rotation": [
        0,
        0,
        0,
        1
      ],
      "scale": [
        1,
        1,
        1
      ],
      "mesh": 2
    },
    {
      "name": "MetalParts_low",
      "translation": [
        0,
        0,
        0
      ],
      "rotation": [
        0,
        0,
        0,
        1
      ],
      "scale": [
        1,
        1,
        1
      ],
      "mesh": 3
    },
    {
      "name": "LeatherParts_low",
      "translation": [
        0,
        0,
        0
      ],
      "rotation": [
        0,
        0,
        0,
        1
      ],
      "scale": [
        1,
        1,
        1
      ],
      "mesh": 4
    },
    {
      "name": "Lenses_low",
      "extras": {
        "currentUVSet": "map1"
      },
      "translation": [
        0,
        0,
        0
      ],
      "rotation": [
        0,
        0,
        0,
        1
      ],
      "scale": [
        1,
        1,
        1
      ],
      "mesh": 5
    },
    {
      "name": "Default light",
      "translation": [
        0,
        0,
        0
      ],
      "rotation": [
        0,
        0,
        0,
        1
      ],
      "scale": [
        1,
        1,
        1
      ]
    }
  ],
  "scenes": [
    {
      "nodes": [
        0,
        1,
        2,
        3,
        4,
        5,
        6
      ]
    }
  ],
  "extensionsRequired": [
    "KHR_texture_basisu"
  ],
  "extensionsUsed": [
    "KHR_texture_basisu"
  ]
}