{
    "asset" : {
        "version" : "2.0"
    },
    "scene" : 0,
    "scenes" : [
        {
            "name" : "Scene",
            "nodes" : [
                0,
                1,
                2
            ]
        }
    ],
    "nodes" : [
        {
            "mesh" : 0,
            "name" : "ToyCar",
            "scale" : [
                0.01,
                0.01,
                0.01
            ]
        },
        {
            "mesh" : 1,
            "name" : "Fabric",
            "scale" : [
                0.01,
                0.01,
                0.01
            ]
        },
        {
            "mesh" : 2,
            "name" : "Glass",
            "scale" : [
                0.01,
                0.01,
                0.01
            ]
        }
    ],
    "materials" : [
        {
            "doubleSided" : true,
            "name" : "ToyCar",
            "normalTexture" : {
                "index" : 0,
                "scale" : 0.1400168091058731,
                "texCoord" : 0
            },
            "emissiveTexture" : {
                "index" : 1,
                "texCoord" : 0
            },
            "emissiveFactor": [1, 1, 1],
            "pbrMetallicRoughness" : {
                "baseColorTexture" : {
                    "index" : 2,
                    "texCoord" : 0
                },
                "metallicRoughnessTexture" : {
                    "index" : 3,
                    "texCoord" : 0
                }
            },
            "extensions" : {
                "KHR_materials_specular" : {
                    "specularTexture" : {
                        "index": 4,
                        "texCoord": 0
                    },
                    "specularColorTexture" : {
                        "index": 4,
                        "texCoord": 0
                    }
                },
                "KHR_materials_ior" : {
                    "ior" : 6
                },
                "KHR_materials_clearcoat" : {
                    "clearcoatFactor": 1,
                    "clearcoatTexture" : {
                        "index": 5,
                        "texCoord": 0
                    }
                }                
            }
        },
        {
            "doubleSided" : true,
            "name" : "fabric",
            "normalTexture" : {
                "index" : 6,
                "scale" : 1.140016794204712,
                "texCoord" : 0
            },
            "pbrMetallicRoughness" : {
                "baseColorTexture" : {
                    "index" : 7,
                    "texCoord" : 0
                },
                "metallicFactor" : 0,
                "roughnessFactor" : 0.7960000038146973
            },
            "extensions" : {
                "KHR_materials_specular" : {
                    "specularColorFactor": [0.729, 0.071, 0.078],
                    "specularTexture" : {
                        "index": 8,
                        "texCoord": 0
                    },
                    "specularColorTexture" : {
                        "index": 8,
                        "texCoord": 0
                    }
                }
            }
        },
        {
            "doubleSided" : true,
            "name" : "glass",
            "pbrMetallicRoughness" : {
                "baseColorFactor" : [1, 1, 1, 1],
                "metallicFactor" : 0,
                "roughnessFactor" : 0
            },
            "extensions" : {
                "KHR_materials_transmission" : {
                    "transmissionFactor": 1
                }
            }
        }
    ],
    "textures" : [
        { "source" : 0 },
        { "source" : 1 },
        { "source" : 2 },
        { "source" : 3 },
        { "source" : 4 },
        { "source" : 5 },
        { "source" : 6 },
        { "source" : 7 },
        { "source" : 8 }
    ],
    "images" : [
        {
            "mimeType" : "image/png",
            "name" : "ToyCar_normal",
            "uri" : "ToyCar_normal.png"
        },
        {
            "mimeType" : "image/png",
            "name" : "ToyCar_emissive",
            "uri" : "ToyCar_emissive.png"
        },
        {
            "mimeType" : "image/png",
            "name" : "ToyCar_baseColor",
            "uri" : "ToyCar_baseColor.png"
        },
        {
            "mimeType" : "image/png",
            "name" : "ToyCar_roughness_metallic",
            "uri" : "ToyCar_roughness_metallic.png"
        },
        {
            "mimeType" : "image/png",
            "name" : "ToyCar_specular",
            "uri" : "ToyCar_specular.png"
        },
        {
            "mimeType" : "image/png",
            "name" : "ToyCar_clearcoat",
            "uri" : "ToyCar_clearcoat.png"
        },
        {
            "mimeType" : "image/png",
            "name" : "Fabric_normal",
            "uri" : "Fabric_normal.png"
        },
        {
            "mimeType" : "image/png",
            "name" : "Fabric_baseColor",
            "uri" : "Fabric_baseColor.png"
        },
        {
            "mimeType" : "image/png",
            "name" : "Fabric_specular",
            "uri" : "Fabric_specular.png"
        }
    ],
    "meshes" : [
        {
            "name" : "ToyCarMesh",
            "primitives" : [
                {
                    "attributes" : {
                        "POSITION" : 0,
                        "NORMAL" : 1,
                        "TEXCOORD_0" : 2
                    },
                    "indices" : 3,
                    "material" : 0
                }
            ]
        },
        {
            "name" : "FabricMesh",
            "primitives" : [
                {
                    "attributes" : {
                        "POSITION" : 4,
                        "NORMAL" : 5,
                        "TEXCOORD_0" : 6
                    },
                    "indices" : 7,
                    "material" : 1
                }
            ]
        },
        {
            "name" : "GlassMesh",
            "primitives" : [
                {
                    "attributes" : {
                        "POSITION" : 8,
                        "NORMAL" : 9,
                        "TEXCOORD_0" : 10
                    },
                    "indices" : 11,
                    "material" : 2
                }
            ]
        }
    ],
    "accessors" : [
        {
            "bufferView" : 0,
            "componentType" : 5126,
            "count" : 67470,
            "max" : [
                9.353763580322266,
                12.61662483215332,
                18.974475860595703
            ],
            "min" : [
                -9.353764533996582,
                0.9924240112304688,
                -19.404951095581055
            ],
            "type" : "VEC3"
        },
        {
            "bufferView" : 1,
            "componentType" : 5126,
            "count" : 67470,
            "type" : "VEC3"
        },
        {
            "bufferView" : 2,
            "componentType" : 5126,
            "count" : 67470,
            "type" : "VEC2"
        },
        {
            "bufferView" : 3,
            "componentType" : 5125,
            "count" : 266511,
            "type" : "SCALAR"
        },
        {
            "bufferView" : 4,
            "componentType" : 5126,
            "count" : 8962,
            "max" : [
                38.44782638549805,
                1.012609601020813,
                36.98114776611328
            ],
            "min" : [
                -34.99509048461914,
                -16.206275939941406,
                -36.98115158081055
            ],
            "type" : "VEC3"
        },
        {
            "bufferView" : 5,
            "componentType" : 5126,
            "count" : 8962,
            "type" : "VEC3"
        },
        {
            "bufferView" : 6,
            "componentType" : 5126,
            "count" : 8962,
            "type" : "VEC2"
        },
        {
            "bufferView" : 7,
            "componentType" : 5123,
            "count" : 52815,
            "type" : "SCALAR"
        },
        {
            "bufferView" : 8,
            "componentType" : 5126,
            "count" : 1519,
            "max" : [
                5.7411041259765625,
                12.069185256958008,
                9.112582206726074
            ],
            "min" : [
                -5.741105079650879,
                8.959808349609375,
                -9.318028450012207
            ],
            "type" : "VEC3"
        },
        {
            "bufferView" : 9,
            "componentType" : 5126,
            "count" : 1519,
            "type" : "VEC3"
        },
        {
            "bufferView" : 10,
            "componentType" : 5126,
            "count" : 1519,
            "type" : "VEC2"
        },
        {
            "bufferView" : 11,
            "componentType" : 5123,
            "count" : 7482,
            "type" : "SCALAR"
        }
    ],
    "bufferViews" : [
        {
            "buffer" : 0,
            "byteLength" : 809640,
            "byteOffset" : 0
        },
        {
            "buffer" : 0,
            "byteLength" : 809640,
            "byteOffset" : 809640
        },
        {
            "buffer" : 0,
            "byteLength" : 539760,
            "byteOffset" : 1619280
        },
        {
            "buffer" : 0,
            "byteLength" : 1066044,
            "byteOffset" : 2159040
        },
        {
            "buffer" : 0,
            "byteLength" : 107544,
            "byteOffset" : 3225084
        },
        {
            "buffer" : 0,
            "byteLength" : 107544,
            "byteOffset" : 3332628
        },
        {
            "buffer" : 0,
            "byteLength" : 71696,
            "byteOffset" : 3440172
        },
        {
            "buffer" : 0,
            "byteLength" : 105630,
            "byteOffset" : 3511868
        },
        {
            "buffer" : 0,
            "byteLength" : 18228,
            "byteOffset" : 3617500
        },
        {
            "buffer" : 0,
            "byteLength" : 18228,
            "byteOffset" : 3635728
        },
        {
            "buffer" : 0,
            "byteLength" : 12152,
            "byteOffset" : 3653956
        },
        {
            "buffer" : 0,
            "byteLength" : 14964,
            "byteOffset" : 3666108
        }
    ],
    "buffers" : [
        {
            "byteLength" : 3681072,
            "uri" : "ToyCarSpecular.bin"
        }
    ],
    "extensionsUsed": [
        "KHR_materials_specular",
        "KHR_materials_ior",
        "KHR_materials_transmission",
        "KHR_materials_clearcoat"
    ]
}
