{
    "accessors" : [
        {
            "bufferView" : 0, 
            "componentType" : 5123, 
            "count" : 15720, 
            "max" : [
                2769
            ], 
            "min" : [
                0
            ], 
            "type" : "SCALAR"
        }, 
        {
            "bufferView" : 1, 
            "componentType" : 5126, 
            "count" : 2770, 
            "max" : [
                1.4138822555541992, 
                1.0467524528503418, 
                0.08050008118152618
            ], 
            "min" : [
                -1.4246257543563843, 
                -1.2000000476837158, 
                -0.009999947622418404
            ], 
            "type" : "VEC3"
        }, 
        {
            "bufferView" : 2, 
            "componentType" : 5126, 
            "count" : 2770, 
            "max" : [
                0.9247413277626038, 
                0.9247413277626038, 
                1.0
            ], 
            "min" : [
                -0.9247413277626038, 
                -0.9247413277626038, 
                -1.0
            ], 
            "type" : "VEC3"
        }, 
        {
            "bufferView" : 3, 
            "componentType" : 5126, 
            "count" : 2770, 
            "max" : [
                1.0, 
                0.8718903064727783, 
                0.9247627258300781, 
                1.0
            ], 
            "min" : [
                -1.0, 
                -0.8827678561210632, 
                -0.9247735142707825, 
                -1.0
            ], 
            "type" : "VEC4"
        }, 
        {
            "bufferView" : 4, 
            "componentType" : 5126, 
            "count" : 2770, 
            "max" : [
                0.9821357727050781, 
                0.9877346605062485
            ], 
            "min" : [
                0.1472877860069275, 
                0.03816509246826172
            ], 
            "type" : "VEC2"
        }
    ], 
    "asset" : {
        "copyright" : "Copyright 2017-2018 Analytical Graphics, Inc., CC-BY 4.0 https://creativecommons.org/licenses/by/4.0/ - Mesh and textures by Ed Mackey.", 
        "generator" : "Khronos Blender glTF 2.0 exporter", 
        "version" : "2.0"
    }, 
    "bufferViews" : [
        {
            "buffer" : 0, 
            "byteLength" : 31440, 
            "byteOffset" : 0, 
            "target" : 34963
        }, 
        {
            "buffer" : 0, 
            "byteLength" : 33240, 
            "byteOffset" : 31440, 
            "target" : 34962
        }, 
        {
            "buffer" : 0, 
            "byteLength" : 33240, 
            "byteOffset" : 64680, 
            "target" : 34962
        }, 
        {
            "buffer" : 0, 
            "byteLength" : 44320, 
            "byteOffset" : 97920, 
            "target" : 34962
        }, 
        {
            "buffer" : 0, 
            "byteLength" : 22160, 
            "byteOffset" : 142240, 
            "target" : 34962
        }
    ], 
    "buffers" : [
        {
            "byteLength" : 164400, 
            "uri" : "NormalTangentMirrorTest.bin"
        }
    ], 
    "images" : [
        {
            "uri" : "NormalTangentMirrorTest_OcclusionRoughnessMetallic.png"
        }, 
        {
            "uri" : "NormalTangentTest_Normal.png"
        }, 
        {
            "uri" : "NormalTangentMirrorTest_BaseColor.png"
        }
    ], 
    "materials" : [
        {
            "doubleSided" : true, 
            "name" : "Material", 
            "normalTexture" : {
                "index" : 1
            }, 
            "occlusionTexture" : {
                "index" : 0
            }, 
            "pbrMetallicRoughness" : {
                "baseColorTexture" : {
                    "index" : 2
                }, 
                "metallicRoughnessTexture" : {
                    "index" : 0
                }
            }
        }
    ], 
    "meshes" : [
        {
            "name" : "NormalTangentTest_low", 
            "primitives" : [
                {
                    "attributes" : {
                        "NORMAL" : 2, 
                        "POSITION" : 1, 
                        "TANGENT" : 3, 
                        "TEXCOORD_0" : 4
                    }, 
                    "indices" : 0, 
                    "material" : 0
                }
            ]
        }
    ], 
    "nodes" : [
        {
            "mesh" : 0, 
            "name" : "NormalTangentTest_low"
        }
    ], 
    "samplers" : [
        {}
    ], 
    "scene" : 0, 
    "scenes" : [
        {
            "name" : "Scene", 
            "nodes" : [
                0
            ]
        }
    ], 
    "textures" : [
        {
            "sampler" : 0, 
            "source" : 0
        }, 
        {
            "sampler" : 0, 
            "source" : 1
        }, 
        {
            "sampler" : 0, 
            "source" : 2
        }
    ]
}
