{
  "accessors": {
    "accessor_122": {
      "bufferView": "bufferView_1",
      "byteOffset": 0,
      "byteStride": 0,
      "componentType": 5123,
      "count": 750,
      "max": [
        374
      ],
      "min": [
        0
      ],
      "type": "SCALAR"
    },
    "accessor_124": {
      "bufferView": "bufferView_0",
      "byteOffset": 0,
      "byteStride": 0,
      "componentType": 5126,
      "count": 220,
      "max": [
        7.274206638336182,
        28.628503799438477,
        31.652812957763672
      ],
      "min": [
        -6.923262119293213,
        -0.16682758927345276,
        -32.241695404052734
      ],
      "type": "VEC3"
    },
    "accessor_126": {
      "bufferView": "bufferView_0",
      "byteOffset": 2640,
      "byteStride": 0,
      "componentType": 5126,
      "count": 220,
      "max": [
        0.9987175464630127,
        0.9676957726478577,
        0.8884976506233215
      ],
      "min": [
        -0.9995549917221069,
        -0.996095597743988,
        -0.999925434589386
      ],
      "type": "VEC3"
    },
    "accessor_128": {
      "bufferView": "bufferView_0",
      "byteOffset": 5280,
      "byteStride": 0,
      "componentType": 5126,
      "count": 220,
      "max": [
        0.9743278622627258,
        0.9904515743255615
      ],
      "min": [
        0.037679821252822876,
        0.013003170490264893
      ],
      "type": "VEC2"
    },
    "accessor_26": {
      "bufferView": "bufferView_1",
      "byteOffset": 1500,
      "byteStride": 0,
      "componentType": 5123,
      "count": 11592,
      "max": [
        1100
      ],
      "min": [
        0
      ],
      "type": "SCALAR"
    },
    "accessor_28": {
      "bufferView": "bufferView_0",
      "byteOffset": 7040,
      "byteStride": 0,
      "componentType": 5126,
      "count": 2188,
      "max": [
        7.384162902832031,
        28.662832260131836,
        31.773834228515625
      ],
      "min": [
        -6.9061970710754395,
        -0.08784522861242294,
        -32.53729248046875
      ],
      "type": "VEC3"
    },
    "accessor_30": {
      "bufferView": "bufferView_0",
      "byteOffset": 33296,
      "byteStride": 0,
      "componentType": 5126,
      "count": 2188,
      "max": [
        0.9997695088386536,
        0.9995779395103455,
        0.9987249970436096
      ],
      "min": [
        -0.9997695088386536,
        -0.9989677667617798,
        -0.999925434589386
      ],
      "type": "VEC3"
    },
    "accessor_32": {
      "bufferView": "bufferView_0",
      "byteOffset": 59552,
      "byteStride": 0,
      "componentType": 5126,
      "count": 2188,
      "max": [
        0.9743278622627258,
        0.9925232529640198
      ],
      "min": [
        0.031940966844558716,
        0.010744333267211914
      ],
      "type": "VEC2"
    },
    "accessor_58": {
      "bufferView": "bufferView_1",
      "byteOffset": 24684,
      "byteStride": 0,
      "componentType": 5123,
      "count": 7530,
      "max": [
        3759
      ],
      "min": [
        0
      ],
      "type": "SCALAR"
    },
    "accessor_60": {
      "bufferView": "bufferView_0",
      "byteOffset": 77056,
      "byteStride": 0,
      "componentType": 5126,
      "count": 1508,
      "max": [
        7.384162902832031,
        28.662841796875,
        31.773834228515625
      ],
      "min": [
        -6.9061970710754395,
        -0.08784522861242294,
        -32.53729248046875
      ],
      "type": "VEC3"
    },
    "accessor_62": {
      "bufferView": "bufferView_0",
      "byteOffset": 95152,
      "byteStride": 0,
      "componentType": 5126,
      "count": 1508,
      "max": [
        0.9997485876083374,
        0.9995778203010559,
        0.9987248778343201
      ],
      "min": [
        -0.9997484683990479,
        -0.9989678263664246,
        -0.999925434589386
      ],
      "type": "VEC3"
    },
    "accessor_64": {
      "bufferView": "bufferView_0",
      "byteOffset": 113248,
      "byteStride": 0,
      "componentType": 5126,
      "count": 1508,
      "max": [
        0.9743278622627258,
        0.9919165372848511
      ],
      "min": [
        0.031940966844558716,
        0.010744333267211914
      ],
      "type": "VEC2"
    },
    "accessor_90": {
      "bufferView": "bufferView_1",
      "byteOffset": 39744,
      "byteStride": 0,
      "componentType": 5123,
      "count": 3012,
      "max": [
        1504
      ],
      "min": [
        0
      ],
      "type": "SCALAR"
    },
    "accessor_92": {
      "bufferView": "bufferView_0",
      "byteOffset": 125312,
      "byteStride": 0,
      "componentType": 5126,
      "count": 714,
      "max": [
        7.412760257720947,
        28.61256980895996,
        31.828094482421875
      ],
      "min": [
        -6.844715118408203,
        -0.1596912443637848,
        -32.53729248046875
      ],
      "type": "VEC3"
    },
    "accessor_94": {
      "bufferView": "bufferView_0",
      "byteOffset": 133880,
      "byteStride": 0,
      "componentType": 5126,
      "count": 714,
      "max": [
        0.999998927116394,
        0.9980037212371826,
        0.9931982159614563
      ],
      "min": [
        -0.999998927116394,
        -0.9989326596260071,
        -0.999925434589386
      ],
      "type": "VEC3"
    },
    "accessor_96": {
      "bufferView": "bufferView_0",
      "byteOffset": 142448,
      "byteStride": 0,
      "componentType": 5126,
      "count": 714,
      "max": [
        0.9743278622627258,
        0.9904515743255615
      ],
      "min": [
        0.031940966844558716,
        0.013003170490264893
      ],
      "type": "VEC2"
    }
  },
  "animations": {},
  "asset": {
    "generator": "collada2gltf@f8f6279915175e9d2cc525531660ac439c114fac",
    "premultipliedAlpha": true,
    "profile": {
      "api": "WebGL",
      "version": "1.0.2"
    },
    "version": "1.0.1"
  },
  "bufferViews": {
    "bufferView_0": {
      "buffer": "buffer_0",
      "byteLength": 148160,
      "byteOffset": 0,
      "target": 34962
    },
    "bufferView_1": {
      "buffer": "buffer_0",
      "byteLength": 45768,
      "byteOffset": 148160,
      "target": 34963
    }
  },
  "buffers": {
    "buffer_0": {
      "type": "arraybuffer",
      "byteLength": 193928,
      "uri": "data:application/octet-stream;base64,"
    }
  },
  "images": {
    "m0mtl_barramundi_fish-ambient-image": {
      "name": "m0mtl_barramundi_fish-ambient-image",
      "uri": "data:image/jpeg;base64,"
    },
    "m0mtl_barramundi_fish-diffuse-image": {
      "name": "m0mtl_barramundi_fish-diffuse-image",
      "uri": "data:image/jpeg;base64,"
    },
    "m0mtl_barramundi_fish-specular-image": {
      "name": "m0mtl_barramundi_fish-specular-image",
      "uri": "data:image/jpeg;base64,"
    }
  },
  "materials": {
    "m0mtl_barramundi_fish-fx": {
      "name": "m0mtl_barramundi_fish",
      "technique": "technique0",
      "values": {
        "ambient": "texture_m0mtl_barramundi_fish-ambient-image",
        "diffuse": "texture_m0mtl_barramundi_fish-diffuse-image",
        "emission": [
          0,
          0,
          0,
          1
        ],
        "shininess": 20,
        "specular": "texture_m0mtl_barramundi_fish-specular-image"
      }
    }
  },
  "meshes": {
    "rootNode_mesh_0": {
      "name": "rootNode_mesh",
      "primitives": [
        {
          "attributes": {
            "NORMAL": "accessor_126",
            "POSITION": "accessor_124",
            "TEXCOORD_0": "accessor_128"
          },
          "indices": "accessor_122",
          "material": "m0mtl_barramundi_fish-fx",
          "mode": 4
        },
        {
          "attributes": {
            "NORMAL": "accessor_94",
            "POSITION": "accessor_92",
            "TEXCOORD_0": "accessor_96"
          },
          "indices": "accessor_90",
          "material": "m0mtl_barramundi_fish-fx",
          "mode": 4
        },
        {
          "attributes": {
            "NORMAL": "accessor_62",
            "POSITION": "accessor_60",
            "TEXCOORD_0": "accessor_64"
          },
          "indices": "accessor_58",
          "material": "m0mtl_barramundi_fish-fx",
          "mode": 4
        },
        {
          "attributes": {
            "NORMAL": "accessor_30",
            "POSITION": "accessor_28",
            "TEXCOORD_0": "accessor_32"
          },
          "indices": "accessor_26",
          "material": "m0mtl_barramundi_fish-fx",
          "mode": 4
        }
      ]
    }
  },
  "nodes": {
    "rootNode": {
      "children": [],
      "meshes": [
        "rootNode_mesh_0"
      ],
      "matrix": [
        1,
        0,
        0,
        0,
        0,
        1,
        0,
        0,
        0,
        0,
        1,
        0,
        0,
        0,
        0,
        1
      ]
    }
  },
  "programs": {
    "program_0": {
      "attributes": [
        "a_normal",
        "a_position",
        "a_texcoord0"
      ],
      "fragmentShader": "BarramundiFish0FS",
      "vertexShader": "BarramundiFish0VS"
    }
  },
  "samplers": {
    "sampler_0": {
      "magFilter": 9729,
      "minFilter": 9729,
      "wrapS": 10497,
      "wrapT": 10497
    }
  },
  "scene": "defaultScene",
  "scenes": {
    "defaultScene": {
      "nodes": [
        "rootNode"
      ]
    }
  },
  "shaders": {
    "BarramundiFish0FS": {
      "type": 35632,
      "uri": "data:text/plain;base64,"
    },
    "BarramundiFish0VS": {
      "type": 35633,
      "uri": "data:text/plain;base64,"
    }
  },
  "skins": {},
  "techniques": {
    "technique0": {
      "attributes": {
        "a_normal": "normal",
        "a_position": "position",
        "a_texcoord0": "texcoord0"
      },
      "parameters": {
        "ambient": {
          "type": 35678
        },
        "diffuse": {
          "type": 35678
        },
        "emission": {
          "type": 35666
        },
        "modelViewMatrix": {
          "semantic": "MODELVIEW",
          "type": 35676
        },
        "normal": {
          "semantic": "NORMAL",
          "type": 35665
        },
        "normalMatrix": {
          "semantic": "MODELVIEWINVERSETRANSPOSE",
          "type": 35675
        },
        "position": {
          "semantic": "POSITION",
          "type": 35665
        },
        "projectionMatrix": {
          "semantic": "PROJECTION",
          "type": 35676
        },
        "shininess": {
          "type": 5126
        },
        "specular": {
          "type": 35678
        },
        "texcoord0": {
          "semantic": "TEXCOORD_0",
          "type": 35664
        }
      },
      "program": "program_0",
      "states": {
        "enable": [
          2929,
          2884
        ],
        "disable": []
      },
      "uniforms": {
        "u_ambient": "ambient",
        "u_diffuse": "diffuse",
        "u_emission": "emission",
        "u_modelViewMatrix": "modelViewMatrix",
        "u_normalMatrix": "normalMatrix",
        "u_projectionMatrix": "projectionMatrix",
        "u_shininess": "shininess",
        "u_specular": "specular"
      }
    }
  },
  "textures": {
    "texture_m0mtl_barramundi_fish-ambient-image": {
      "format": 6408,
      "internalFormat": 6408,
      "sampler": "sampler_0",
      "source": "m0mtl_barramundi_fish-ambient-image",
      "target": 3553,
      "type": 5121
    },
    "texture_m0mtl_barramundi_fish-diffuse-image": {
      "format": 6408,
      "internalFormat": 6408,
      "sampler": "sampler_0",
      "source": "m0mtl_barramundi_fish-diffuse-image",
      "target": 3553,
      "type": 5121
    },
    "texture_m0mtl_barramundi_fish-specular-image": {
      "format": 6408,
      "internalFormat": 6408,
      "sampler": "sampler_0",
      "source": "m0mtl_barramundi_fish-specular-image",
      "target": 3553,
      "type": 5121
    }
  },
  "extensionsUsed": [],
  "cameras": {}
}
