{
  "accessors": [
    {
      "bufferView": 0,
      "componentType": 5125,
      "count": 69990,
      "type": "SCALAR"
    },
    {
      "bufferView": 1,
      "componentType": 5126,
      "count": 12433,
      "max": [
        0.365766525268555,
        0.676166415214539,
        0.801013827323914
      ],
      "min": [
        -0.353101491928101,
        -0.673676729202271,
        -0.999136030673981
      ],
      "type": "VEC3"
    },
    {
      "bufferView": 2,
      "componentType": 5126,
      "count": 12433,
      "type": "VEC3"
    },
    {
      "bufferView": 3,
      "componentType": 5126,
      "count": 12433,
      "type": "VEC2"
    },
    {
      "bufferView": 4,
      "componentType": 5125,
      "count": 67863,
      "type": "SCALAR"
    },
    {
      "bufferView": 5,
      "componentType": 5126,
      "count": 11903,
      "max": [
        0.381154417991638,
        -0.266851127147675,
        0.770324289798737
      ],
      "min": [
        -0.381154417991638,
        -0.694934666156769,
        0.193600922822952
      ],
      "type": "VEC3"
    },
    {
      "bufferView": 6,
      "componentType": 5126,
      "count": 11903,
      "type": "VEC3"
    },
    {
      "bufferView": 7,
      "componentType": 5126,
      "count": 11903,
      "type": "VEC2"
    },
    {
      "bufferView": 8,
      "componentType": 5125,
      "count": 30822,
      "type": "SCALAR"
    },
    {
      "bufferView": 9,
      "componentType": 5126,
      "count": 5453,
      "max": [
        0.341727137565613,
        0.670751094818115,
        0.802690804004669
      ],
      "min": [
        -0.329240024089813,
        -0.671581149101257,
        -0.984573900699615
      ],
      "type": "VEC3"
    },
    {
      "bufferView": 10,
      "componentType": 5126,
      "count": 5453,
      "type": "VEC3"
    },
    {
      "bufferView": 11,
      "componentType": 5126,
      "count": 5453,
      "type": "VEC2"
    },
    {
      "bufferView": 12,
      "componentType": 5125,
      "count": 672,
      "type": "SCALAR"
    },
    {
      "bufferView": 13,
      "componentType": 5126,
      "count": 166,
      "max": [
        0.342250823974609,
        0.266492366790771,
        0.975320875644684
      ],
      "min": [
        -0.321709215641022,
        -0.674221813678741,
        -0.978961288928986
      ],
      "type": "VEC3"
    },
    {
      "bufferView": 14,
      "componentType": 5126,
      "count": 166,
      "type": "VEC3"
    },
    {
      "bufferView": 15,
      "componentType": 5126,
      "count": 166,
      "type": "VEC2"
    },
    {
      "bufferView": 16,
      "componentType": 5125,
      "count": 2808,
      "type": "SCALAR"
    },
    {
      "bufferView": 17,
      "componentType": 5126,
      "count": 536,
      "max": [
        0.275662243366241,
        0.250751376152039,
        0.882233738899231
      ],
      "min": [
        -0.242376938462257,
        -0.619644403457642,
        -0.939801573753357
      ],
      "type": "VEC3"
    },
    {
      "bufferView": 18,
      "componentType": 5126,
      "count": 536,
      "type": "VEC3"
    },
    {
      "bufferView": 19,
      "componentType": 5126,
      "count": 536,
      "type": "VEC2"
    },
    {
      "bufferView": 20,
      "componentType": 5125,
      "count": 16182,
      "type": "SCALAR"
    },
    {
      "bufferView": 21,
      "componentType": 5126,
      "count": 2888,
      "max": [
        0.358172535896301,
        0.220795631408691,
        0.996984302997589
      ],
      "min": [
        -0.338800966739655,
        -0.781611025333405,
        -1.00381469726563
      ],
      "type": "VEC3"
    },
    {
      "bufferView": 22,
      "componentType": 5126,
      "count": 2888,
      "type": "VEC3"
    },
    {
      "bufferView": 23,
      "componentType": 5126,
      "count": 2888,
      "type": "VEC2"
    },
    {
      "bufferView": 24,
      "componentType": 5125,
      "count": 12630,
      "type": "SCALAR"
    },
    {
      "bufferView": 25,
      "componentType": 5126,
      "count": 3024,
      "max": [
        0.356944859027863,
        0.663004159927368,
        0.999027669429779
      ],
      "min": [
        -0.353101491928101,
        -0.782506823539734,
        -0.999590218067169
      ],
      "type": "VEC3"
    },
    {
      "bufferView": 26,
      "componentType": 5126,
      "count": 3024,
      "type": "VEC3"
    },
    {
      "bufferView": 27,
      "componentType": 5126,
      "count": 3024,
      "type": "VEC2"
    },
    {
      "bufferView": 28,
      "componentType": 5125,
      "count": 31680,
      "type": "SCALAR"
    },
    {
      "bufferView": 29,
      "componentType": 5126,
      "count": 5973,
      "max": [
        -0.00394323468208313,
        -0.253803074359894,
        0.672051668167114
      ],
      "min": [
        -0.088775098323822,
        -0.312971860170364,
        0.495393693447113
      ],
      "type": "VEC3"
    },
    {
      "bufferView": 30,
      "componentType": 5126,
      "count": 5973,
      "type": "VEC3"
    },
    {
      "bufferView": 31,
      "componentType": 5126,
      "count": 5973,
      "type": "VEC2"
    }
  ],
  "asset": {
    "generator": "Substance Painter 2019.2.3",
    "version": "2.0"
  },
  "extensionsUsed": [
  "KHR_materials_sheen"
  ],
  "bufferViews": [
    {
      "buffer": 0,
      "byteLength": 279960,
      "target": 34963
    },
    {
      "buffer": 0,
      "byteLength": 149196,
      "byteOffset": 279960,
      "target": 34962
    },
    {
      "buffer": 0,
      "byteLength": 149196,
      "byteOffset": 429156,
      "target": 34962
    },
    {
      "buffer": 0,
      "byteLength": 99464,
      "byteOffset": 578352,
      "target": 34962
    },
    {
      "buffer": 0,
      "byteLength": 271452,
      "byteOffset": 677816,
      "target": 34963
    },
    {
      "buffer": 0,
      "byteLength": 142836,
      "byteOffset": 949268,
      "target": 34962
    },
    {
      "buffer": 0,
      "byteLength": 142836,
      "byteOffset": 1092104,
      "target": 34962
    },
    {
      "buffer": 0,
      "byteLength": 95224,
      "byteOffset": 1234940,
      "target": 34962
    },
    {
      "buffer": 0,
      "byteLength": 123288,
      "byteOffset": 1330164,
      "target": 34963
    },
    {
      "buffer": 0,
      "byteLength": 65436,
      "byteOffset": 1453452,
      "target": 34962
    },
    {
      "buffer": 0,
      "byteLength": 65436,
      "byteOffset": 1518888,
      "target": 34962
    },
    {
      "buffer": 0,
      "byteLength": 43624,
      "byteOffset": 1584324,
      "target": 34962
    },
    {
      "buffer": 0,
      "byteLength": 2688,
      "byteOffset": 1627948,
      "target": 34963
    },
    {
      "buffer": 0,
      "byteLength": 1992,
      "byteOffset": 1630636,
      "target": 34962
    },
    {
      "buffer": 0,
      "byteLength": 1992,
      "byteOffset": 1632628,
      "target": 34962
    },
    {
      "buffer": 0,
      "byteLength": 1328,
      "byteOffset": 1634620,
      "target": 34962
    },
    {
      "buffer": 0,
      "byteLength": 11232,
      "byteOffset": 1635948,
      "target": 34963
    },
    {
      "buffer": 0,
      "byteLength": 6432,
      "byteOffset": 1647180,
      "target": 34962
    },
    {
      "buffer": 0,
      "byteLength": 6432,
      "byteOffset": 1653612,
      "target": 34962
    },
    {
      "buffer": 0,
      "byteLength": 4288,
      "byteOffset": 1660044,
      "target": 34962
    },
    {
      "buffer": 0,
      "byteLength": 64728,
      "byteOffset": 1664332,
      "target": 34963
    },
    {
      "buffer": 0,
      "byteLength": 34656,
      "byteOffset": 1729060,
      "target": 34962
    },
    {
      "buffer": 0,
      "byteLength": 34656,
      "byteOffset": 1763716,
      "target": 34962
    },
    {
      "buffer": 0,
      "byteLength": 23104,
      "byteOffset": 1798372,
      "target": 34962
    },
    {
      "buffer": 0,
      "byteLength": 50520,
      "byteOffset": 1821476,
      "target": 34963
    },
    {
      "buffer": 0,
      "byteLength": 36288,
      "byteOffset": 1871996,
      "target": 34962
    },
    {
      "buffer": 0,
      "byteLength": 36288,
      "byteOffset": 1908284,
      "target": 34962
    },
    {
      "buffer": 0,
      "byteLength": 24192,
      "byteOffset": 1944572,
      "target": 34962
    },
    {
      "buffer": 0,
      "byteLength": 126720,
      "byteOffset": 1968764,
      "target": 34963
    },
    {
      "buffer": 0,
      "byteLength": 71676,
      "byteOffset": 2095484,
      "target": 34962
    },
    {
      "buffer": 0,
      "byteLength": 71676,
      "byteOffset": 2167160,
      "target": 34962
    },
    {
      "buffer": 0,
      "byteLength": 47784,
      "byteOffset": 2238836,
      "target": 34962
    }
  ],
  "buffers": [
    {
      "byteLength": 2286620,
      "uri": "HighHeel.bin"
    }
  ],
  "images": [
    {
      "uri": "Botton_baseColor.png"
    },
    {
      "uri": "Botton_occlusionRoughnessMetallic.png"
    },
    {
      "uri": "Botton_normal.png"
    },
    {
      "uri": "Botton_emissive.png"
    },
    {
      "uri": "Inner_baseColor.png"
    },
    {
      "uri": "Inner_occlusionRoughnessMetallic.png"
    },
    {
      "uri": "Inner_normal.png"
    },
    {
      "uri": "Inner_emissive.png"
    },
    {
      "uri": "Metal_baseColor.png"
    },
    {
      "uri": "Metal_occlusionRoughnessMetallic.png"
    },
    {
      "uri": "Metal_normal.png"
    },
    {
      "uri": "Metal_emissive.png"
    },
    {
      "uri": "Ornament_baseColor.png"
    },
    {
      "uri": "Ornament_occlusionRoughnessMetallic.png"
    },
    {
      "uri": "Ornament_normal.png"
    },
    {
      "uri": "Ornament_emissive.png"
    },
    {
      "uri": "Outer_baseColor.png"
    },
    {
      "uri": "Outer_occlusionRoughnessMetallic.png"
    },
    {
      "uri": "Outer_normal.png"
    },
    {
      "uri": "Outer_emissive.png"
    },
    {
      "uri": "Pad_baseColor.png"
    },
    {
      "uri": "Pad_occlusionRoughnessMetallic.png"
    },
    {
      "uri": "Pad_normal.png"
    },
    {
      "uri": "Pad_emissive.png"
    },
    {
      "uri": "Pearl_baseColor.png"
    },
    {
      "uri": "Pearl_occlusionRoughnessMetallic.png"
    },
    {
      "uri": "Pearl_normal.png"
    },
    {
      "uri": "Pearl_emissive.png"
    },
    {
      "uri": "Sole_baseColor.png"
    },
    {
      "uri": "Sole_occlusionRoughnessMetallic.png"
    },
    {
      "uri": "Sole_normal.png"
    },
    {
      "uri": "Sole_emissive.png"
    }
  ],
  "materials": [
    {
      "alphaMode": "BLEND",
      "emissiveFactor": [
        1.0,
        1.0,
        1.0
      ],
      "emissiveTexture": {
        "index": 3
      },
      "name": "Botton",
      "normalTexture": {
        "index": 2
      },
      "occlusionTexture": {
        "index": 1
      },
      "pbrMetallicRoughness": {
        "baseColorTexture": {
          "index": 0
        },
        "metallicRoughnessTexture": {
          "index": 1
        }
      }
    },
    {
      "alphaMode": "BLEND",
      "emissiveFactor": [
        1.0,
        1.0,
        1.0
      ],
      "emissiveTexture": {
        "index": 7
      },
      "name": "Inner",
      "normalTexture": {
        "index": 6
      },
      "occlusionTexture": {
        "index": 5
      },
      "pbrMetallicRoughness": {
        "baseColorTexture": {
          "index": 4
        },
        "metallicRoughnessTexture": {
          "index": 5
        }
      }
    },
    {
      "alphaMode": "BLEND",
      "emissiveFactor": [
        1.0,
        1.0,
        1.0
      ],
      "emissiveTexture": {
        "index": 11
      },
      "name": "Metal",
      "normalTexture": {
        "index": 10
      },
      "occlusionTexture": {
        "index": 9
      },
      "pbrMetallicRoughness": {
        "baseColorTexture": {
          "index": 8
        },
        "metallicRoughnessTexture": {
          "index": 9
        }
      }
    },
    {
      "alphaMode": "BLEND",
      "emissiveFactor": [
        1.0,
        1.0,
        1.0
      ],
      "emissiveTexture": {
        "index": 15
      },
      "name": "Ornament",
      "normalTexture": {
        "index": 14
      },
	  "extensions": {
	  "KHR_materials_sheen": {
					"sheenFactor": 1.0,
					"sheenRoughness" : 0.1,
					"sheenColor": [
						1.0,
						0.0,
						0.0
					]
				}
			},
      "occlusionTexture": {
        "index": 13
      },
      "pbrMetallicRoughness": {
        "baseColorTexture": {
          "index": 12
        },
        "metallicRoughnessTexture": {
          "index": 13
        }
      }
    },
    {
      "alphaMode": "BLEND",
      "emissiveFactor": [
        1.0,
        1.0,
        1.0
      ],
	   "extensions": {
	  "KHR_materials_sheen": {
					"sheenFactor": 1.0,
					"sheenRoughness" : 0.1,
					"sheenColor": [
						0.0,
						1.0,
						0.0
					]
				}
			},
      "emissiveTexture": {
        "index": 19
      },
      "name": "Outer",
      "normalTexture": {
        "index": 18
      },
      "occlusionTexture": {
        "index": 17
      },
      "pbrMetallicRoughness": {
        "baseColorTexture": {
          "index": 16
        },
        "metallicRoughnessTexture": {
          "index": 17
        }
      }
    },
    {
      "alphaMode": "BLEND",
      "emissiveFactor": [
        1.0,
        1.0,
        1.0
      ],
	  "extensions": {
				"KHR_materials_sheen": {
					"sheenFactor": 1.0,
					"sheenRoughness" : 0.1,
					"sheenColor": [
						0.5,
						0.0,
						1.0
					]
				}
			},
      "emissiveTexture": {
        "index": 23
      },
      "name": "Pad",
      "normalTexture": {
        "index": 22
      },
      "occlusionTexture": {
        "index": 21
      },
      "pbrMetallicRoughness": {
        "baseColorTexture": {
          "index": 20
        },
        "metallicRoughnessTexture": {
          "index": 21
        }
      }
    },
    {
      "alphaMode": "BLEND",
      "emissiveFactor": [
        1.0,
        1.0,
        1.0
      ],
      "emissiveTexture": {
        "index": 27
      },
      "name": "Pearl",
      "normalTexture": {
        "index": 26
      },
      "occlusionTexture": {
        "index": 25
      },
      "pbrMetallicRoughness": {
        "baseColorTexture": {
          "index": 24
        },
        "metallicRoughnessTexture": {
          "index": 25
        }
      }
    },
    {
      "alphaMode": "BLEND",
      "emissiveFactor": [
        1.0,
        1.0,
        1.0
      ],
      "emissiveTexture": {
        "index": 31
      },
      "name": "Sole",
      "normalTexture": {
        "index": 30
      },
      "occlusionTexture": {
        "index": 29
      },
      "pbrMetallicRoughness": {
        "baseColorTexture": {
          "index": 28
        },
        "metallicRoughnessTexture": {
          "index": 29
        }
      }
    }
  ],
  "meshes": [
    {
      "name": "HighHeel",
      "primitives": [
        {
          "attributes": {
            "NORMAL": 2,
            "POSITION": 1,
            "TEXCOORD_0": 3
          },
          "indices": 0,
          "material": 4,
          "mode": 4
        }
      ]
    },
    {
      "name": "HighHeel",
      "primitives": [
        {
          "attributes": {
            "NORMAL": 6,
            "POSITION": 5,
            "TEXCOORD_0": 7
          },
          "indices": 4,
          "material": 3,
          "mode": 4
        }
      ]
    },
    {
      "name": "HighHeel",
      "primitives": [
        {
          "attributes": {
            "NORMAL": 10,
            "POSITION": 9,
            "TEXCOORD_0": 11
          },
          "indices": 8,
          "material": 1,
          "mode": 4
        }
      ]
    },
    {
      "name": "HighHeel",
      "primitives": [
        {
          "attributes": {
            "NORMAL": 14,
            "POSITION": 13,
            "TEXCOORD_0": 15
          },
          "indices": 12,
          "material": 7,
          "mode": 4
        }
      ]
    },
    {
      "name": "HighHeel",
      "primitives": [
        {
          "attributes": {
            "NORMAL": 18,
            "POSITION": 17,
            "TEXCOORD_0": 19
          },
          "indices": 16,
          "material": 5,
          "mode": 4
        }
      ]
    },
    {
      "name": "HighHeel",
      "primitives": [
        {
          "attributes": {
            "NORMAL": 22,
            "POSITION": 21,
            "TEXCOORD_0": 23
          },
          "indices": 20,
          "material": 0,
          "mode": 4
        }
      ]
    },
    {
      "name": "HighHeel",
      "primitives": [
        {
          "attributes": {
            "NORMAL": 26,
            "POSITION": 25,
            "TEXCOORD_0": 27
          },
          "indices": 24,
          "material": 2,
          "mode": 4
        }
      ]
    },
    {
      "name": "HighHeel",
      "primitives": [
        {
          "attributes": {
            "NORMAL": 30,
            "POSITION": 29,
            "TEXCOORD_0": 31
          },
          "indices": 28,
          "material": 6,
          "mode": 4
        }
      ]
    }
  ],
  "nodes": [
    {
      "children": [
        1,
        3,
        5,
        7,
        9,
        11,
        13,
        15
      ],
      "name": "root",
      "scale": [
        13.090274810791,
        13.090274810791,
        13.090274810791
      ],
      "translation": [
        -0.545307636260986,
        10.2595548629761,
        0.993388175964355
      ]
    },
    {
      "children": [
        2
      ],
      "name": "HighHeel"
    },
    {
      "mesh": 0,
      "name": "HighHeel"
    },
    {
      "children": [
        4
      ],
      "name": "HighHeel"
    },
    {
      "mesh": 1,
      "name": "HighHeel"
    },
    {
      "children": [
        6
      ],
      "name": "HighHeel"
    },
    {
      "mesh": 2,
      "name": "HighHeel"
    },
    {
      "children": [
        8
      ],
      "name": "HighHeel"
    },
    {
      "mesh": 3,
      "name": "HighHeel"
    },
    {
      "children": [
        10
      ],
      "name": "HighHeel"
    },
    {
      "mesh": 4,
      "name": "HighHeel"
    },
    {
      "children": [
        12
      ],
      "name": "HighHeel"
    },
    {
      "mesh": 5,
      "name": "HighHeel"
    },
    {
      "children": [
        14
      ],
      "name": "HighHeel"
    },
    {
      "mesh": 6,
      "name": "HighHeel"
    },
    {
      "children": [
        16
      ],
      "name": "HighHeel"
    },
    {
      "mesh": 7,
      "name": "HighHeel"
    }
  ],
  "samplers": [
    {
      "magFilter": 9729,
      "minFilter": 9985,
      "wrapS": 10497,
      "wrapT": 10497
    }
  ],
  "scene": 0,
  "scenes": [
    {
      "name": "Scene",
      "nodes": [
        0
      ]
    }
  ],
  "textures": [
    {
      "sampler": 0,
      "source": 0
    },
    {
      "sampler": 0,
      "source": 1
    },
    {
      "sampler": 0,
      "source": 2
    },
    {
      "sampler": 0,
      "source": 3
    },
    {
      "sampler": 0,
      "source": 4
    },
    {
      "sampler": 0,
      "source": 5
    },
    {
      "sampler": 0,
      "source": 6
    },
    {
      "sampler": 0,
      "source": 7
    },
    {
      "sampler": 0,
      "source": 8
    },
    {
      "sampler": 0,
      "source": 9
    },
    {
      "sampler": 0,
      "source": 10
    },
    {
      "sampler": 0,
      "source": 11
    },
    {
      "sampler": 0,
      "source": 12
    },
    {
      "sampler": 0,
      "source": 13
    },
    {
      "sampler": 0,
      "source": 14
    },
    {
      "sampler": 0,
      "source": 15
    },
    {
      "sampler": 0,
      "source": 16
    },
    {
      "sampler": 0,
      "source": 17
    },
    {
      "sampler": 0,
      "source": 18
    },
    {
      "sampler": 0,
      "source": 19
    },
    {
      "sampler": 0,
      "source": 20
    },
    {
      "sampler": 0,
      "source": 21
    },
    {
      "sampler": 0,
      "source": 22
    },
    {
      "sampler": 0,
      "source": 23
    },
    {
      "sampler": 0,
      "source": 24
    },
    {
      "sampler": 0,
      "source": 25
    },
    {
      "sampler": 0,
      "source": 26
    },
    {
      "sampler": 0,
      "source": 27
    },
    {
      "sampler": 0,
      "source": 28
    },
    {
      "sampler": 0,
      "source": 29
    },
    {
      "sampler": 0,
      "source": 30
    },
    {
      "sampler": 0,
      "source": 31
    }
  ]
}