{
  "extensionsUsed": [
    "KHR_technique_webgl"
  ], 
  "extensionsRequired": [
    "KHR_technique_webgl"
  ], 

  "scenes": [
    {
      "nodes": [ 0 ]
    }
  ], 
  "nodes": [
    {
      "mesh": 0
    }
  ], 
  "meshes": [
    {
      "primitives": [
        {
          "attributes": {
            "POSITION": 1, 
            "NORMAL": 2, 
            "TEXCOORD_0": 3
          }, 
          "indices": 0, 
          "material": 0
        }
      ]
    }
  ], 
  "materials": [
    {
      "technique": 0
    }
  ], 

  "textures": [
    {
      "format": 6408, 
      "internalFormat": 6408, 
      "sampler": 0, 
      "source": 0, 
      "target": 3553, 
      "type": 5121
    }
  ],
  "images": [
    {
      "uri": "testTexture.png"
    }
  ], 
  "samplers": [
    {
      "magFilter": 9729, 
      "minFilter": 9987, 
      "wrapS": 33648, 
      "wrapT": 33648
    }
  ], 

  "buffers": [
    {
      "uri" : "data:application/octet-stream;base64,",
      "byteLength": 144
    }
  ], 
  "bufferViews": [
    {
      "buffer": 0, 
      "byteOffset": 0, 
      "byteLength": 12, 
      "target": 34963
    }, 
    {
      "buffer": 0, 
      "byteOffset": 12, 
      "byteLength": 128, 
      "target": 34962
    }
  ], 
  "accessors": [
    {
      "bufferView": 0, 
      "byteOffset": 0, 
      "byteStride": 0, 
      "componentType": 5123, 
      "count": 6, 
      "type": "SCALAR", 
      "max": [ 3 ], 
      "min": [ 0 ]
    }, 
    {
      "bufferView": 1, 
      "byteOffset": 0, 
      "byteStride": 0, 
      "componentType": 5126, 
      "count": 4, 
      "type": "VEC3", 
      "max": [ 1.0, 1.0, 0.0 ], 
      "min": [ 0.0, 0.0, 0.0 ]
    }, 
    {
      "bufferView": 1, 
      "byteOffset": 48, 
      "byteStride": 0, 
      "componentType": 5126, 
      "count": 4, 
      "type": "VEC3", 
      "max": [ 0.0, 0.0, 1.0 ], 
      "min": [ 0.0, 0.0, 1.0 ]
    }, 
    {
      "bufferView": 1, 
      "byteOffset": 96, 
      "byteStride": 0, 
      "componentType": 5126, 
      "count": 4, 
      "type": "VEC2", 
      "max": [ 1.0, 1.0 ], 
      "min": [ 0.0, 0.0 ]
    }
  ], 


  "extensions": {
    "KHR_technique_webgl": {
      "shaders": [
        {
          "uri": "texture.vert", 
          "type": 35633
        }, 
        {
          "uri": "texture.frag", 
          "type": 35632
        }
      ], 
      "techniques": [
        {
          "parameters": {
            "positionParameter": {
              "type": 35665, 
              "semantic": "POSITION"
            }, 
            "normalParameter": {
              "type": 35665, 
              "semantic": "NORMAL"
            }, 
            "texcoord0Parameter": {
              "type": 35664, 
              "semantic": "TEXCOORD_0"
            }, 
            "modelViewMatrixParameter": {
              "type": 35676, 
              "semantic": "MODELVIEW"
            }, 
            "normalMatrixParameter": {
              "type": 35675, 
              "semantic": "MODELVIEWINVERSETRANSPOSE"
            }, 
            "projectionMatrixParameter": {
              "type": 35676, 
              "semantic": "PROJECTION"
            }, 
            "ambientParameter": {
              "type": 35666, 
              "value": [ 0.1, 0.1, 0.1, 1.0 ]
            }, 
            "diffuseParameter": {
              "type": 35678, 
              "value": [ "exampleTexture" ]
            }, 
            "specularParameter": {
              "type": 35666, 
              "value": [ 1.0, 1.0, 1.0, 1.0 ]
            }, 
            "shininessParameter": {
              "type": 5126, 
              "value": [ 40.0 ]
            }
          }, 
          "attributes": {
            "a_position": "positionParameter", 
            "a_normal": "normalParameter", 
            "a_texcoord0": "texcoord0Parameter"
          }, 
          "program": 0, 
          "uniforms": {
            "u_modelViewMatrix": "modelViewMatrixParameter", 
            "u_normalMatrix": "normalMatrixParameter", 
            "u_projectionMatrix": "projectionMatrixParameter", 
            "u_ambient": "ambientParameter", 
            "u_diffuse": "diffuseParameter", 
            "u_specular": "specularParameter", 
            "u_shininess": "shininessParameter"
          }, 
          "states": {
            "enable": [
              2929
            ]
          }
        }
      ], 
      "programs": [
        {
          "attributes": [
            "a_position", 
            "a_normal", 
            "a_texcoord0"
          ], 
          "fragmentShader": 1, 
          "vertexShader": 0
        }
      ]
    }
  }, 
  
  "asset": {
    "version": "2.0.0"
  }
  
}
