{
    "asset": {
        "generator": "COLLADA2GLTF",
        "version": "2.0"
    },
    "scene": 0,
    "scenes": [
        {
            "nodes": [
                6,
                5,
                2,
                1,
                0
            ]
        }
    ],
    "nodes": [
        {
            "matrix": [
                0.7071067690849304,
                0.0,
                0.7071067690849304,
                0.0,
                0.3535533845424652,
                0.8660253882408142,
                -0.3535533845424652,
                0.0,
                -0.6123724579811096,
                0.5,
                0.6123724579811096,
                0.0,
                -2.0,
                2.0,
                2.0,
                1.0
            ]
        },
        {
            "matrix": [
                1.0,
                0.0,
                0.0,
                0.0,
                0.0,
                0.9961947202682496,
                -0.08715574443340302,
                0.0,
                0.0,
                0.08715574443340302,
                0.9961947202682496,
                0.0,
                0.0,
                0.75,
                4.0,
                1.0
            ]
        },
        {
            "children": [
                3
            ],
            "rotation": [
                -0.0,
                -0.0,
                -0.0,
                -1.0
            ]
        },
        {
            "children": [
                4
            ]
        },
        {
            "mesh": 0,
            "rotation": [
                -0.0,
                -0.0,
                -0.0,
                -1.0
            ]
        },
        {
            "mesh": 1
        },
        {}
    ],
    "meshes": [
        {
            "primitives": [
                {
                    "attributes": {
                        "NORMAL": 1,
                        "POSITION": 2
                    },
                    "indices": 0,
                    "mode": 4,
                    "material": 0
                }
            ],
            "name": "inner_box"
        },
        {
            "primitives": [
                {
                    "attributes": {
                        "NORMAL": 4,
                        "POSITION": 5
                    },
                    "indices": 3,
                    "mode": 4,
                    "material": 1
                }
            ],
            "name": "outer_box"
        }
    ],
    "animations": [
        {
            "channels": [
                {
                    "sampler": 0,
                    "target": {
                        "node": 4,
                        "path": "rotation"
                    }
                }
            ],
            "samplers": [
                {
                    "input": 6,
                    "interpolation": "LINEAR",
                    "output": 7
                }
            ]
        },
        {
            "channels": [
                {
                    "sampler": 0,
                    "target": {
                        "node": 2,
                        "path": "translation"
                    }
                }
            ],
            "samplers": [
                {
                    "input": 8,
                    "interpolation": "LINEAR",
                    "output": 9
                }
            ]
        }
    ],
    "accessors": [
        {
            "bufferView": 0,
            "byteOffset": 0,
            "componentType": 5123,
            "count": 186,
            "max": [
                95
            ],
            "min": [
                0
            ],
            "type": "SCALAR"
        },
        {
            "bufferView": 1,
            "byteOffset": 1152,
            "componentType": 5126,
            "count": 96,
            "max": [
                1.0,
                1.0,
                1.0
            ],
            "min": [
                -1.0,
                -1.0,
                -1.0
            ],
            "type": "VEC3"
        },
        {
            "bufferView": 1,
            "byteOffset": 0,
            "componentType": 5126,
            "count": 96,
            "max": [
                0.33504000306129458,
                0.5,
                0.33504000306129458
            ],
            "min": [
                -0.33504000306129458,
                -0.5,
                -0.33504000306129458
            ],
            "type": "VEC3"
        },
        {
            "bufferView": 0,
            "byteOffset": 372,
            "componentType": 5123,
            "count": 576,
            "max": [
                223
            ],
            "min": [
                0
            ],
            "type": "SCALAR"
        },
        {
            "bufferView": 1,
            "byteOffset": 2304,
            "componentType": 5126,
            "count": 224,
            "max": [
                1.0,
                1.0,
                1.0
            ],
            "min": [
                -1.0,
                -1.0,
                -1.0
            ],
            "type": "VEC3"
        },
        {
            "bufferView": 1,
            "byteOffset": 4992,
            "componentType": 5126,
            "count": 224,
            "max": [
                0.5,
                0.5,
                0.5
            ],
            "min": [
                -0.5,
                -0.5,
                -0.5
            ],
            "type": "VEC3"
        },
        {
            "bufferView": 2,
            "byteOffset": 16,
            "componentType": 5126,
            "count": 2,
            "max": [
                2.5
            ],
            "min": [
                1.25
            ],
            "type": "SCALAR"
        },
        {
            "bufferView": 3,
            "byteOffset": 0,
            "componentType": 5126,
            "count": 2,
            "max": [
                1.0,
                0.0,
                0.0,
                4.4896593387466768e-11
            ],
            "min": [
                -0.0,
                0.0,
                0.0,
                -1.0
            ],
            "type": "VEC4"
        },
        {
            "bufferView": 2,
            "byteOffset": 0,
            "componentType": 5126,
            "count": 4,
            "max": [
                3.708329916000366
            ],
            "min": [
                0.0
            ],
            "type": "SCALAR"
        },
        {
            "bufferView": 4,
            "byteOffset": 0,
            "componentType": 5126,
            "count": 4,
            "max": [
                0.0,
                2.5199999809265138,
                0.0
            ],
            "min": [
                0.0,
                0.0,
                0.0
            ],
            "type": "VEC3"
        }
    ],
    "materials": [
        {
            "values": {
                "diffuse": [
                    0.800000011920929,
                    0.4159420132637024,
                    0.7952920198440552,
                    1.0
                ],
                "specular": [
                    0.20000000298023225,
                    0.20000000298023225,
                    0.20000000298023225,
                    1.0
                ],
                "shininess": [
                    256.0
                ],
                "transparency": [
                    1.0
                ]
            },
            "technique": 0
        },
        {
            "values": {
                "diffuse": [
                    0.3016040027141571,
                    0.5335419774055481,
                    0.800000011920929,
                    1.0
                ],
                "specular": [
                    0.20000000298023225,
                    0.20000000298023225,
                    0.20000000298023225,
                    1.0
                ],
                "shininess": [
                    256.0
                ],
                "transparency": [
                    1.0
                ]
            },
            "technique": 0,
            "name": "outer"
        }
    ],
    "techniques": [
        {
            "attributes": {
                "a_normal": "normal",
                "a_position": "position"
            },
            "parameters": {
                "diffuse": {
                    "type": 35666
                },
                "light0Color": {
                    "value": [
                        1.0,
                        1.0,
                        1.0
                    ],
                    "type": 35665
                },
                "light0Transform": {
                    "semantic": "MODELVIEW",
                    "node": 0,
                    "type": 35676
                },
                "light1Color": {
                    "value": [
                        0.0,
                        0.0,
                        0.0
                    ],
                    "type": 35665
                },
                "modelViewMatrix": {
                    "semantic": "MODELVIEW",
                    "type": 35676
                },
                "normal": {
                    "semantic": "NORMAL",
                    "type": 35665
                },
                "normalMatrix": {
                    "semantic": "MODELVIEWINVERSETRANSPOSE",
                    "type": 35675
                },
                "position": {
                    "semantic": "POSITION",
                    "type": 35665
                },
                "projectionMatrix": {
                    "semantic": "PROJECTION",
                    "type": 35676
                },
                "shininess": {
                    "type": 5126
                },
                "specular": {
                    "type": 35666
                },
                "transparency": {
                    "type": 5126
                }
            },
            "program": 0,
            "states": {
                "enable": [
                    2884,
                    2929
                ]
            },
            "uniforms": {
                "u_diffuse": "diffuse",
                "u_light0Color": "light0Color",
                "u_light0Transform": "light0Transform",
                "u_light1Color": "light1Color",
                "u_modelViewMatrix": "modelViewMatrix",
                "u_normalMatrix": "normalMatrix",
                "u_projectionMatrix": "projectionMatrix",
                "u_shininess": "shininess",
                "u_specular": "specular",
                "u_transparency": "transparency"
            }
        }
    ],
    "programs": [
        {
            "attributes": [
                "a_normal",
                "a_position"
            ],
            "fragmentShader": 1,
            "vertexShader": 0
        }
    ],
    "shaders": [
        {
            "type": 35633,
            "uri": "data:text/plain;base64,"
        },
        {
            "type": 35632,
            "uri": "data:text/plain;base64,"
        }
    ],
    "bufferViews": [
        {
            "buffer": 0,
            "byteOffset": 7784,
            "byteLength": 1524,
            "target": 34963
        },
        {
            "buffer": 0,
            "byteOffset": 80,
            "byteLength": 7680,
            "byteStride": 12,
            "target": 34962
        },
        {
            "buffer": 0,
            "byteOffset": 7760,
            "byteLength": 24
        },
        {
            "buffer": 0,
            "byteOffset": 0,
            "byteLength": 32
        },
        {
            "buffer": 0,
            "byteOffset": 32,
            "byteLength": 48
        }
    ],
    "buffers": [
        {
            "byteLength": 9308,
            "uri": "data:application/octet-stream;base64,"
        }
    ],
    "extensionsRequired": [
        "KHR_technique_webgl"
    ],
    "extensionsUsed": [
        "KHR_technique_webgl"
    ]
}
