{
    "accessors" : [
        {
            "bufferView" : 0,
            "componentType" : 5126,
            "count" : 24,
            "max" : [
                1,
                1,
                1
            ],
            "min" : [
                -1,
                -1,
                -1
            ],
            "type" : "VEC3"
        },
        {
            "bufferView" : 1,
            "componentType" : 5126,
            "count" : 24,
            "type" : "VEC3"
        },
        {
            "bufferView" : 2,
            "componentType" : 5126,
            "count" : 24,
            "type" : "VEC2"
        },
        {
            "bufferView" : 3,
            "componentType" : 5121,
            "count" : 36,
            "type" : "SCALAR"
        }
    ],
    "asset" : {
        "generator" : "Khronos Blender glTF 2.0 I/O",
        "version" : "2.0"
    },
    "bufferViews" : [
        {
            "buffer" : 0,
            "byteLength" : 288,
            "byteOffset" : 0
        },
        {
            "buffer" : 0,
            "byteLength" : 288,
            "byteOffset" : 288
        },
        {
            "buffer" : 0,
            "byteLength" : 192,
            "byteOffset" : 576
        },
        {
            "buffer" : 0,
            "byteLength" : 36,
            "byteOffset" : 768
        }
    ],
    "buffers" : [
        {
            "byteLength" : 804,
            "uri" : "light.bin"
        }
    ],
    "cameras" : [
        {
            "name" : "Camera",
            "perspective" : {
                "yfov" : 0.39959648408210363,
                "zfar" : 100,
                "znear" : 0.10000000149011612
            },
            "type" : "perspective"
        }
    ],
    "extensions" : {
        "KHR_lights_punctual" : {
            "lights" : [
                {
                    "color" : [
                        1,
                        0,
                        0
                    ],
                    "intensity" : 5,
                    "name" : "Light",
                    "type" : "point"
                },
                {
                    "color" : [
                        0,
                        1,
                        0
                    ],
                    "intensity" : 10,
                    "name" : "Spot",
                    "spot" : {
                        "innerConeAngle" : 0.3337942263919169,
                        "outerConeAngle" : 0.39269909262657166
                    },
                    "type" : "spot"
                },
                {
                    "color" : [
                        0,
                        0,
                        1
                    ],
                    "intensity" : 10,
                    "name" : "Spot.001",
                    "spot" : {
                        "innerConeAngle" : 0.06686909002858688,
                        "outerConeAngle" : 0.07866951823234558
                    },
                    "type" : "spot"
                },
                {
                    "color" : [
                        0,
                        1,
                        1
                    ],
                    "intensity" : 1.0000003576278687,
                    "name" : "Sun",
                    "type" : "directional"
                }
            ]
        }
    },
    "extensionsRequired" : [
        "KHR_lights_punctual"
    ],
    "extensionsUsed" : [
        "KHR_lights_punctual"
    ],
    "materials" : [
        {
            "name" : "Material",
            "pbrMetallicRoughness" : {
                "baseColorFactor" : [
                    0.800000011920929,
                    0.800000011920929,
                    0.800000011920929,
                    1
                ],
                "metallicFactor" : 0,
                "roughnessFactor" : 0.5
            }
        }
    ],
    "meshes" : [
        {
            "name" : "Cube",
            "primitives" : [
                {
                    "attributes" : {
                        "NORMAL" : 1,
                        "POSITION" : 0,
                        "TEXCOORD_0" : 2
                    },
                    "indices" : 3,
                    "material" : 0
                }
            ]
        }
    ],
    "nodes" : [
        {
            "mesh" : 0,
            "name" : "Cube"
        },
        {
            "extensions" : {
                "KHR_lights_punctual" : {
                    "light" : 0
                }
            },
            "name" : "Light_Orientation",
            "rotation" : [
                -0.7071067690849304,
                0,
                0,
                0.7071067690849304
            ]
        },
        {
            "children" : [
                1
            ],
            "extensions" : {},
            "name" : "Light",
            "rotation" : [
                0.16907575726509094,
                0.7558802962303162,
                -0.27217137813568115,
                0.570947527885437
            ],
            "scale" : [
                1,
                1,
                0.9999999403953552
            ],
            "translation" : [
                2.598804473876953,
                3.5685081481933594,
                -1.0054539442062378
            ]
        },
        {
            "camera" : 0,
            "name" : "Camera_Orientation",
            "rotation" : [
                -0.7071067690849304,
                0,
                0,
                0.7071067690849304
            ]
        },
        {
            "children" : [
                3
            ],
            "name" : "Camera",
            "rotation" : [
                0.483536034822464,
                0.33687159419059753,
                -0.20870360732078552,
                0.7804827094078064
            ],
            "translation" : [
                7.358891487121582,
                4.958309173583984,
                6.925790786743164
            ]
        },
        {
            "extensions" : {
                "KHR_lights_punctual" : {
                    "light" : 1
                }
            },
            "name" : "Spot_Orientation",
            "rotation" : [
                -0.7071067690849304,
                0,
                0,
                0.7071067690849304
            ]
        },
        {
            "children" : [
                5
            ],
            "extensions" : {},
            "name" : "Spot",
            "translation" : [
                -0.27057111263275146,
                1.9432672262191772,
                0.3526574969291687
            ]
        },
        {
            "extensions" : {
                "KHR_lights_punctual" : {
                    "light" : 2
                }
            },
            "name" : "Spot.001_Orientation",
            "rotation" : [
                -0.7071067690849304,
                0,
                0,
                0.7071067690849304
            ]
        },
        {
            "children" : [
                7
            ],
            "extensions" : {},
            "name" : "Spot.001",
            "translation" : [
                0,
                6.1562676429748535,
                0
            ]
        },
        {
            "extensions" : {
                "KHR_lights_punctual" : {
                    "light" : 3
                }
            },
            "name" : "Sun_Orientation",
            "rotation" : [
                -0.7071067690849304,
                0,
                0,
                0.7071067690849304
            ]
        },
        {
            "children" : [
                9
            ],
            "extensions" : {},
            "name" : "Sun",
            "rotation" : [
                0.6230779886245728,
                -0.011956790462136269,
                -0.018184810876846313,
                0.781856894493103
            ],
            "translation" : [
                0.049726784229278564,
                0.8518845438957214,
                5.594457626342773
            ]
        }
    ],
    "scene" : 0,
    "scenes" : [
        {
            "name" : "Scene",
            "nodes" : [
                0,
                2,
                4,
                6,
                8,
                10
            ]
        }
    ]
}
