{
    "asset": {
        "version": "2.0"
    },
    "scene": 0,
    "scenes": [
        {
            "nodes": [
                0
            ]
        }
    ],
    "nodes": [
        {
            "mesh": 0
        }
    ],
    "materials": [
        {
            "name": "Unicode❤♻Material",
            "pbrMetallicRoughness": {
                "baseColorFactor": [
                    1,
                    1,
                    1,
                    1
                ],
                "metallicFactor": 0,
                "roughnessFactor": 1,
                "baseColorTexture": {
                    "index": 0
                }
            }
        }
    ],
    "meshes": [
        {
            "name": "Unicode❤♻Mesh",
            "primitives": [
                {
                    "attributes": {
                        "POSITION": 1,
                        "NORMAL": 2,
                        "TEXCOORD_0": 3
                    },
                    "indices": 0,
                    "mode": 4,
                    "material": 0
                }
            ]
        }
    ],
    "buffers": [
        {
            "uri": "Unicode❤♻Binary.bin",
            "byteLength": 152
        }
    ],
    "bufferViews": [
        {
            "buffer": 0,
            "byteOffset": 0,
            "byteLength": 24
        },
        {
            "buffer": 0,
            "byteOffset": 24,
            "byteLength": 48
        },
        {
            "buffer": 0,
            "byteOffset": 72,
            "byteLength": 48
        },
        {
            "buffer": 0,
            "byteOffset": 120,
            "byteLength": 32
        }
    ],
    "accessors": [
        {
            "bufferView": 0,
            "byteOffset": 0,
            "componentType": 5125,
            "count": 6,
            "type": "SCALAR"
        },
        {
            "bufferView": 1,
            "byteOffset": 0,
            "componentType": 5126,
            "count": 4,
            "min": [
                0,
                0,
                0
            ],
            "max": [
                1,
                1,
                0
            ],
            "type": "VEC3"
        },
        {
            "bufferView": 2,
            "byteOffset": 0,
            "componentType": 5126,
            "count": 4,
            "type": "VEC3"
        },
        {
            "bufferView": 3,
            "byteOffset": 0,
            "componentType": 5126,
            "count": 4,
            "type": "VEC2"
        }
    ],
    "images": [
        {
            "uri": "Unicode❤♻Texture.png"
        }
    ],
    "textures": [
        {
            "source": 0
        }
    ]
}