{"accessors":[{"bufferView":0,"byteOffset":0,"componentType":5126,"count":11505,"type":"VEC2","max":[1.0,-0.008408904],"min":[0.00469656335,-0.996301055]},{"bufferView":1,"byteOffset":0,"componentType":5126,"count":11505,"type":"VEC3","max":[1.0,1.0,1.0],"min":[-1.0,-1.0,-1.0]},{"bufferView":2,"byteOffset":0,"componentType":5126,"count":11505,"type":"VEC4","max":[0.9997274,1.0,1.0,1.0],"min":[-1.0,-1.0,-1.0,-1.0]},{"bufferView":3,"byteOffset":0,"componentType":5126,"count":11505,"type":"VEC3","max":[0.019474864,0.05784153,0.019474864],"min":[-0.0194748752,0.0,-0.0194748677]},{"bufferView":4,"byteOffset":0,"componentType":5123,"count":54972,"type":"SCALAR","max":[11504],"min":[0]}],"asset":{"version":"2.0"},"bufferViews":[{"buffer":0,"byteOffset":0,"byteLength":92040,"target":34962},{"buffer":1,"byteOffset":0,"byteLength":138060,"target":34962},{"buffer":2,"byteOffset":0,"byteLength":184080,"target":34962},{"buffer":3,"byteOffset":0,"byteLength":138060,"target":34962},{"buffer":4,"byteOffset":0,"byteLength":109944,"target":34962}],"buffers":[{"uri":"Corset_buffer0.bin","byteLength":92040},{"uri":"Corset_buffer1.bin","byteLength":138060},{"uri":"Corset_buffer2.bin","byteLength":184080},{"uri":"Corset_buffer3.bin","byteLength":138060},{"uri":"Corset_buffer4.bin","byteLength":109944}],"extensionsUsed":["KHR_materials_pbrSpecularGlossiness"],"images":[{"uri":"Corset_image0.png"},{"uri":"Corset_image1.png"},{"uri":"Corset_image2.png"},{"uri":"Corset_image3.png"},{"uri":"Corset_image4.png"},{"uri":"Corset_image5.png"}],"meshes":[{"primitives":[{"attributes":{"TEXCOORD_0":0,"NORMAL":1,"TANGENT":2,"POSITION":3},"indices":4,"material":0,"mode":4}],"name":"pCube49"}],"materials":[{"pbrMetallicRoughness":{"baseColorTexture":{"index":0},"metallicRoughnessTexture":{"index":1}},"normalTexture":{"index":2},"occlusionTexture":{"index":3},"name":"Corset_O","extensions":{"KHR_materials_pbrSpecularGlossiness":{"diffuseTexture":{"index":4},"specularGlossinessTexture":{"index":5}}}}],"nodes":[{"children":[],"mesh":0,"scale":[25.0,25.0,25.0],"translation":[0.0,-0.623,0.089],"name":"Corset"}],"samplers":[{},{},{},{},{},{}],"scene":0,"scenes":[{"nodes":[0]}],"textures":[{"sampler":0,"source":0},{"sampler":1,"source":1},{"sampler":2,"source":2},{"sampler":3,"source":3},{"sampler":4,"source":4},{"sampler":5,"source":5}]}