{"accessors":[{"bufferView":0,"byteOffset":0,"componentType":5126,"count":3575,"type":"VEC2","max":[0.9999003,-0.0221377648],"min":[0.0006585993,-0.996773958]},{"bufferView":1,"byteOffset":0,"componentType":5126,"count":3575,"type":"VEC3","max":[1.0,1.0,0.9999782],"min":[-1.0,-1.0,-0.9980823]},{"bufferView":2,"byteOffset":0,"componentType":5126,"count":3575,"type":"VEC4","max":[1.0,0.9999976,1.0,-1.0],"min":[-0.9991289,-0.999907851,-1.0,-1.0]},{"bufferView":3,"byteOffset":0,"componentType":5126,"count":3575,"type":"VEC3","max":[0.009921154,0.00977163,0.0100762453],"min":[-0.009921154,-0.00977163,-0.0100762453]},{"bufferView":4,"byteOffset":0,"componentType":5123,"count":18108,"type":"SCALAR","max":[3574],"min":[0]}],"asset":{"version":"2.0"},"bufferViews":[{"buffer":0,"byteOffset":0,"byteLength":28600,"target":34962},{"buffer":1,"byteOffset":0,"byteLength":42900,"target":34962},{"buffer":2,"byteOffset":0,"byteLength":57200,"target":34962},{"buffer":3,"byteOffset":0,"byteLength":42900,"target":34962},{"buffer":4,"byteOffset":0,"byteLength":36216,"target":34962}],"buffers":[{"uri":"BoomBox_buffer0.bin","byteLength":28600},{"uri":"BoomBox_buffer1.bin","byteLength":42900},{"uri":"BoomBox_buffer2.bin","byteLength":57200},{"uri":"BoomBox_buffer3.bin","byteLength":42900},{"uri":"BoomBox_buffer4.bin","byteLength":36216}],"extensionsUsed":["KHR_materials_pbrSpecularGlossiness"],"images":[{"uri":"BoomBox_image0.png"},{"uri":"BoomBox_image1.png"},{"uri":"BoomBox_image2.png"},{"uri":"BoomBox_image3.png"},{"uri":"BoomBox_image4.png"},{"uri":"BoomBox_image5.png"},{"uri":"BoomBox_image6.png"}],"meshes":[{"primitives":[{"attributes":{"TEXCOORD_0":0,"NORMAL":1,"TANGENT":2,"POSITION":3},"indices":4,"material":0,"mode":4}],"name":"BoomBox"}],"materials":[{"pbrMetallicRoughness":{"baseColorTexture":{"index":0},"metallicRoughnessTexture":{"index":1}},"normalTexture":{"index":2},"occlusionTexture":{"index":3},"emissiveFactor":[1.0,1.0,1.0],"emissiveTexture":{"index":4},"name":"BoomBox_Mat","extensions":{"KHR_materials_pbrSpecularGlossiness":{"diffuseTexture":{"index":5},"specularGlossinessTexture":{"index":6}}}}],"nodes":[{"children":[],"mesh":0,"scale":[80.0,80.0,80.0],"translation":[0.0,0.163,0.053],"name":"BoomBox"}],"samplers":[{},{},{},{},{},{},{}],"scene":0,"scenes":[{"nodes":[0]}],"textures":[{"sampler":0,"source":0},{"sampler":1,"source":1},{"sampler":2,"source":2},{"sampler":3,"source":3},{"sampler":4,"source":4},{"sampler":5,"source":5},{"sampler":6,"source":6}]}