{
    "asset" : {
        "generator" : "Khronos glTF Blender I/O v1.1.45",
        "version" : "2.0"
    },
    "scene" : 0,
    "scenes" : [
        {
            "name" : "Scene",
            "nodes" : [
                0, 1, 2, 3, 4, 5,
                6, 7, 8, 9, 10, 11,
                12, 13, 14, 15, 16, 17,
                18, 19, 20, 21, 22, 23,
                24
            ]
        }
    ],
    "extensions": {
        "KHR_lights_punctual": {
            "lights": [
                {
                    "color": [1.0, 1.0, 1.0],
                    "type": "point",
                    "intensity": 100.0
                }
            ]
        }
    },
    "nodes" : [
        {
            "mesh" : 0,
            "translation": [-5, -1.5, 0]
        },
        {
            "mesh" : 1,
            "translation": [-3, -1.5, 0]
        },
        {
            "mesh" : 2,
            "translation": [-1, -1.5, 0]
        },
        {
            "mesh" : 3,
            "translation": [1, -1.5, 0]
        },
        {
            "mesh" : 4,
            "translation": [3, -1.5, 0]
        },
        {
            "mesh" : 5,
            "translation": [5, -1.5, 0]
        },
        {
            "mesh" : 6,
            "translation": [-5, 1.5, 0]
        },
        {
            "mesh" : 7,
            "translation": [-3, 1.5, 0]
        },
        {
            "mesh" : 8,
            "translation": [-1, 1.5, 0]
        },
        {
            "mesh" : 9,
            "translation": [1, 1.5, 0]
        },
        {
            "mesh" : 10,
            "translation": [3, 1.5, 0]
        },
        {
            "mesh" : 11,
            "translation": [5, 1.5, 0]
        },
        {
            "mesh" : 12,
            "translation": [-5, 4.5, 0]
        },
        {
            "mesh" : 13,
            "translation": [-3, 4.5, 0]
        },
        {
            "mesh" : 14,
            "translation": [-1, 4.5, 0]
        },
        {
            "mesh" : 15,
            "translation": [1, 4.5, 0]
        },
        {
            "mesh" : 16,
            "translation": [3, 4.5, 0]
        },
        {
            "mesh" : 17,
            "translation": [5, 4.5, 0]
        },
        {
            "mesh" : 18,
            "translation": [-5, -4.5, 0],
            "scale": [0.5, 0.5, 0.5]
        },
        {
            "mesh" : 18,
            "translation": [-3, -4.5, 0],
            "scale": [0.6, 0.6, 0.6]
        },
        {
            "mesh" : 18,
            "translation": [-1, -4.5, 0],
            "scale": [0.7, 0.7, 0.7]
        },
        {
            "mesh" : 18,
            "translation": [1, -4.5, 0],
            "scale": [0.8, 0.8, 0.8]
        },
        {
            "mesh" : 18,
            "translation": [3, -4.5, 0],
            "scale": [0.9, 0.9, 0.9]
        },
        {
            "mesh" : 18,
            "translation": [5, -4.5, 0],
            "scale": [1.0, 1.0, 1.0]
        },
        {
            "name": "Light",
            "extensions": {
                "KHR_lights_punctual": {
                    "light": 0
                }
            },
            "translation": [0, 0, -5]
        }
    ],
    "meshes" : [
        {
            "primitives" : [
                {
                    "attributes" : {
                        "POSITION" : 0,
                        "NORMAL" : 1,
                        "TEXCOORD_0" : 2
                    },
                    "indices" : 3,
                    "material": 0
                }
            ]
        },
        {
            "primitives" : [
                {
                    "attributes" : {
                        "POSITION" : 0,
                        "NORMAL" : 1,
                        "TEXCOORD_0" : 2
                    },
                    "indices" : 3,
                    "material": 1
                }
            ]
        },
        {
            "primitives" : [
                {
                    "attributes" : {
                        "POSITION" : 0,
                        "NORMAL" : 1,
                        "TEXCOORD_0" : 2
                    },
                    "indices" : 3,
                    "material": 2
                }
            ]
        },
        {
            "primitives" : [
                {
                    "attributes" : {
                        "POSITION" : 0,
                        "NORMAL" : 1,
                        "TEXCOORD_0" : 2
                    },
                    "indices" : 3,
                    "material": 3
                }
            ]
        },
        {
            "primitives" : [
                {
                    "attributes" : {
                        "POSITION" : 0,
                        "NORMAL" : 1,
                        "TEXCOORD_0" : 2
                    },
                    "indices" : 3,
                    "material": 4
                }
            ]
        },
        {
            "primitives" : [
                {
                    "attributes" : {
                        "POSITION" : 0,
                        "NORMAL" : 1,
                        "TEXCOORD_0" : 2
                    },
                    "indices" : 3,
                    "material": 5
                }
            ]
        },
        {
            "primitives" : [
                {
                    "attributes" : {
                        "POSITION" : 0,
                        "NORMAL" : 1,
                        "TEXCOORD_0" : 2
                    },
                    "indices" : 3,
                    "material": 6
                }
            ]
        },
        {
            "primitives" : [
                {
                    "attributes" : {
                        "POSITION" : 0,
                        "NORMAL" : 1,
                        "TEXCOORD_0" : 2
                    },
                    "indices" : 3,
                    "material": 7
                }
            ]
        },
        {
            "primitives" : [
                {
                    "attributes" : {
                        "POSITION" : 0,
                        "NORMAL" : 1,
                        "TEXCOORD_0" : 2
                    },
                    "indices" : 3,
                    "material": 8
                }
            ]
        },
        {
            "primitives" : [
                {
                    "attributes" : {
                        "POSITION" : 0,
                        "NORMAL" : 1,
                        "TEXCOORD_0" : 2
                    },
                    "indices" : 3,
                    "material": 9
                }
            ]
        },
        {
            "primitives" : [
                {
                    "attributes" : {
                        "POSITION" : 0,
                        "NORMAL" : 1,
                        "TEXCOORD_0" : 2
                    },
                    "indices" : 3,
                    "material": 10
                }
            ]
        },
        {
            "primitives" : [
                {
                    "attributes" : {
                        "POSITION" : 0,
                        "NORMAL" : 1,
                        "TEXCOORD_0" : 2
                    },
                    "indices" : 3,
                    "material": 11
                }
            ]
        },
        {
            "primitives" : [
                {
                    "attributes" : {
                        "POSITION" : 0,
                        "NORMAL" : 1,
                        "TEXCOORD_0" : 2
                    },
                    "indices" : 3,
                    "material": 12
                }
            ]
        },
        {
            "primitives" : [
                {
                    "attributes" : {
                        "POSITION" : 0,
                        "NORMAL" : 1,
                        "TEXCOORD_0" : 2
                    },
                    "indices" : 3,
                    "material": 13
                }
            ]
        },
        {
            "primitives" : [
                {
                    "attributes" : {
                        "POSITION" : 0,
                        "NORMAL" : 1,
                        "TEXCOORD_0" : 2
                    },
                    "indices" : 3,
                    "material": 14
                }
            ]
        },
        {
            "primitives" : [
                {
                    "attributes" : {
                        "POSITION" : 0,
                        "NORMAL" : 1,
                        "TEXCOORD_0" : 2
                    },
                    "indices" : 3,
                    "material": 15
                }
            ]
        },
        {
            "primitives" : [
                {
                    "attributes" : {
                        "POSITION" : 0,
                        "NORMAL" : 1,
                        "TEXCOORD_0" : 2
                    },
                    "indices" : 3,
                    "material": 16
                }
            ]
        },
        {
            "primitives" : [
                {
                    "attributes" : {
                        "POSITION" : 0,
                        "NORMAL" : 1,
                        "TEXCOORD_0" : 2
                    },
                    "indices" : 3,
                    "material": 17
                }
            ]
        },
        {
            "primitives" : [
                {
                    "attributes" : {
                        "POSITION" : 0,
                        "NORMAL" : 1,
                        "TEXCOORD_0" : 2
                    },
                    "indices" : 3,
                    "material": 18
                }
            ]
        }
    ],
    "materials" : [
        {
            "name": "varying transmission 1",
            "pbrMetallicRoughness" : {
                "baseColorFactor" : [1, 0, 0, 1],
                "metallicFactor": 0.0,
                "roughnessFactor": 0.0
            },
            "extensions": {
                "KHR_materials_transmission": {
                    "transmission": 0.0
                },
                "KHR_materials_ior": {
                    "ior": 1.3
                }
            }
        },
        {
            "name": "varying transmission 2",
            "pbrMetallicRoughness" : {
                "baseColorFactor" : [1, 0, 0, 1],
                "metallicFactor": 0.0,
                "roughnessFactor": 0.0
            },
            "extensions": {
                "KHR_materials_transmission": {
                    "transmission": 0.2
                },
                "KHR_materials_ior": {
                    "ior": 1.3
                }
            }
        },
        {
            "name": "varying transmission 3",
            "pbrMetallicRoughness" : {
                "baseColorFactor" : [1, 0, 0, 1],
                "metallicFactor": 0.0,
                "roughnessFactor": 0.0
            },
            "extensions": {
                "KHR_materials_transmission": {
                    "transmission": 0.4
                },
                "KHR_materials_ior": {
                    "ior": 1.3
                }
            }
        },
        {
            "name": "varying transmission 4",
            "pbrMetallicRoughness" : {
                "baseColorFactor" : [1, 0, 0, 1],
                "metallicFactor": 0.0,
                "roughnessFactor": 0.0
            },
            "extensions": {
                "KHR_materials_transmission": {
                    "transmission": 0.6
                },
                "KHR_materials_ior": {
                    "ior": 1.3
                }
            }
        },
        {
            "name": "varying transmission 5",
            "pbrMetallicRoughness" : {
                "baseColorFactor" : [1, 0, 0, 1],
                "metallicFactor": 0.0,
                "roughnessFactor": 0.0
            },
            "extensions": {
                "KHR_materials_transmission": {
                    "transmission": 0.8
                },
                "KHR_materials_ior": {
                    "ior": 1.3
                }
            }
        },
        {
            "name": "varying transmission 6",
            "pbrMetallicRoughness" : {
                "baseColorFactor" : [1, 0, 0, 1],
                "metallicFactor": 0.0,
                "roughnessFactor": 0.0
            },
            "extensions": {
                "KHR_materials_transmission": {
                    "transmission": 1.0
                },
                "KHR_materials_ior": {
                    "ior": 1.3
                }
            }
        },
        {
            "name": "varying ior 1",
            "pbrMetallicRoughness" : {
                "baseColorFactor" : [1, 0, 0, 1],
                "metallicFactor": 0.0,
                "roughnessFactor": 0.0
            },
            "extensions": {
                "KHR_materials_transmission": {
                    "transmission": 1.0
                },
                "KHR_materials_ior": {
                    "ior": 0.6
                }
            }
        },
        {
            "name": "varying ior 2",
            "pbrMetallicRoughness" : {
                "baseColorFactor" : [1, 0, 0, 1],
                "metallicFactor": 0.0,
                "roughnessFactor": 0.0
            },
            "extensions": {
                "KHR_materials_transmission": {
                    "transmission": 1.0
                },
                "KHR_materials_ior": {
                    "ior": 0.8
                }
            }
        },
        {
            "name": "varying ior 3",
            "pbrMetallicRoughness" : {
                "baseColorFactor" : [1, 0, 0, 1],
                "metallicFactor": 0.0,
                "roughnessFactor": 0.0
            },
            "extensions": {
                "KHR_materials_transmission": {
                    "transmission": 1.0
                },
                "KHR_materials_ior": {
                    "ior": 1.0
                }
            }
        },
        {
            "name": "varying ior 4",
            "pbrMetallicRoughness" : {
                "baseColorFactor" : [1, 0, 0, 1],
                "metallicFactor": 0.0,
                "roughnessFactor": 0.0
            },
            "extensions": {
                "KHR_materials_transmission": {
                    "transmission": 1.0
                },
                "KHR_materials_ior": {
                    "ior": 1.2
                }
            }
        },
        {
            "name": "varying ior 5",
            "pbrMetallicRoughness" : {
                "baseColorFactor" : [1, 0, 0, 1],
                "metallicFactor": 0.0,
                "roughnessFactor": 0.0
            },
            "extensions": {
                "KHR_materials_transmission": {
                    "transmission": 1.0
                },
                "KHR_materials_ior": {
                    "ior": 1.4
                }
            }
        },
        {
            "name": "varying ior 6",
            "pbrMetallicRoughness" : {
                "baseColorFactor" : [1, 0, 0, 1],
                "metallicFactor": 0.0,
                "roughnessFactor": 0.0
            },
            "extensions": {
                "KHR_materials_transmission": {
                    "transmission": 1.0
                },
                "KHR_materials_ior": {
                    "ior": 1.5
                }
            }
        },
        {
            "name": "varying roughness 1",
            "pbrMetallicRoughness" : {
                "baseColorFactor" : [1, 0, 0, 1],
                "metallicFactor": 0.0,
                "roughnessFactor": 0.0
            },
            "extensions": {
                "KHR_materials_transmission": {
                    "transmission": 1.0
                },
                "KHR_materials_ior": {
                    "ior": 1.3
                }
            }
        },
        {
            "name": "varying roughness 2",
            "pbrMetallicRoughness" : {
                "baseColorFactor" : [1, 0, 0, 1],
                "metallicFactor": 0.0,
                "roughnessFactor": 0.2
            },
            "extensions": {
                "KHR_materials_transmission": {
                    "transmission": 1.0
                },
                "KHR_materials_ior": {
                    "ior": 1.3
                }
            }
        },
        {
            "name": "varying roughness 3",
            "pbrMetallicRoughness" : {
                "baseColorFactor" : [1, 0, 0, 1],
                "metallicFactor": 0.0,
                "roughnessFactor": 0.4
            },
            "extensions": {
                "KHR_materials_transmission": {
                    "transmission": 1.0
                },
                "KHR_materials_ior": {
                    "ior": 1.3
                }
            }
        },
        {
            "name": "varying roughness 4",
            "pbrMetallicRoughness" : {
                "baseColorFactor" : [1, 0, 0, 1],
                "metallicFactor": 0.0,
                "roughnessFactor": 0.6
            },
            "extensions": {
                "KHR_materials_transmission": {
                    "transmission": 1.0
                },
                "KHR_materials_ior": {
                    "ior": 1.3
                }
            }
        },
        {
            "name": "varying roughness 5",
            "pbrMetallicRoughness" : {
                "baseColorFactor" : [1, 0, 0, 1],
                "metallicFactor": 0.0,
                "roughnessFactor": 0.8
            },
            "extensions": {
                "KHR_materials_transmission": {
                    "transmission": 1.0
                },
                "KHR_materials_ior": {
                    "ior": 1.3
                }
            }
        },
        {
            "name": "varying roughness 6",
            "pbrMetallicRoughness" : {
                "baseColorFactor" : [1, 0, 0, 1],
                "metallicFactor": 0.0,
                "roughnessFactor": 1.0
            },
            "extensions": {
                "KHR_materials_transmission": {
                    "transmission": 1.0
                },
                "KHR_materials_ior": {
                    "ior": 1.3
                }
            }
        },
        {
            "name": "varying size",
            "pbrMetallicRoughness" : {
                "baseColorFactor" : [1, 0, 0, 1],
                "metallicFactor": 0.0,
                "roughnessFactor": 0.0
            },
            "extensions": {
                "KHR_materials_transmission": {
                    "transmission": 1.0
                },
                "KHR_materials_ior": {
                    "ior": 1.3
                }
            }
        }
    ],
    "accessors" : [
        {
            "bufferView" : 0,
            "componentType" : 5126,
            "count" : 8383,
            "max" : [
                0.9999982714653015,
                1,
                0.9999966621398926
            ],
            "min" : [
                -0.9999975562095642,
                -1,
                -1
            ],
            "type" : "VEC3"
        },
        {
            "bufferView" : 1,
            "componentType" : 5126,
            "count" : 8383,
            "type" : "VEC3"
        },
        {
            "bufferView" : 2,
            "componentType" : 5126,
            "count" : 8383,
            "type" : "VEC2"
        },
        {
            "bufferView" : 3,
            "componentType" : 5123,
            "count" : 48384,
            "type" : "SCALAR"
        }
    ],
    "bufferViews" : [
        {
            "buffer" : 0,
            "byteLength" : 100596,
            "byteOffset" : 0
        },
        {
            "buffer" : 0,
            "byteLength" : 100596,
            "byteOffset" : 100596
        },
        {
            "buffer" : 0,
            "byteLength" : 67064,
            "byteOffset" : 201192
        },
        {
            "buffer" : 0,
            "byteLength" : 96768,
            "byteOffset" : 268256
        }
    ],
    "buffers" : [
        {
            "byteLength" : 365024,
            "uri" : "TransmissionSpheres.bin"
        }
    ],
    "extensionsUsed": [
        "KHR_materials_transmission",
        "KHR_materials_ior",
        "KHR_lights_punctual"
    ],
    "extensionsRequired": [
        "KHR_materials_transmission",
        "KHR_materials_ior",
        "KHR_lights_punctual"
    ]
}
