{
  "scenes" : {
    "scene0" : {
      "nodes" : [ "node0" ]
    }
  },
  "nodes" : {
    "node0" : {
      "meshes" : [ "mesh0" ]
    }
  },
  "meshes" : {
    "mesh0" : {
      "primitives" : [ {
        "attributes" : {
          "POSITION" : "positionsAccessor"
        },
        "indices" : "indicesAccessor",
        "material" : "simpleMaterial"
      } ]
    }
  },
  
  "materials" : {
    "simpleMaterial" : {
      "technique" : "simpleTechnique",
      "values" : {
        "emissionParameter" : [ 0.9, 0.5, 0.1, 1.0 ]
      }
    }
  },
  "techniques": {
    "simpleTechnique": {
      "program": "simpleProgram",
      "attributes": {
        "a_position": "positionParameter"
      },
      "uniforms": {
        "u_modelViewMatrix": "modelViewMatrixParameter",
        "u_projectionMatrix": "projectionMatrixParameter",
        "u_emission": "emissionParameter"
      },
      "parameters": {
        "modelViewMatrixParameter": {
          "type": 35676,
          "semantic": "MODELVIEW"
        },
        "projectionMatrixParameter": {
          "type": 35676,
          "semantic": "PROJECTION"
        },
        "emissionParameter": {
          "type": 35666,
          "value": [ 0.5, 0.5, 0.5, 1.0 ]
        },
        "positionParameter" : {
          "type": 35665,
          "semantic": "POSITION"
        }
      }
    }
  },
  "programs": {
    "simpleProgram": {
      "vertexShader": "simpleVertexShader",
      "fragmentShader": "simpleFragmentShader",
      "attributes": [
        "a_position"
      ]
    }
  },
  "shaders": {
    "simpleVertexShader": {
      "type": 35633,
      "uri": "simple.vert"
    },
    "simpleFragmentShader": {
      "type": 35632,
      "uri": "simple.frag"
    }
  },
  
  "buffers" : {
    "geometryBuffer" : {
      "uri" : "data:application/octet-stream;base64,",
      "byteLength" : 44
    }
  },
  "bufferViews" : {
    "indicesBufferView" : {
      "buffer" : "geometryBuffer",
      "byteOffset" : 0,
      "byteLength" : 6,
      "target" : 34963
    },
    "positionsBufferView" : {
      "buffer" : "geometryBuffer",
      "byteOffset" : 8,
      "byteLength" : 36,
      "target" : 34962
    }
  },
  "accessors" : {
    "indicesAccessor" : {
      "bufferView" : "indicesBufferView",
      "byteOffset" : 0,
      "componentType" : 5123,
      "count" : 3,
      "type" : "SCALAR",
      "max" : [ 2 ],
      "min" : [ 0 ]
    },
    "positionsAccessor" : {
      "bufferView" : "positionsBufferView",
      "byteOffset" : 0,
      "componentType" : 5126,
      "count" : 3,
      "type" : "VEC3",
      "max" : [ 1.0, 1.0, 0.0 ],
      "min" : [ 0.0, 0.0, 0.0 ]
    }
  },
  
  "asset" : {
    "version" : "1.1"
  }
}
