{
    "extensionsUsed": [
        "KHR_materials_thickness",
        "KHR_materials_transmission",
        "KHR_materials_ior",
        "KHR_materials_absorption"
    ],
    "extensionsRequired": [
        "KHR_materials_thickness",
        "KHR_materials_transmission",
        "KHR_materials_ior",
        "KHR_materials_absorption"
    ],
    "asset" : {
        "generator" : "Khronos glTF Blender I/O v1.1.46",
        "version" : "2.0"
    },
    "scene" : 0,
    "scenes" : [
        {
            "name" : "Scene",
            "nodes" : [
                0, 1, 2, 3
            ]
        }
    ],
    "nodes" : [
        {
            "mesh" : 0,
            "translation": [
                -1.5,
                1.3,
                0
            ]
        },
        {
            "mesh" : 1,
            "translation": [
                1.5,
                1.3,
                0
            ]
        },
        {
            "mesh" : 2,
            "translation": [
                -1.5,
                -1.3,
                0
            ]
        },
        {
            "mesh" : 3,
            "translation": [
                1.5,
                -1.3,
                0
            ]
        }
    ],
    "materials" : [
        {
            "name": "static thickness, no absorption",
            "pbrMetallicRoughness" : {
                "metallicFactor" : 0,
                "roughnessFactor" : 0
            },
            "extensions": {
                "KHR_materials_ior": {
                    "ior": 1.3
                },
                "KHR_materials_thickness": {
                    "thickness": 2.0
                },
                "KHR_materials_transmission": {
                    "transmission": 1.0
                }
            }
        },
        {
            "name": "thickness texture, no absorption",
            "pbrMetallicRoughness" : {
                "metallicFactor" : 0,
                "roughnessFactor" : 0
            },
            "extensions": {
                "KHR_materials_ior": {
                    "ior": 1.3
                },
                "KHR_materials_thickness": {
                    "thickness": 2.0,
                    "thicknessTexture": {
                        "index" : 0,
                        "texCoord" : 0
                    }
                },
                "KHR_materials_transmission": {
                    "transmission": 1.0
                }
            }
        },
        {
            "name": "static thickness, with absorption",
            "pbrMetallicRoughness" : {
                "metallicFactor" : 0,
                "roughnessFactor" : 0
            },
            "extensions": {
                "KHR_materials_ior": {
                    "ior": 1.3
                },
                "KHR_materials_thickness": {
                    "thickness": 2.0
                },
                "KHR_materials_transmission": {
                    "transmission": 1.0
                },
                "KHR_materials_absorption": {
                    "absorptionColor": [0.0, 0.36, 2.3]
                }
            }
        },
        {
            "name": "thickness texture, with absorption",
            "pbrMetallicRoughness" : {
                "metallicFactor" : 0,
                "roughnessFactor" : 0
            },
            "extensions": {
                "KHR_materials_ior": {
                    "ior": 1.3
                },
                "KHR_materials_thickness": {
                    "thickness": 2.0,
                    "thicknessTexture": {
                        "index" : 0,
                        "texCoord" : 0
                    }
                },
                "KHR_materials_transmission": {
                    "transmission": 1.0
                },
                "KHR_materials_absorption": {
                    "absorptionColor": [0.0, 0.36, 2.3]
                }
            }
        }
    ],
    "meshes" : [
        {
            "primitives" : [
                {
                    "attributes" : {
                        "POSITION" : 0,
                        "NORMAL" : 1,
                        "TEXCOORD_0" : 2
                    },
                    "indices" : 3,
                    "material" : 0
                }
            ]
        },
        {
            "primitives" : [
                {
                    "attributes" : {
                        "POSITION" : 0,
                        "NORMAL" : 1,
                        "TEXCOORD_0" : 2
                    },
                    "indices" : 3,
                    "material" : 1
                }
            ]
        },
        {
            "primitives" : [
                {
                    "attributes" : {
                        "POSITION" : 0,
                        "NORMAL" : 1,
                        "TEXCOORD_0" : 2
                    },
                    "indices" : 3,
                    "material" : 2
                }
            ]
        },
        {
            "primitives" : [
                {
                    "attributes" : {
                        "POSITION" : 0,
                        "NORMAL" : 1,
                        "TEXCOORD_0" : 2
                    },
                    "indices" : 3,
                    "material" : 3
                }
            ]
        }
    ],
    "textures" : [
        {
            "source" : 0
        }
    ],
    "images" : [
        {
            "mimeType" : "image/png",
            "name" : "ThicknessMap",
            "uri" : "ThicknessMap.png"
        }
    ],
    "accessors" : [
        {
            "bufferView" : 0,
            "componentType" : 5126,
            "count" : 11324,
            "max" : [
                1.328185796737671,
                0.9392361640930176,
                0.8211784362792969
            ],
            "min" : [
                -1.328185796737671,
                -0.9718220829963684,
                -0.7782661318778992
            ],
            "type" : "VEC3"
        },
        {
            "bufferView" : 1,
            "componentType" : 5126,
            "count" : 11324,
            "type" : "VEC3"
        },
        {
            "bufferView" : 2,
            "componentType" : 5126,
            "count" : 11324,
            "type" : "VEC2"
        },
        {
            "bufferView" : 3,
            "componentType" : 5123,
            "count" : 55824,
            "type" : "SCALAR"
        }
    ],
    "bufferViews" : [
        {
            "buffer" : 0,
            "byteLength" : 135888,
            "byteOffset" : 0
        },
        {
            "buffer" : 0,
            "byteLength" : 135888,
            "byteOffset" : 135888
        },
        {
            "buffer" : 0,
            "byteLength" : 90592,
            "byteOffset" : 271776
        },
        {
            "buffer" : 0,
            "byteLength" : 111648,
            "byteOffset" : 362368
        }
    ],
    "buffers" : [
        {
            "byteLength" : 474016,
            "uri" : "TransmissionSuzanne.bin"
        }
    ]
}
