{
    "extensionsUsed": [
        "KHR_materials_transmission",
        "KHR_lights_punctual"
    ],
    "extensionsRequired": [
        "KHR_materials_transmission",
        "KHR_lights_punctual"
    ],
    "asset" : {
        "generator" : "Khronos glTF Blender I/O v1.1.46",
        "version" : "2.0"
    },
    "extensions": {
        "KHR_lights_punctual": {
            "lights": [
                {
                    "color": [1.0, 1.0, 1.0],
                    "type": "point",
                    "intensity": 20.0
                },
                {
                    "color": [1.0, 1.0, 1.0],
                    "type": "point",
                    "intensity": 20.0
                }
            ]
        }
    },
    "scene" : 0,
    "scenes" : [
        {
            "name" : "Scene",
            "nodes" : [
                0, 1, 2
            ]
        }
    ],
    "nodes" : [
        {
            "name": "Monkey",
            "mesh": 0
        },
        {
            "name": "Light",
            "extensions": {
                "KHR_lights_punctual": {
                    "light": 0
                }
            },
            "translation": [
                1.0, 0.0, -2.0
            ]
        },
        {
            "name": "Light",
            "extensions": {
                "KHR_lights_punctual": {
                    "light": 1
                }
            },
            "translation": [
                -1.0, 0.0, -2.0
            ]
        }
    ],
    "materials" : [
        {
            "pbrMetallicRoughness" : {
                "metallicFactor" : 0,
                "roughnessFactor" : 0.1
            },
            "extensions": {
                "KHR_materials_transmission": {
                    "transmissionFactor": 1
                }
            }
        }
    ],
    "meshes" : [
        {
            "primitives" : [
                {
                    "attributes" : {
                        "POSITION" : 0,
                        "NORMAL" : 1,
                        "TEXCOORD_0" : 2
                    },
                    "indices" : 3,
                    "material" : 0
                }
            ]
        }
    ],
    "textures" : [
        {
            "source" : 0
        }
    ],
    "images" : [
        {
            "mimeType" : "image/png",
            "name" : "ThicknessMap",
            "uri" : "ThicknessMap.png"
        }
    ],
    "accessors" : [
        {
            "bufferView" : 0,
            "componentType" : 5126,
            "count" : 11151,
            "max" : [
                1.3186391592025757,
                0.9275127649307251,
                0.8188740611076355
            ],
            "min" : [
                -1.3186392784118652,
                -0.9669579863548279,
                -0.7583317160606384
            ],
            "type" : "VEC3"
        },
        {
            "bufferView" : 1,
            "componentType" : 5126,
            "count" : 11151,
            "type" : "VEC3"
        },
        {
            "bufferView" : 2,
            "componentType" : 5126,
            "count" : 11151,
            "type" : "VEC2"
        },
        {
            "bufferView" : 3,
            "componentType" : 5123,
            "count" : 55824,
            "type" : "SCALAR"
        }
    ],
    "bufferViews" : [
        {
            "buffer" : 0,
            "byteLength" : 133812,
            "byteOffset" : 0
        },
        {
            "buffer" : 0,
            "byteLength" : 133812,
            "byteOffset" : 133812
        },
        {
            "buffer" : 0,
            "byteLength" : 89208,
            "byteOffset" : 267624
        },
        {
            "buffer" : 0,
            "byteLength" : 111648,
            "byteOffset" : 356832
        }
    ],
    "buffers" : [
        {
            "byteLength" : 468480,
            "uri" : "TransmissionSuzanne.bin"
        }
    ]
}
