{
  "asset": {
    "version": "2.0",
    "extensions": {
      "KHR_xmp": {
        "packet": 0
      }
    },
    "generator": "Khronos Blender glTF 2.0 exporter"
  },
  "extensionsUsed": [
    "KHR_xmp"
  ],
  "accessors": [
    {
      "type": "SCALAR",
      "bufferView": 0,
      "min": [
        0
      ],
      "componentType": 5123,
      "count": 46356,
      "max": [
        14555
      ]
    },
    {
      "count": 14556,
      "bufferView": 1,
      "max": [
        0.9424954056739808,
        0.8128451108932495,
        0.900973916053772
      ],
      "type": "VEC3",
      "componentType": 5126,
      "min": [
        -0.947458565235138,
        -1.18715500831604,
        -0.9009949564933776
      ]
    },
    {
      "max": [
        1.0,
        1.0,
        1.0
      ],
      "type": "VEC3",
      "bufferView": 2,
      "componentType": 5126,
      "min": [
        -1.0,
        -1.0,
        -1.0
      ],
      "count": 14556
    },
    {
      "max": [
        0.9999759793281556,
        1.998665988445282
      ],
      "bufferView": 3,
      "min": [
        0.002448640065267682,
        1.0005531199858524
      ],
      "count": 14556,
      "componentType": 5126,
      "type": "VEC2"
    }
  ],
  "buffers": [
    {
      "uri": "DamagedHelmet.bin",
      "byteLength": 558504
    }
  ],
  "bufferViews": [
    {
      "byteLength": 92712,
      "target": 34963,
      "buffer": 0,
      "byteOffset": 0
    },
    {
      "target": 34962,
      "byteLength": 174672,
      "byteOffset": 92712,
      "buffer": 0
    },
    {
      "buffer": 0,
      "byteOffset": 267384,
      "byteLength": 174672,
      "target": 34962
    },
    {
      "byteLength": 116448,
      "buffer": 0,
      "target": 34962,
      "byteOffset": 442056
    }
  ],
  "images": [
    {
      "uri": "Default_albedo.jpg"
    },
    {
      "uri": "Default_metalRoughness.jpg"
    },
    {
      "uri": "Default_emissive.jpg"
    },
    {
      "uri": "Default_AO.jpg"
    },
    {
      "uri": "Default_normal.jpg"
    }
  ],
  "materials": [
    {
      "pbrMetallicRoughness": {
        "baseColorTexture": {
          "index": 0
        },
        "metallicRoughnessTexture": {
          "index": 1
        }
      },
      "normalTexture": {
        "index": 4
      },
      "occlusionTexture": {
        "index": 3
      },
      "emissiveTexture": {
        "index": 2
      },
      "emissiveFactor": [
        1.0,
        1.0,
        1.0
      ],
      "name": "Material_MR"
    }
  ],
  "meshes": [
    {
      "primitives": [
        {
          "attributes": {
            "NORMAL": 2,
            "POSITION": 1,
            "TEXCOORD_0": 3
          },
          "indices": 0,
          "material": 0
        }
      ],
      "name": "mesh_helmet_LP_13930damagedHelmet"
    }
  ],
  "nodes": [
    {
      "name": "node_damagedHelmet_-6514",
      "rotation": [
        0.7071068286895752,
        0.0,
        -0.0,
        0.7071068286895752
      ],
      "mesh": 0
    }
  ],
  "samplers": [
    {}
  ],
  "scene": 0,
  "scenes": [
    {
      "nodes": [
        0
      ],
      "name": "Scene"
    }
  ],
  "textures": [
    {
      "source": 0,
      "sampler": 0
    },
    {
      "source": 1,
      "sampler": 0
    },
    {
      "sampler": 0,
      "source": 2
    },
    {
      "sampler": 0,
      "source": 3
    },
    {
      "source": 4,
      "sampler": 0
    }
  ],
  "extensions": {
    "KHR_xmp": {
      "@context": {
        "dc": "http://purl.org/dc/elements/1.1/",
        "model3d": "https://schema.khronos.org/"
      },
      "packets": [
        {
          "dc:description": {
            "en-us": "The original model was built on an early draft of glTF 2.0 that did not become final. This new model has been imported and re-exported from Blender to bring it into alignment with the final release glTF 2.0 specification."
          },
          "dc:format": "model/gltf-binary",
          "dc:language": [
            "en"
          ],
          "dc:relation": [
            "https://www.khronos.org/",
            "https://sketchfab.com/models/b81008d513954189a063ff901f7abfe4"
          ],
          "dc:rights": {
            "en-us": "Battle Damaged Sci-fi Helmet - PBR by theblueturtle_(https://sketchfab.com/theblueturtle_), published under a Creative Commons Attribution-NonCommercial license."
          },
          "dc:title": {
            "en-us": "Damaged Helment"
          },
          "model3d:spdxLicense": "CC-BY-NC-4.0"
        }
      ]
    }
  }
}