{
  "accessors": [
    {
      "bufferView": 0,
      "byteOffset": 0,
      "count": 10043,
      "componentType": 5126,
      "type": "VEC3",
      "min": [
        -16.300094604492188,
        9.033549308776855,
        -10.842451095581056
      ],
      "max": [
        16.241558074951172,
        27.014854431152344,
        11.556707382202148
      ]
    },
    {
      "bufferView": 1,
      "byteOffset": 0,
      "count": 10043,
      "componentType": 5126,
      "type": "VEC3"
    },
    {
      "bufferView": 2,
      "byteOffset": 0,
      "count": 10043,
      "componentType": 5126,
      "type": "VEC2"
    },
    {
      "bufferView": 3,
      "byteOffset": 0,
      "count": 10043,
      "componentType": 5126,
      "type": "VEC2"
    },
    {
      "bufferView": 4,
      "byteOffset": 0,
      "count": 54336,
      "componentType": 5123,
      "type": "SCALAR"
    },
    {
      "bufferView": 5,
      "byteOffset": 0,
      "count": 1260,
      "componentType": 5126,
      "type": "VEC3",
      "min": [
        -11.935633659362791,
        12.748035430908203,
        -6.101945400238037
      ],
      "max": [
        11.88634204864502,
        22.92971420288086,
        6.981325149536133
      ]
    },
    {
      "bufferView": 6,
      "byteOffset": 0,
      "count": 1260,
      "componentType": 5126,
      "type": "VEC3"
    },
    {
      "bufferView": 7,
      "byteOffset": 0,
      "count": 1260,
      "componentType": 5126,
      "type": "VEC2"
    },
    {
      "bufferView": 8,
      "byteOffset": 0,
      "count": 1260,
      "componentType": 5126,
      "type": "VEC2"
    },
    {
      "bufferView": 9,
      "byteOffset": 0,
      "count": 5760,
      "componentType": 5123,
      "type": "SCALAR"
    },
    {
      "bufferView": 10,
      "byteOffset": 0,
      "count": 3638,
      "componentType": 5126,
      "type": "VEC3",
      "min": [
        -13.538185119628906,
        0.20269492268562317,
        -9.276620864868164
      ],
      "max": [
        13.538185119628906,
        20.35619354248047,
        8.850608825683594
      ]
    },
    {
      "bufferView": 11,
      "byteOffset": 0,
      "count": 3638,
      "componentType": 5126,
      "type": "VEC3"
    },
    {
      "bufferView": 12,
      "byteOffset": 0,
      "count": 3638,
      "componentType": 5126,
      "type": "VEC2"
    },
    {
      "bufferView": 13,
      "byteOffset": 0,
      "count": 3638,
      "componentType": 5126,
      "type": "VEC2"
    },
    {
      "bufferView": 14,
      "byteOffset": 0,
      "count": 17280,
      "componentType": 5123,
      "type": "SCALAR"
    },
    {
      "bufferView": 15,
      "byteOffset": 0,
      "count": 2520,
      "componentType": 5126,
      "type": "VEC3",
      "min": [
        -13.383905410766602,
        -0.0027471594512462616,
        -9.42262077331543
      ],
      "max": [
        13.383905410766602,
        19.74336051940918,
        8.693817138671875
      ]
    },
    {
      "bufferView": 16,
      "byteOffset": 0,
      "count": 2520,
      "componentType": 5126,
      "type": "VEC3"
    },
    {
      "bufferView": 17,
      "byteOffset": 0,
      "count": 2520,
      "componentType": 5126,
      "type": "VEC2"
    },
    {
      "bufferView": 18,
      "byteOffset": 0,
      "count": 2520,
      "componentType": 5126,
      "type": "VEC2"
    },
    {
      "bufferView": 19,
      "byteOffset": 0,
      "count": 11520,
      "componentType": 5123,
      "type": "SCALAR"
    },
    {
      "bufferView": 20,
      "byteOffset": 0,
      "count": 2278,
      "componentType": 5126,
      "type": "VEC3",
      "min": [
        -15.395095825195312,
        0.1660308837890625,
        -11.792996406555176
      ],
      "max": [
        15.395095825195312,
        16.809520721435547,
        8.182746887207031
      ]
    },
    {
      "bufferView": 21,
      "byteOffset": 0,
      "count": 2278,
      "componentType": 5126,
      "type": "VEC3"
    },
    {
      "bufferView": 22,
      "byteOffset": 0,
      "count": 2278,
      "componentType": 5126,
      "type": "VEC2"
    },
    {
      "bufferView": 23,
      "byteOffset": 0,
      "count": 2278,
      "componentType": 5126,
      "type": "VEC2"
    },
    {
      "bufferView": 24,
      "byteOffset": 0,
      "count": 12096,
      "componentType": 5123,
      "type": "SCALAR"
    }
  ],
  "asset": {
    "generator": "Khronos glTF Blender I/O v1.2.75",
    "version": "2.0"
  },
  "buffers": [
    {
      "name": "chairs",
      "byteLength": 991544,
      "uri": "data:application/octet-stream;base64,"
    }
  ],
  "bufferViews": [
    {
      "buffer": 0,
      "byteLength": 120516,
      "byteOffset": 0,
      "byteStride": 12,
      "target": 34962
    },
    {
      "buffer": 0,
      "byteLength": 120516,
      "byteOffset": 120516,
      "byteStride": 12,
      "target": 34962
    },
    {
      "buffer": 0,
      "byteLength": 80344,
      "byteOffset": 241032,
      "byteStride": 8,
      "target": 34962
    },
    {
      "buffer": 0,
      "byteLength": 80344,
      "byteOffset": 321376,
      "byteStride": 8,
      "target": 34962
    },
    {
      "buffer": 0,
      "byteLength": 108672,
      "byteOffset": 401720,
      "target": 34963
    },
    {
      "buffer": 0,
      "byteLength": 15120,
      "byteOffset": 510392,
      "byteStride": 12,
      "target": 34962
    },
    {
      "buffer": 0,
      "byteLength": 15120,
      "byteOffset": 525512,
      "byteStride": 12,
      "target": 34962
    },
    {
      "buffer": 0,
      "byteLength": 10080,
      "byteOffset": 540632,
      "byteStride": 8,
      "target": 34962
    },
    {
      "buffer": 0,
      "byteLength": 10080,
      "byteOffset": 550712,
      "byteStride": 8,
      "target": 34962
    },
    {
      "buffer": 0,
      "byteLength": 11520,
      "byteOffset": 560792,
      "target": 34963
    },
    {
      "buffer": 0,
      "byteLength": 43656,
      "byteOffset": 572312,
      "byteStride": 12,
      "target": 34962
    },
    {
      "buffer": 0,
      "byteLength": 43656,
      "byteOffset": 615968,
      "byteStride": 12,
      "target": 34962
    },
    {
      "buffer": 0,
      "byteLength": 29104,
      "byteOffset": 659624,
      "byteStride": 8,
      "target": 34962
    },
    {
      "buffer": 0,
      "byteLength": 29104,
      "byteOffset": 688728,
      "byteStride": 8,
      "target": 34962
    },
    {
      "buffer": 0,
      "byteLength": 34560,
      "byteOffset": 717832,
      "target": 34963
    },
    {
      "buffer": 0,
      "byteLength": 30240,
      "byteOffset": 752392,
      "byteStride": 12,
      "target": 34962
    },
    {
      "buffer": 0,
      "byteLength": 30240,
      "byteOffset": 782632,
      "byteStride": 12,
      "target": 34962
    },
    {
      "buffer": 0,
      "byteLength": 20160,
      "byteOffset": 812872,
      "byteStride": 8,
      "target": 34962
    },
    {
      "buffer": 0,
      "byteLength": 20160,
      "byteOffset": 833032,
      "byteStride": 8,
      "target": 34962
    },
    {
      "buffer": 0,
      "byteLength": 23040,
      "byteOffset": 853192,
      "target": 34963
    },
    {
      "buffer": 0,
      "byteLength": 27336,
      "byteOffset": 876232,
      "byteStride": 12,
      "target": 34962
    },
    {
      "buffer": 0,
      "byteLength": 27336,
      "byteOffset": 903568,
      "byteStride": 12,
      "target": 34962
    },
    {
      "buffer": 0,
      "byteLength": 18224,
      "byteOffset": 930904,
      "byteStride": 8,
      "target": 34962
    },
    {
      "buffer": 0,
      "byteLength": 18224,
      "byteOffset": 949128,
      "byteStride": 8,
      "target": 34962
    },
    {
      "buffer": 0,
      "byteLength": 24192,
      "byteOffset": 967352,
      "target": 34963
    }
  ],
  "scene": 0,
  "extensionsUsed": [
    "KHR_texture_transform",
    "KHR_materials_variants"
  ],
  "extensions": {
    "KHR_materials_variants": {
      "variants": [
          {"name": "white_fabric_oak_legs"},
          {"name": "white_fabric_walnut_legs"},
          {"name": "red_fabric_oak_legs"},
          {"name": "red_fabric_walnut_legs"}
        ]
    }
  },
  "extensionsRequired": [
    "KHR_texture_transform"
  ],
  "images": [
    {
      "mimeType": "image/jpeg",
      "name": "Image_0",
      "uri": "Image_0.jpg"
    },
    {
      "mimeType": "image/jpeg",
      "name": "Image_2",
      "uri": "Image_2.jpg"
    },
    {
      "mimeType": "image/jpeg",
      "name": "Image_3",
      "uri": "Image_3.jpg"
    },
    {
      "mimeType": "image/jpeg",
      "name": "Image_1-Image_4",
      "uri": "Image_1-Image_4.jpg"
    }
  ],
  "materials": [
    {
      "alphaMode": "OPAQUE",
      "doubleSided": false,
      "name": "whitefabric",
      "pbrMetallicRoughness": {
        "baseColorFactor": [
          0.924312,
          0.9067517,
          1,
          1
        ],
        "baseColorTexture": {
          "index": 1,
          "texCoord": 0,
          "extensions": {
            "KHR_texture_transform": {
              "offset": [
                -3.5,
                3.5
              ],
              "scale": [
                8,
                8
              ]
            }
          }
        },
        "metallicFactor": 1,
        "roughnessFactor": 0.7
      },
      "normalTexture": {
        "index": 0,
        "scale": 1,
        "texCoord": 0,
        "extensions": {
          "KHR_texture_transform": {
            "offset": [
              0.1339746461270479,
              0.8660254313286737
            ],
            "rotation": 0.5235987901687622,
            "scale": [
              2,
              2
            ]
          }
        }
      },
      "emissiveFactor": [
        0,
        0,
        0
      ]
    },
    {
      "alphaMode": "OPAQUE",
      "doubleSided": false,
      "name": "metal",
      "pbrMetallicRoughness": {
        "baseColorFactor": [
          0.2509804,
          0.2509804,
          0.2509804,
          1
        ],
        "metallicFactor": 1,
        "roughnessFactor": 1
      },
      "emissiveFactor": [
        0,
        0,
        0
      ]
    },
    {
      "alphaMode": "OPAQUE",
      "doubleSided": false,
      "name": "walnut",
      "pbrMetallicRoughness": {
        "baseColorFactor": [
          0.076185435,
          0.020288551,
          0.011612248,
          1
        ],
        "baseColorTexture": {
          "index": 2,
          "texCoord": 0,
          "extensions": {
            "KHR_texture_transform": {
              "offset": [
                -0.8635583765172254,
                1.125025697811076
              ],
              "rotation": 0.0872664675116539,
              "scale": [
                3,
                3
              ]
            }
          }
        },
        "metallicFactor": 1,
        "roughnessFactor": 1,
        "metallicRoughnessTexture": {
          "index": 3,
          "texCoord": 1
        }
      },
      "emissiveFactor": [
        0,
        0,
        0
      ]
    },
    {
      "alphaMode": "OPAQUE",
      "doubleSided": false,
      "name": "darkwood",
      "pbrMetallicRoughness": {
        "baseColorFactor": [
          0,
          0,
          0,
          1
        ],
        "metallicFactor": 1,
        "roughnessFactor": 1
      },
      "emissiveFactor": [
        0,
        0,
        0
      ]
    },
    {
      "alphaMode": "OPAQUE",
      "doubleSided": false,
      "name": "oak",
      "pbrMetallicRoughness": {
        "baseColorFactor": [
          0.3762623,
          0.25415206,
          0.1946179,
          1
        ],
        "baseColorTexture": {
          "index": 2,
          "texCoord": 0,
          "extensions": {
            "KHR_texture_transform": {
              "offset": [
                -0.8635583765172254,
                1.125025697811076
              ],
              "rotation": 0.0872664675116539,
              "scale": [
                3,
                3
              ]
            }
          }
        },
        "metallicFactor": 1,
        "roughnessFactor": 1,
        "metallicRoughnessTexture": {
          "index": 3,
          "texCoord": 1
        }
      },
      "emissiveFactor": [
        0,
        0,
        0
      ]
    },
    {
      "alphaMode": "OPAQUE",
      "doubleSided": false,
      "name": "whitefabric",
      "pbrMetallicRoughness": {
        "baseColorFactor": [
          0.17642328,
          0.008974836,
          0.017198503,
          1
        ],
        "baseColorTexture": {
          "index": 1,
          "texCoord": 0,
          "extensions": {
            "KHR_texture_transform": {
              "offset": [
                -3.5,
                3.5
              ],
              "scale": [
                8,
                8
              ]
            }
          }
        },
        "metallicFactor": 1,
        "roughnessFactor": 0.7
      },
      "normalTexture": {
        "index": 0,
        "scale": 1,
        "texCoord": 0,
        "extensions": {
          "KHR_texture_transform": {
            "offset": [
              0.1339746461270479,
              0.8660254313286737
            ],
            "rotation": 0.5235987901687622,
            "scale": [
              2,
              2
            ]
          }
        }
      },
      "emissiveFactor": [
        0,
        0,
        0
      ]
    }
  ],
  "meshes": [
    {
      "name": "fabric",
      "primitives": [
        {
          "attributes": {
            "TEXCOORD_1": 3,
            "TEXCOORD_0": 2,
            "NORMAL": 1,
            "POSITION": 0
          },
          "extensions": {
            "KHR_materials_variants": {
              "mappings": [
                {
                  "material": 0,
                  "variants": [
                    0,
                    1
                  ]
                },
                {
                  "material": 5,
                  "variants": [
                    3,
                    2
                  ]
                }
              ]
            }
          },
          "indices": 4,
          "material": 0,
          "mode": 4
        }
      ]
    },
    {
      "name": "buttons",
      "primitives": [
        {
          "attributes": {
            "TEXCOORD_0": 7,
            "POSITION": 5,
            "NORMAL": 6,
            "TEXCOORD_1": 8
          },
          "extensions": {
            "KHR_materials_variants": {
              "mappings": [
                {
                  "material": 1,
                  "variants": [
                    0,
                    3,
                    2,
                    1
                  ]
                }
              ]
            }
          },
          "indices": 9,
          "material": 1,
          "mode": 4
        }
      ]
    },
    {
      "name": "frame",
      "primitives": [
        {
          "attributes": {
            "TEXCOORD_1": 13,
            "TEXCOORD_0": 12,
            "NORMAL": 11,
            "POSITION": 10
          },
          "extensions": {
            "KHR_materials_variants": {
              "mappings": [
                {
                  "material": 2,
                  "variants": [
                    1,
                    3
                  ]
                },
                {
                  "material": 4,
                  "variants": [
                    0,
                    2
                  ]
                }
              ]
            }
          },
          "indices": 14,
          "material": 2,
          "mode": 4
        }
      ]
    },
    {
      "name": "hardware",
      "primitives": [
        {
          "attributes": {
            "POSITION": 15,
            "NORMAL": 16,
            "TEXCOORD_0": 17,
            "TEXCOORD_1": 18
          },
          "extensions": {
            "KHR_materials_variants": {
              "mappings": [
                {
                  "material": 1,
                  "variants": [
                    3,
                    0,
                    2,
                    1
                  ]
                }
              ]
            }
          },
          "indices": 19,
          "material": 1,
          "mode": 4
        }
      ]
    },
    {
      "name": "panels",
      "primitives": [
        {
          "attributes": {
            "POSITION": 20,
            "TEXCOORD_0": 22,
            "NORMAL": 21,
            "TEXCOORD_1": 23
          },
          "extensions": {
            "KHR_materials_variants": {
              "mappings": [
                {
                  "material": 3,
                  "variants": [
                    0,
                    3,
                    2,
                    1
                  ]
                }
              ]
            }
          },
          "indices": 24,
          "material": 3,
          "mode": 4
        }
      ]
    }
  ],
  "nodes": [
    {
      "mesh": 0,
      "name": "fabric",
      "scale": [
        0.100000024,
        0.100000024,
        0.100000024
      ],
      "translation": [
        -0.013415694,
        0.0039815903,
        0.010253847
      ],
      "rotation": [
        0,
        0,
        0,
        1
      ]
    },
    {
      "mesh": 1,
      "name": "buttons",
      "scale": [
        0.100000024,
        0.100000024,
        0.100000024
      ],
      "translation": [
        -0.013415694,
        0.0039815903,
        0.010253847
      ],
      "rotation": [
        0,
        0,
        0,
        1
      ]
    },
    {
      "mesh": 2,
      "name": "frame",
      "scale": [
        0.100000024,
        0.100000024,
        0.100000024
      ],
      "translation": [
        -0.013415694,
        0.0039815903,
        0.010253847
      ],
      "rotation": [
        0,
        0,
        0,
        1
      ]
    },
    {
      "mesh": 3,
      "name": "hardware",
      "scale": [
        0.100000024,
        0.100000024,
        0.100000024
      ],
      "translation": [
        -0.013415694,
        0.0039815903,
        0.010253847
      ],
      "rotation": [
        0,
        0,
        0,
        1
      ]
    },
    {
      "mesh": 4,
      "name": "panels",
      "rotation": [
        -0.04361938,
        0,
        0,
        0.99904823
      ],
      "scale": [
        0.100000024,
        0.100000024,
        0.100000024
      ],
      "translation": [
        -0.0160259,
        0.94523716,
        0.24490243
      ]
    }
  ],
  "scenes": [
    {
      "name": "Scene",
      "nodes": [
        0,
        1,
        2,
        3,
        4
      ]
    }
  ],
  "textures": [
    {
      "source": 0
    },
    {
      "source": 1
    },
    {
      "source": 2
    },
    {
      "source": 3
    }
  ]
}
