{
  "accessors": [
    {
      "bufferView": 0,
      "byteOffset": 0,
      "componentType": 5126,
      "count": 926,
      "type": "VEC2",
      "max": [
        0.992169142,
        -0.007998445
      ],
      "min": [
        0.0107366741,
        -0.992534757
      ]
    },
    {
      "bufferView": 1,
      "byteOffset": 0,
      "componentType": 5126,
      "count": 926,
      "type": "VEC3",
      "max": [
        1.0,
        1.0,
        1.0
      ],
      "min": [
        -1.0,
        -1.0,
        -1.0
      ]
    },
    {
      "bufferView": 2,
      "byteOffset": 0,
      "componentType": 5126,
      "count": 926,
      "type": "VEC3",
      "max": [
        7.74559927,
        12.8321095,
        2.31570983
      ],
      "min": [
        -7.74559927,
        -12.8321095,
        -2.31570983
      ]
    },
    {
      "bufferView": 3,
      "byteOffset": 0,
      "componentType": 5123,
      "count": 2616,
      "type": "SCALAR",
      "max": [
        925
      ],
      "min": [
        0
      ]
    },
    {
      "bufferView": 4,
      "byteOffset": 0,
      "componentType": 5126,
      "count": 756,
      "type": "VEC2",
      "max": [
        0.8007193,
        -0.0581455827
      ],
      "min": [
        0.351246148,
        -0.361011624
      ]
    },
    {
      "bufferView": 5,
      "byteOffset": 0,
      "componentType": 5126,
      "count": 756,
      "type": "VEC3",
      "max": [
        1.0,
        1.0,
        0.999998
      ],
      "min": [
        -1.0,
        -1.0,
        -0.999998
      ]
    },
    {
      "bufferView": 6,
      "byteOffset": 0,
      "componentType": 5126,
      "count": 756,
      "type": "VEC3",
      "max": [
        0.129208073,
        0.6523504,
        0.129208073
      ],
      "min": [
        -0.129208073,
        -0.6523504,
        -0.129208073
      ]
    },
    {
      "bufferView": 7,
      "byteOffset": 0,
      "componentType": 5123,
      "count": 3744,
      "type": "SCALAR",
      "max": [
        755
      ],
      "min": [
        0
      ]
    },
    {
      "bufferView": 8,
      "byteOffset": 0,
      "componentType": 5126,
      "count": 2463,
      "type": "VEC2",
      "max": [
        0.9923278,
        -0.00728821754
      ],
      "min": [
        0.3673209,
        -0.413352221
      ]
    },
    {
      "bufferView": 9,
      "byteOffset": 0,
      "componentType": 5126,
      "count": 2463,
      "type": "VEC3",
      "max": [
        1.0,
        1.0,
        1.0
      ],
      "min": [
        -1.0,
        -1.0,
        -1.0
      ]
    },
    {
      "bufferView": 10,
      "byteOffset": 0,
      "componentType": 5126,
      "count": 2463,
      "type": "VEC3",
      "max": [
        1.03408229,
        2.529281,
        1.03408468
      ],
      "min": [
        -1.03408229,
        -2.529281,
        -1.03408468
      ]
    },
    {
      "bufferView": 11,
      "byteOffset": 0,
      "componentType": 5123,
      "count": 9822,
      "type": "SCALAR",
      "max": [
        2462
      ],
      "min": [
        0
      ]
    }
  ],
  "asset": {
    "generator": "glTF Tools for Unity",
    "version": "2.0"
  },
  "bufferViews": [
    {
      "buffer": 0,
      "byteOffset": 0,
      "byteLength": 7408,
      "target": 34962
    },
    {
      "buffer": 0,
      "byteOffset": 7408,
      "byteLength": 11112,
      "target": 34962
    },
    {
      "buffer": 0,
      "byteOffset": 18520,
      "byteLength": 11112,
      "target": 34962
    },
    {
      "buffer": 0,
      "byteOffset": 29632,
      "byteLength": 5232,
      "target": 34962
    },
    {
      "buffer": 0,
      "byteOffset": 34864,
      "byteLength": 6048,
      "target": 34962
    },
    {
      "buffer": 0,
      "byteOffset": 40912,
      "byteLength": 9072,
      "target": 34962
    },
    {
      "buffer": 0,
      "byteOffset": 49984,
      "byteLength": 9072,
      "target": 34962
    },
    {
      "buffer": 0,
      "byteOffset": 59056,
      "byteLength": 7488,
      "target": 34962
    },
    {
      "buffer": 0,
      "byteOffset": 66544,
      "byteLength": 19704,
      "target": 34962
    },
    {
      "buffer": 0,
      "byteOffset": 86248,
      "byteLength": 29556,
      "target": 34962
    },
    {
      "buffer": 0,
      "byteOffset": 115804,
      "byteLength": 29556,
      "target": 34962
    },
    {
      "buffer": 0,
      "byteOffset": 145360,
      "byteLength": 19644,
      "target": 34962
    }
  ],
  "buffers": [
    {
      "uri": "Lantern.bin",
      "byteLength": 165004
    }
  ],
  "extensionsUsed": [],
  "images": [
    {
      "uri": "Lantern_baseColor.png"
    },
    {
      "uri": "Lantern_metallicRoughness.png"
    },
    {
      "uri": "Lantern_normal.png"
    },
    {
      "uri": "Lantern_emissive.png"
    }
  ],
  "meshes": [
    {
      "primitives": [
        {
          "attributes": {
            "TEXCOORD_0": 0,
            "NORMAL": 1,
            "POSITION": 2
          },
          "indices": 3,
          "material": 0,
          "mode": 4
        }
      ],
      "name": "LanternPole_Body"
    },
    {
      "primitives": [
        {
          "attributes": {
            "TEXCOORD_0": 4,
            "NORMAL": 5,
            "POSITION": 6
          },
          "indices": 7,
          "material": 0,
          "mode": 4
        }
      ],
      "name": "LanternPole_Chain"
    },
    {
      "primitives": [
        {
          "attributes": {
            "TEXCOORD_0": 8,
            "NORMAL": 9,
            "POSITION": 10
          },
          "indices": 11,
          "material": 0,
          "mode": 4
        }
      ],
      "name": "LanternPole_Lantern"
    }
  ],
  "materials": [
    {
      "pbrMetallicRoughness": {
        "baseColorFactor": [
          0.214041144,
          0.214041144,
          0.214041144,
          1.0
        ],
        "baseColorTexture": {
          "index": 0
        },
        "metallicRoughnessTexture": {
          "index": 1
        }
      },
      "normalTexture": {
        "index": 2
      },
      "emissiveFactor": [
        1.0,
        1.0,
        1.0
      ],
      "emissiveTexture": {
        "index": 3
      },
      "name": "LanternPost_Mat"
    }
  ],
  "nodes": [
    {
      "children": [],
      "mesh": 0,
      "translation": [
        -3.82315421,
        13.01603,
        0.0
      ],
      "name": "LanternPole_Body"
    },
    {
      "children": [],
      "mesh": 1,
      "translation": [
        -9.582001,
        21.0378723,
        0.0
      ],
      "name": "LanternPole_Chain"
    },
    {
      "children": [],
      "mesh": 2,
      "translation": [
        -9.582007,
        18.0091515,
        0.0
      ],
      "name": "LanternPole_Lantern"
    },
    {
      "children": [
        0,
        1,
        2
      ],
      "scale": [
        0.06,
        0.06,
        0.06
      ],
      "translation": [
        0.237,
        -0.758,
        0.0
      ],
      "name": "Lantern"
    }
  ],
  "samplers": [
    {}
  ],
  "scene": 0,
  "scenes": [
    {
      "nodes": [
        3
      ]
    }
  ],
  "textures": [
    {
      "sampler": 0,
      "source": 0
    },
    {
      "sampler": 0,
      "source": 1
    },
    {
      "sampler": 0,
      "source": 2
    },
    {
      "sampler": 0,
      "source": 3
    }
  ]
}