{
  "accessors": {
    "accessor_21": {
      "bufferView": "bufferView_1",
      "byteOffset": 0,
      "byteStride": 0,
      "componentType": 5123,
      "count": 36,
      "type": "SCALAR",
      "min": [
        0
      ],
      "max": [
        23
      ]
    },
    "accessor_23": {
      "bufferView": "bufferView_0",
      "byteOffset": 0,
      "byteStride": 0,
      "componentType": 5126,
      "count": 24,
      "max": [
        0.5,
        0.5,
        0.5
      ],
      "min": [
        -0.5,
        -0.5,
        -0.5
      ],
      "type": "VEC3"
    },
    "accessor_25": {
      "bufferView": "bufferView_0",
      "byteOffset": 288,
      "byteStride": 0,
      "componentType": 5126,
      "count": 24,
      "max": [
        1,
        1,
        1
      ],
      "min": [
        -1,
        -1,
        -1
      ],
      "type": "VEC3"
    }
  },
  "animations": {},
  "asset": {
    "generator": "collada2gltf@027f74366341d569dea42e9a68b7104cc3892054",
    "premultipliedAlpha": true,
    "profile": {
      "api": "WebGL",
      "version": "1.0.2"
    },
    "version": "1.0"
  },
  "bufferViews": {
    "bufferView_0": {
      "buffer": "Box",
      "byteLength": 576,
      "byteOffset": 0,
      "target": 34962
    },
    "bufferView_1": {
      "buffer": "Box",
      "byteLength": 72,
      "byteOffset": 576,
      "target": 34963
    }
  },
  "buffers": {
    "Box": {
      "type": "arraybuffer",
      "byteLength": 648,
      "uri": "data:application/octet-stream;base64,"
    }
  },
  "materials": {
    "Effect-Red": {
      "name": "Red",
      "extensions": {
        "KHR_materials_common": {
          "doubleSided": false,
          "technique": "PHONG",
          "values": {
            "diffuse": [
              0.8,
              0,
              0,
              1
            ],
            "shininess": 256,
            "specular": [
              0.2,
              0.2,
              0.2,
              1
            ]
          }
        }
      }
    }
  },
  "meshes": {
    "Geometry-mesh002": {
      "name": "Mesh",
      "primitives": [
        {
          "attributes": {
            "NORMAL": "accessor_25",
            "POSITION": "accessor_23"
          },
          "indices": "accessor_21",
          "material": "Effect-Red",
          "mode": 4
        }
      ]
    }
  },
  "nodes": {
    "rootNode": {
      "children": [],
      "meshes": [
        "Geometry-mesh002"
      ],
      "matrix": [
        1,
        0,
        0,
        0,
        0,
        1,
        0,
        0,
        0,
        0,
        1,
        0,
        0,
        0,
        0,
        1
      ]
    }
  },
  "scene": "defaultScene",
  "scenes": {
    "defaultScene": {
      "nodes": [
        "rootNode"
      ]
    }
  },
  "skins": {},
  "extensionsUsed": [
    "KHR_materials_common"
  ],
  "cameras": {},
  "images": {},
  "samplers": {},
  "textures": {},
  "extensions": {
    "KHR_materials_common": {
      "lights": {
        "defaultAmbient": {
          "ambient": {
            "color": [
              1,
              1,
              1
            ]
          },
          "name": "defaultAmbient",
          "type": "ambient"
        }
      }
    }
  }
}
