{
    "asset": {
        "generator": "COLLADA2GLTF",
        "version": "2.0"
    },
    "scene": 0,
    "scenes": [
        {
            "nodes": [
                0
            ]
        }
    ],
    "nodes": [
        {
            "mesh": 0
        }
    ],
    "meshes": [
        {
            "primitives": [
                {
                    "attributes": {
                        "COLOR_0": 1,
                        "NORMAL": 2,
                        "POSITION": 3,
                        "TEXCOORD_0": 4
                    },
                    "indices": 0,
                    "mode": 4,
                    "material": 0
                }
            ],
            "name": "meshId0_name"
        }
    ],
    "accessors": [
        {
            "bufferView": 0,
            "byteOffset": 0,
            "componentType": 5123,
            "count": 14592,
            "max": [
                2550
            ],
            "min": [
                0
            ],
            "type": "SCALAR"
        },
        {
            "bufferView": 1,
            "byteOffset": 0,
            "componentType": 5126,
            "count": 2551,
            "max": [
                0.0,
                0.0,
                0.0
            ],
            "min": [
                0.0,
                0.0,
                0.0
            ],
            "type": "VEC3"
        },
        {
            "bufferView": 1,
            "byteOffset": 30612,
            "componentType": 5126,
            "count": 2551,
            "max": [
                0.9999155402183532,
                0.9999614953994752,
                0.999551236629486
            ],
            "min": [
                -0.9999155402183532,
                -0.9979230761528016,
                -0.9998226761817932
            ],
            "type": "VEC3"
        },
        {
            "bufferView": 1,
            "byteOffset": 61224,
            "componentType": 5126,
            "count": 2551,
            "max": [
                0.8106791973114014,
                0.8187642097473145,
                0.7583367228507996
            ],
            "min": [
                -0.8106791973114014,
                -0.8187641501426697,
                -0.8632782101631165
            ],
            "type": "VEC3"
        },
        {
            "bufferView": 2,
            "byteOffset": 0,
            "componentType": 5126,
            "count": 2551,
            "max": [
                0.991733968257904,
                0.98796808719635
            ],
            "min": [
                0.011699199676513672,
                0.0060114264488220219
            ],
            "type": "VEC2"
        }
    ],
    "materials": [
        {
            "values": {
                "ambient": [
                    0.0,
                    0.0,
                    0.0,
                    1.0
                ],
                "diffuse": [
                    0
                ],
                "emission": [
                    0.0,
                    0.0,
                    0.0,
                    1.0
                ],
                "specular": [
                    1
                ],
                "shininess": [
                    20.0
                ],
                "transparency": [
                    1.0
                ]
            },
            "technique": 0
        }
    ],
    "textures": [
        {
            "sampler": 0,
            "source": 0
        },
        {
            "sampler": 0,
            "source": 1
        }
    ],
    "images": [
        {
            "uri": "SmilingFace_texture_0001.jpg"
        },
        {
            "uri": "SmilingFace_texture_0002.jpg"
        }
    ],
    "samplers": [
        {
            "magFilter": 9729,
            "minFilter": 9986,
            "wrapS": 10497,
            "wrapT": 10497
        }
    ],
    "techniques": [
        {
            "attributes": {
                "a_color0": "color0",
                "a_normal": "normal",
                "a_position": "position",
                "a_texcoord0": "texcoord0"
            },
            "parameters": {
                "ambient": {
                    "type": 35666
                },
                "color0": {
                    "semantic": "COLOR_0",
                    "type": 35665
                },
                "diffuse": {
                    "type": 35678
                },
                "emission": {
                    "type": 35666
                },
                "modelViewMatrix": {
                    "semantic": "MODELVIEW",
                    "type": 35676
                },
                "normal": {
                    "semantic": "NORMAL",
                    "type": 35665
                },
                "normalMatrix": {
                    "semantic": "MODELVIEWINVERSETRANSPOSE",
                    "type": 35675
                },
                "position": {
                    "semantic": "POSITION",
                    "type": 35665
                },
                "projectionMatrix": {
                    "semantic": "PROJECTION",
                    "type": 35676
                },
                "shininess": {
                    "type": 5126
                },
                "specular": {
                    "type": 35678
                },
                "texcoord0": {
                    "semantic": "TEXCOORD_0",
                    "type": 35665
                },
                "transparency": {
                    "type": 5126
                }
            },
            "program": 0,
            "states": {
                "enable": [
                    2884,
                    2929
                ]
            },
            "uniforms": {
                "u_ambient": "ambient",
                "u_diffuse": "diffuse",
                "u_emission": "emission",
                "u_modelViewMatrix": "modelViewMatrix",
                "u_normalMatrix": "normalMatrix",
                "u_projectionMatrix": "projectionMatrix",
                "u_shininess": "shininess",
                "u_specular": "specular",
                "u_transparency": "transparency"
            }
        }
    ],
    "programs": [
        {
            "attributes": [
                "a_color0",
                "a_normal",
                "a_position",
                "a_texcoord0"
            ],
            "fragmentShader": 1,
            "vertexShader": 0
        }
    ],
    "shaders": [
        {
            "type": 35633,
            "uri": "SmilingFace0.vert"
        },
        {
            "type": 35632,
            "uri": "SmilingFace1.frag"
        }
    ],
    "bufferViews": [
        {
            "buffer": 0,
            "byteOffset": 112244,
            "byteLength": 29184,
            "target": 34963
        },
        {
            "buffer": 0,
            "byteOffset": 0,
            "byteLength": 91836,
            "byteStride": 12,
            "target": 34962
        },
        {
            "buffer": 0,
            "byteOffset": 91836,
            "byteLength": 20408,
            "byteStride": 8,
            "target": 34962
        }
    ],
    "buffers": [
        {
            "byteLength": 141428,
            "uri": "SmilingFace0.bin"
        }
    ],
    "extensionsRequired": [
        "KHR_technique_webgl"
    ],
    "extensionsUsed": [
        "KHR_technique_webgl"
    ]
}
