{
  "accessors": [
    {
      "bufferView": 0,
      "componentType": 5126,
      "count": 2188,
      "type": "VEC2",
      "max": [
        0.9743278,
        -0.007476747
      ],
      "min": [
        0.0319409668,
        -0.989255667
      ]
    },
    {
      "bufferView": 1,
      "componentType": 5126,
      "count": 2188,
      "type": "VEC3",
      "max": [
        0.9997695,
        0.99957794,
        0.9999255
      ],
      "min": [
        -0.9997695,
        -0.9989679,
        -0.9987249
      ]
    },
    {
      "bufferView": 2,
      "componentType": 5126,
      "count": 2188,
      "type": "VEC4",
      "max": [
        0.99984026,
        0.999033451,
        0.9678841,
        1.0
      ],
      "min": [
        -0.999989867,
        -0.999561965,
        -0.999997139,
        -1.0
      ]
    },
    {
      "bufferView": 3,
      "componentType": 5126,
      "count": 2188,
      "type": "VEC3",
      "max": [
        0.0690619648,
        0.2866283,
        0.3253729
      ],
      "min": [
        -0.073841624,
        -0.000878453255,
        -0.317738324
      ]
    },
    {
      "bufferView": 4,
      "componentType": 5123,
      "count": 11592,
      "type": "SCALAR",
      "max": [
        2187
      ],
      "min": [
        0
      ]
    }
  ],
  "asset": {
    "generator": "glTF Tools for Unity",
    "version": "2.0"
  },
  "bufferViews": [
    {
      "buffer": 0,
      "byteLength": 17504
    },
    {
      "buffer": 0,
      "byteOffset": 17504,
      "byteLength": 26256
    },
    {
      "buffer": 0,
      "byteOffset": 43760,
      "byteLength": 35008
    },
    {
      "buffer": 0,
      "byteOffset": 78768,
      "byteLength": 26256
    },
    {
      "buffer": 0,
      "byteOffset": 105024,
      "byteLength": 23184
    }
  ],
  "buffers": [
    {
      "uri": "BarramundiFish.bin",
      "byteLength": 128208
    }
  ],
  "extensionsUsed": [
    "KHR_materials_pbrSpecularGlossiness"
  ],
  "images": [
    {
      "uri": "BarramundiFish_baseColor.png"
    },
    {
      "uri": "BarramundiFish_roughnessMetallic.png"
    },
    {
      "uri": "BarramundiFish_normal.png"
    },
    {
      "uri": "BarramundiFish_occlusion.png"
    },
    {
      "uri": "BarramundiFish_diffuse.png"
    },
    {
      "uri": "BarramundiFish_specularGlossiness.png"
    }
  ],
  "meshes": [
    {
      "primitives": [
        {
          "attributes": {
            "TEXCOORD_0": 0,
            "NORMAL": 1,
            "TANGENT": 2,
            "POSITION": 3
          },
          "indices": 4,
          "material": 0
        }
      ],
      "name": "barramundi_fish_Hero"
    }
  ],
  "materials": [
    {
      "pbrMetallicRoughness": {
        "baseColorTexture": {
          "index": 0
        },
        "metallicRoughnessTexture": {
          "index": 1
        }
      },
      "normalTexture": {
        "index": 2
      },
      "occlusionTexture": {
        "index": 3
      },
      "name": "7288_barramundi fish_col",
      "extensions": {
        "KHR_materials_pbrSpecularGlossiness": {
          "diffuseTexture": {
            "index": 4
          },
          "specularGlossinessTexture": {
            "index": 5
          }
        }
      }
    }
  ],
  "nodes": [
    {
      "mesh": 0,
      "name": "BarramundiFish"
    }
  ],
  "scene": 0,
  "scenes": [
    {
      "nodes": [
        0
      ]
    }
  ],
  "textures": [
    {
      "source": 0
    },
    {
      "source": 1
    },
    {
      "source": 2
    },
    {
      "source": 3
    },
    {
      "source": 4
    },
    {
      "source": 5
    }
  ]
}