{
    "asset": {
        "version": "2.0",
        "copyright": "Copyright 2021 Wayfair LLC. CC BY 4.0 International https://creativecommons.org/licenses/by/4.0/",
        "generator": "Created in 3ds Max, exported with Max2Babylon, edited in Visual Studio Code with glTF Tools"
    },
    "extensionsUsed": [
        "KHR_materials_ior",
        "KHR_materials_specular",
        "KHR_materials_transmission",
        "KHR_materials_volume"
    ],
    "scene": 0,
    "scenes": [
        {
            "nodes": [
                0,
                2,
                4,
                5
            ]
        }
    ],
    "nodes": [
        {
            "children": [
                1
            ],
            "mesh": 0,
            "rotation": [
                0.0,
                0.7660445,
                0.0,
                0.642787635
            ],
            "name": "glassDish"
        },
        {
            "mesh": 1,
            "name": "olives"
        },
        {
            "children": [
                3
            ],
            "translation": [
                -0.13847056,
                0.0312397256,
                -0.0969580561
            ],
            "rotation": [
                -0.091,
                -0.627,
                0.701,
                -0.328
            ],
            "name": "glassCover_animationIOR"
        },
        {
            "mesh": 2,
            "translation": [
                -0.169041261,
                2.33539783E-08,
                0.0312397256
            ],
            "rotation": [
                -0.6532815,
                -0.270597965,
                0.270598,
                0.6532815
            ],
            "name": "glassCover"
        },
        {
            "mesh": 3,
            "rotation": [
                0.0,
                0.7660445,
                0.0,
                0.642787635
            ],
            "name": "goldLeaf"
        },
        {
            "camera": 0,
            "translation": [
                1,
                0.77,
                0
            ],
            "rotation": [
                -0.212,
                0.676,
                0.213,
                0.673
            ],
            "name": "Camera001"
        }
    ],
    "cameras": [
        {
            "perspective": {
                "yfov": 0.457822353,
                "zfar": 10000.0,
                "znear": 0.1
            },
            "type": "perspective",
            "name": "Camera001"
        }
    ],
    "meshes": [
        {
            "primitives": [
                {
                    "attributes": {
                        "POSITION": 1,
                        "NORMAL": 2,
                        "COLOR_0": 3,
                        "TEXCOORD_0": 4
                    },
                    "indices": 0,
                    "material": 0
                }
            ],
            "name": "glassDish"
        },
        {
            "primitives": [
                {
                    "attributes": {
                        "POSITION": 6,
                        "NORMAL": 7,
                        "COLOR_0": 8,
                        "TEXCOORD_0": 9
                    },
                    "indices": 5,
                    "material": 1
                }
            ],
            "name": "olives"
        },
        {
            "primitives": [
                {
                    "attributes": {
                        "POSITION": 11,
                        "NORMAL": 12,
                        "TEXCOORD_0": 13
                    },
                    "indices": 10,
                    "material": 2
                }
            ],
            "name": "glassCover"
        },
        {
            "primitives": [
                {
                    "attributes": {
                        "POSITION": 15,
                        "NORMAL": 16,
                        "COLOR_0": 17,
                        "TEXCOORD_0": 18
                    },
                    "indices": 14,
                    "material": 3
                }
            ],
            "name": "goldLeaf"
        }
    ],
    "accessors": [
        {
            "bufferView": 0,
            "componentType": 5123,
            "count": 6528,
            "type": "SCALAR",
            "name": "accessorIndices"
        },
        {
            "bufferView": 1,
            "componentType": 5126,
            "count": 1154,
            "max": [
                0.2297113,
                0.04167262,
                0.2297113
            ],
            "min": [
                -0.2297113,
                0.0009741892,
                -0.2297113
            ],
            "type": "VEC3",
            "name": "accessorPositions"
        },
        {
            "bufferView": 1,
            "byteOffset": 13848,
            "componentType": 5126,
            "count": 1154,
            "type": "VEC3",
            "name": "accessorNormals"
        },
        {
            "bufferView": 2,
            "componentType": 5126,
            "count": 1154,
            "type": "VEC4",
            "name": "accessorColors"
        },
        {
            "bufferView": 3,
            "componentType": 5126,
            "count": 1154,
            "type": "VEC2",
            "name": "accessorUVs"
        },
        {
            "bufferView": 0,
            "byteOffset": 13056,
            "componentType": 5123,
            "count": 51840,
            "type": "SCALAR",
            "name": "accessorIndices"
        },
        {
            "bufferView": 1,
            "byteOffset": 27696,
            "componentType": 5126,
            "count": 10992,
            "max": [
                0.1457611,
                0.0813335,
                0.154951856
            ],
            "min": [
                -0.149238825,
                0.004037708,
                -0.1556646
            ],
            "type": "VEC3",
            "name": "accessorPositions"
        },
        {
            "bufferView": 1,
            "byteOffset": 159600,
            "componentType": 5126,
            "count": 10992,
            "type": "VEC3",
            "name": "accessorNormals"
        },
        {
            "bufferView": 2,
            "byteOffset": 18464,
            "componentType": 5126,
            "count": 10992,
            "type": "VEC4",
            "name": "accessorColors"
        },
        {
            "bufferView": 3,
            "byteOffset": 9232,
            "componentType": 5126,
            "count": 10992,
            "type": "VEC2",
            "name": "accessorUVs"
        },
        {
            "bufferView": 0,
            "byteOffset": 116736,
            "componentType": 5123,
            "count": 10752,
            "type": "SCALAR",
            "name": "accessorIndices"
        },
        {
            "bufferView": 1,
            "byteOffset": 291504,
            "componentType": 5126,
            "count": 1858,
            "max": [
                0.170407787,
                0.238563627,
                0.170370191
            ],
            "min": [
                -0.170370221,
                0.0312417466,
                -0.170407787
            ],
            "type": "VEC3",
            "name": "accessorPositions"
        },
        {
            "bufferView": 1,
            "byteOffset": 313800,
            "componentType": 5126,
            "count": 1858,
            "type": "VEC3",
            "name": "accessorNormals"
        },
        {
            "bufferView": 3,
            "byteOffset": 97168,
            "componentType": 5126,
            "count": 1858,
            "type": "VEC2",
            "name": "accessorUVs"
        },
        {
            "bufferView": 0,
            "byteOffset": 138240,
            "componentType": 5123,
            "count": 4608,
            "type": "SCALAR",
            "name": "accessorIndices"
        },
        {
            "bufferView": 1,
            "byteOffset": 336096,
            "componentType": 5126,
            "count": 924,
            "max": [
                0.2283677,
                0.03799545,
                0.228367746
            ],
            "min": [
                -0.2283677,
                -2.581076E-05,
                -0.228367716
            ],
            "type": "VEC3",
            "name": "accessorPositions"
        },
        {
            "bufferView": 1,
            "byteOffset": 347184,
            "componentType": 5126,
            "count": 924,
            "type": "VEC3",
            "name": "accessorNormals"
        },
        {
            "bufferView": 2,
            "byteOffset": 194336,
            "componentType": 5126,
            "count": 924,
            "type": "VEC4",
            "name": "accessorColors"
        },
        {
            "bufferView": 3,
            "byteOffset": 112032,
            "componentType": 5126,
            "count": 924,
            "type": "VEC2",
            "name": "accessorUVs"
        }
    ],
    "bufferViews": [
        {
            "buffer": 0,
            "byteLength": 147456,
            "name": "bufferViewScalar"
        },
        {
            "buffer": 0,
            "byteOffset": 147456,
            "byteLength": 358272,
            "byteStride": 12,
            "name": "bufferViewFloatVec3"
        },
        {
            "buffer": 0,
            "byteOffset": 505728,
            "byteLength": 209120,
            "byteStride": 16,
            "name": "bufferViewFloatVec4"
        },
        {
            "buffer": 0,
            "byteOffset": 714848,
            "byteLength": 119424,
            "byteStride": 8,
            "name": "bufferViewFloatVec2"
        }
    ],
    "buffers": [
        {
            "uri": "PearlGoldOliveCoveredGlassDish.bin",
            "byteLength": 834872
        }
    ],
    "materials": [
        {
            "name": "glassDish",
            "pbrMetallicRoughness": {
                "baseColorFactor": [
                    1,
                    1,
                    1,
                    1
                ],
                "metallicFactor": 0,
                "roughnessFactor": 0.035
            },
            "occlusionTexture": {
                "index": 0
            },
            "extensions": {
                "KHR_materials_transmission": {
                    "transmissionFactor": 1
                },
                "KHR_materials_specular": {
                    "specularFactor": 1,
                    "specularColorFactor": [
                        2,
                        2,
                        2
                    ],
                    "specularColorTexture": {
                        "index": 1
                    }
                }
            }
        },
        {
            "name": "olives",
            "pbrMetallicRoughness": {
                "baseColorTexture": {
                    "index": 4
                },
                "metallicFactor": 0,
                "roughnessFactor": 1,
                "metallicRoughnessTexture": {
                    "index": 3
                }
            },
            "normalTexture": {
                "index": 2,
                "scale": 1
            },
            "occlusionTexture": {
                "index": 3
            }
        },
        {
            "name": "glassCover",
            "pbrMetallicRoughness": {
                "baseColorFactor": [
                    1,
                    1,
                    1,
                    1
                ],
                "metallicFactor": 0,
                "roughnessFactor": 0.035
            },
            "normalTexture": {
                "index": 5,
                "scale": 1
            },
            "extensions": {
                "KHR_materials_ior": {
                    "ior": 1.5
                },
                "KHR_materials_specular": {
                    "specularFactor": 1,
                    "specularColorFactor": [
                        2,
                        2,
                        2
                    ],
                    "specularColorTexture": {
                        "index": 7
                    }
                },
                "KHR_materials_transmission": {
                    "transmissionFactor": 1
                },
                "KHR_materials_volume": {
                    "thicknessFactor": 0.2,
                    "thicknessTexture": {
                        "index": 6
                    }
                }
            }
        },
        {
            "name": "goldLeaf",
            "pbrMetallicRoughness": {
                "baseColorTexture": {
                    "index": 10
                },
                "metallicRoughnessTexture": {
                    "index": 9
                }
            },
            "normalTexture": {
                "index": 8,
                "scale": 1.0
            },
            "occlusionTexture": {
                "index": 9
            },
            "alphaMode": "MASK"
        }
    ],
    "textures": [
        {
            "sampler": 0,
            "source": 0,
            "name": "glassdish_occ.png"
        },
        {
            "sampler": 0,
            "source": 1,
            "name": "glassdish_spec.png"
        },
        {
            "sampler": 0,
            "source": 2,
            "name": "olives_nrm.png"
        },
        {
            "sampler": 0,
            "source": 3,
            "name": "olives_orm.png"
        },
        {
            "sampler": 0,
            "source": 4,
            "name": "olives_col.png"
        },
        {
            "sampler": 0,
            "source": 5,
            "name": "glasscover_nrm.png"
        },
        {
            "sampler": 0,
            "source": 6,
            "name": "glasscover_thick.png"
        },
        {
            "sampler": 0,
            "source": 7,
            "name": "glasscover_spec.png"
        },
        {
            "sampler": 0,
            "source": 8,
            "name": "goldleaf_nrm.png"
        },
        {
            "sampler": 0,
            "source": 9,
            "name": "goldleaf_orm.png"
        },
        {
            "sampler": 0,
            "source": 10,
            "name": "goldleaf_col.png"
        }
    ],
    "images": [
        {
            "uri": "./glassdish_occ.png"
        },
        {
            "uri": "./glassdish_spec.png"
        },
        {
            "uri": "./olives_nrm.png"
        },
        {
            "uri": "./olives_orm.png"
        },
        {
            "uri": "./olives_col.png"
        },
        {
            "uri": "./glasscover_nrm.png"
        },
        {
            "uri": "./glasscover_thick.png"
        },
        {
            "uri": "./glasscover_spec.png"
        },
        {
            "uri": "./goldleaf_nrm.png"
        },
        {
            "uri": "./goldleaf_orm.png"
        },
        {
            "uri": "./goldleaf_col.png"
        }
    ],
    "samplers": [
        {
            "magFilter": 9729,
            "minFilter": 9987
        }
    ]
}