{
  "accessors": {
    "accessor_31": {
      "bufferView": "bufferView_1",
      "byteOffset": 0,
      "byteStride": 0,
      "componentType": 5123,
      "count": 14592,
      "max": [
        1359
      ],
      "min": [
        0
      ],
      "type": "SCALAR"
    },
    "accessor_33": {
      "bufferView": "bufferView_0",
      "byteOffset": 0,
      "byteStride": 0,
      "componentType": 5126,
      "count": 2551,
      "max": [
        0.8106791973114014,
        0.8187642097473145,
        0.7583367228507996
      ],
      "min": [
        -0.8106791973114014,
        -0.8187641501426697,
        -0.8632782101631165
      ],
      "type": "VEC3"
    },
    "accessor_35": {
      "bufferView": "bufferView_0",
      "byteOffset": 30612,
      "byteStride": 0,
      "componentType": 5126,
      "count": 2551,
      "max": [
        0.9999155402183533,
        0.9999614953994751,
        0.9995512366294861
      ],
      "min": [
        -0.9999155402183533,
        -0.9979230761528015,
        -0.9998226761817932
      ],
      "type": "VEC3"
    },
    "accessor_37": {
      "bufferView": "bufferView_0",
      "byteOffset": 61224,
      "byteStride": 0,
      "componentType": 5126,
      "count": 2551,
      "max": [
        0.991733968257904,
        0.9879680871963501
      ],
      "min": [
        0.011699199676513672,
        0.0060114264488220215
      ],
      "type": "VEC2"
    }
  },
  "animations": {},
  "asset": {
    "generator": "collada2gltf@f8f6279915175e9d2cc525531660ac439c114fac",
    "premultipliedAlpha": true,
    "profile": {
      "api": "WebGL",
      "version": "1.0.2"
    },
    "version": "1.0.1"
  },
  "bufferViews": {
    "bufferView_0": {
      "buffer": "buffer_0",
      "byteLength": 81632,
      "byteOffset": 0,
      "target": 34962
    },
    "bufferView_1": {
      "buffer": "buffer_0",
      "byteLength": 29184,
      "byteOffset": 81632,
      "target": 34963
    }
  },
  "buffers": {
    "buffer_0": {
      "type": "arraybuffer",
      "byteLength": 110816,
      "uri": "data:application/octet-stream;base64,"
    }
  },
  "images": {
    "m0smiling_face_DF-diffuse-image": {
      "name": "m0smiling_face_DF-diffuse-image",
      "uri": "data:image/jpeg;base64,"
    },
    "m0smiling_face_DF-specular-image": {
      "name": "m0smiling_face_DF-specular-image",
      "uri": "data:image/jpeg;base64,"
    }
  },
  "materials": {
    "m0smiling_face_DF-fx": {
      "name": "m0smiling_face_DF",
      "technique": "technique0",
      "values": {
        "ambient": [
          0,
          0,
          0,
          1
        ],
        "diffuse": "texture_m0smiling_face_DF-diffuse-image",
        "emission": [
          0,
          0,
          0,
          1
        ],
        "shininess": 20,
        "specular": "texture_m0smiling_face_DF-specular-image"
      }
    }
  },
  "meshes": {
    "meshId0": {
      "name": "meshId0_name",
      "primitives": [
        {
          "attributes": {
            "NORMAL": "accessor_35",
            "POSITION": "accessor_33",
            "TEXCOORD_0": "accessor_37"
          },
          "indices": "accessor_31",
          "material": "m0smiling_face_DF-fx",
          "mode": 4
        }
      ]
    }
  },
  "nodes": {
    "rootNode": {
      "children": [],
      "meshes": [
        "meshId0"
      ],
      "matrix": [
        1,
        0,
        0,
        0,
        0,
        1,
        0,
        0,
        0,
        0,
        1,
        0,
        0,
        0,
        0,
        1
      ]
    }
  },
  "programs": {
    "program_0": {
      "attributes": [
        "a_normal",
        "a_position",
        "a_texcoord0"
      ],
      "fragmentShader": "SmilingFace0FS",
      "vertexShader": "SmilingFace0VS"
    }
  },
  "samplers": {
    "sampler_0": {
      "magFilter": 9729,
      "minFilter": 9729,
      "wrapS": 10497,
      "wrapT": 10497
    }
  },
  "scene": "defaultScene",
  "scenes": {
    "defaultScene": {
      "nodes": [
        "rootNode"
      ]
    }
  },
  "shaders": {
    "SmilingFace0FS": {
      "type": 35632,
      "uri": "data:text/plain;base64,"
    },
    "SmilingFace0VS": {
      "type": 35633,
      "uri": "data:text/plain;base64,"
    }
  },
  "skins": {},
  "techniques": {
    "technique0": {
      "attributes": {
        "a_normal": "normal",
        "a_position": "position",
        "a_texcoord0": "texcoord0"
      },
      "parameters": {
        "ambient": {
          "type": 35666
        },
        "diffuse": {
          "type": 35678
        },
        "emission": {
          "type": 35666
        },
        "modelViewMatrix": {
          "semantic": "MODELVIEW",
          "type": 35676
        },
        "normal": {
          "semantic": "NORMAL",
          "type": 35665
        },
        "normalMatrix": {
          "semantic": "MODELVIEWINVERSETRANSPOSE",
          "type": 35675
        },
        "position": {
          "semantic": "POSITION",
          "type": 35665
        },
        "projectionMatrix": {
          "semantic": "PROJECTION",
          "type": 35676
        },
        "shininess": {
          "type": 5126
        },
        "specular": {
          "type": 35678
        },
        "texcoord0": {
          "semantic": "TEXCOORD_0",
          "type": 35664
        }
      },
      "program": "program_0",
      "states": {
        "enable": [
          2929,
          2884
        ],
        "disable": []
      },
      "uniforms": {
        "u_ambient": "ambient",
        "u_diffuse": "diffuse",
        "u_emission": "emission",
        "u_modelViewMatrix": "modelViewMatrix",
        "u_normalMatrix": "normalMatrix",
        "u_projectionMatrix": "projectionMatrix",
        "u_shininess": "shininess",
        "u_specular": "specular"
      }
    }
  },
  "textures": {
    "texture_m0smiling_face_DF-diffuse-image": {
      "format": 6408,
      "internalFormat": 6408,
      "sampler": "sampler_0",
      "source": "m0smiling_face_DF-diffuse-image",
      "target": 3553,
      "type": 5121
    },
    "texture_m0smiling_face_DF-specular-image": {
      "format": 6408,
      "internalFormat": 6408,
      "sampler": "sampler_0",
      "source": "m0smiling_face_DF-specular-image",
      "target": 3553,
      "type": 5121
    }
  },
  "extensionsUsed": [],
  "cameras": {}
}
