{
  "accessors": {
    "accessor_26": {
      "bufferView": "bufferView_1",
      "byteOffset": 0,
      "byteStride": 0,
      "componentType": 5123,
      "count": 2046,
      "max": [
        223
      ],
      "min": [
        0
      ],
      "type": "SCALAR"
    },
    "accessor_28": {
      "bufferView": "bufferView_0",
      "byteOffset": 0,
      "byteStride": 0,
      "componentType": 5126,
      "count": 406,
      "max": [
        2.1280910968780518,
        6.284806251525879,
        1.3809000253677368
      ],
      "min": [
        -2.1280910968780518,
        -0.004773855209350586,
        -1.3809001445770264
      ],
      "type": "VEC3"
    },
    "accessor_30": {
      "bufferView": "bufferView_0",
      "byteOffset": 4872,
      "byteStride": 0,
      "componentType": 5126,
      "count": 406,
      "max": [
        0.9951770901679993,
        0.9749685525894165,
        0.9988548159599304
      ],
      "min": [
        -0.995966911315918,
        -0.9995665550231934,
        -0.998633861541748
      ],
      "type": "VEC3"
    },
    "accessor_32": {
      "bufferView": "bufferView_0",
      "byteOffset": 9744,
      "byteStride": 0,
      "componentType": 5126,
      "count": 406,
      "max": [
        0.9824978113174438,
        0.9953720569610596
      ],
      "min": [
        0.006780204828828573,
        0.002981901168823242
      ],
      "type": "VEC2"
    }
  },
  "animations": {},
  "asset": {
    "generator": "collada2gltf@f8f6279915175e9d2cc525531660ac439c114fac",
    "premultipliedAlpha": true,
    "profile": {
      "api": "WebGL",
      "version": "1.0.2"
    },
    "version": "1.0.1"
  },
  "bufferViews": {
    "bufferView_0": {
      "buffer": "buffer_0",
      "byteLength": 12992,
      "byteOffset": 0,
      "target": 34962
    },
    "bufferView_1": {
      "buffer": "buffer_0",
      "byteLength": 4092,
      "byteOffset": 12992,
      "target": 34963
    }
  },
  "buffers": {
    "buffer_0": {
      "type": "arraybuffer",
      "byteLength": 17084,
      "uri": "data:application/octet-stream;base64,"
    }
  },
  "images": {
    "m0Avocado_M-diffuse-image": {
      "name": "m0Avocado_M-diffuse-image",
      "uri": "data:image/jpeg;base64,"
    },
    "m0Avocado_M-specular-image": {
      "name": "m0Avocado_M-specular-image",
      "uri": "data:image/jpeg;base64,"
    }
  },
  "materials": {
    "m0Avocado_M-fx": {
      "name": "m0Avocado_M",
      "technique": "technique0",
      "values": {
        "ambient": [
          0,
          0,
          0,
          1
        ],
        "diffuse": "texture_m0Avocado_M-diffuse-image",
        "emission": [
          0,
          0,
          0,
          1
        ],
        "shininess": 20,
        "specular": "texture_m0Avocado_M-specular-image"
      }
    }
  },
  "meshes": {
    "meshId0": {
      "name": "meshId0_name",
      "primitives": [
        {
          "attributes": {
            "NORMAL": "accessor_30",
            "POSITION": "accessor_28",
            "TEXCOORD_0": "accessor_32"
          },
          "indices": "accessor_26",
          "material": "m0Avocado_M-fx",
          "mode": 4
        }
      ]
    }
  },
  "nodes": {
    "rootNode": {
      "children": [],
      "meshes": [
        "meshId0"
      ],
      "matrix": [
        1,
        0,
        0,
        0,
        0,
        1,
        0,
        0,
        0,
        0,
        1,
        0,
        0,
        0,
        0,
        1
      ]
    }
  },
  "programs": {
    "program_0": {
      "attributes": [
        "a_normal",
        "a_position",
        "a_texcoord0"
      ],
      "fragmentShader": "Avocado0FS",
      "vertexShader": "Avocado0VS"
    }
  },
  "samplers": {
    "sampler_0": {
      "magFilter": 9729,
      "minFilter": 9729,
      "wrapS": 10497,
      "wrapT": 10497
    }
  },
  "scene": "defaultScene",
  "scenes": {
    "defaultScene": {
      "nodes": [
        "rootNode"
      ]
    }
  },
  "shaders": {
    "Avocado0FS": {
      "type": 35632,
      "uri": "data:text/plain;base64,"
    },
    "Avocado0VS": {
      "type": 35633,
      "uri": "data:text/plain;base64,"
    }
  },
  "skins": {},
  "techniques": {
    "technique0": {
      "attributes": {
        "a_normal": "normal",
        "a_position": "position",
        "a_texcoord0": "texcoord0"
      },
      "parameters": {
        "ambient": {
          "type": 35666
        },
        "diffuse": {
          "type": 35678
        },
        "emission": {
          "type": 35666
        },
        "modelViewMatrix": {
          "semantic": "MODELVIEW",
          "type": 35676
        },
        "normal": {
          "semantic": "NORMAL",
          "type": 35665
        },
        "normalMatrix": {
          "semantic": "MODELVIEWINVERSETRANSPOSE",
          "type": 35675
        },
        "position": {
          "semantic": "POSITION",
          "type": 35665
        },
        "projectionMatrix": {
          "semantic": "PROJECTION",
          "type": 35676
        },
        "shininess": {
          "type": 5126
        },
        "specular": {
          "type": 35678
        },
        "texcoord0": {
          "semantic": "TEXCOORD_0",
          "type": 35664
        }
      },
      "program": "program_0",
      "states": {
        "enable": [
          2929,
          2884
        ],
        "disable": []
      },
      "uniforms": {
        "u_ambient": "ambient",
        "u_diffuse": "diffuse",
        "u_emission": "emission",
        "u_modelViewMatrix": "modelViewMatrix",
        "u_normalMatrix": "normalMatrix",
        "u_projectionMatrix": "projectionMatrix",
        "u_shininess": "shininess",
        "u_specular": "specular"
      }
    }
  },
  "textures": {
    "texture_m0Avocado_M-diffuse-image": {
      "format": 6408,
      "internalFormat": 6408,
      "sampler": "sampler_0",
      "source": "m0Avocado_M-diffuse-image",
      "target": 3553,
      "type": 5121
    },
    "texture_m0Avocado_M-specular-image": {
      "format": 6408,
      "internalFormat": 6408,
      "sampler": "sampler_0",
      "source": "m0Avocado_M-specular-image",
      "target": 3553,
      "type": 5121
    }
  },
  "extensionsUsed": [],
  "cameras": {}
}
