{
    "asset": {
        "version": "2.0",
        "generator": "babylon.js glTF exporter for 3dsmax 2022 v20220210.4",
        "copyright": "CC0, No Rights Reserved. Model and texture created by Eric Chadwick"
    },
    "extensionsUsed": [
        "KHR_texture_transform",
        "KHR_materials_clearcoat"
    ],
    "scene": 0,
    "scenes": [
        {
            "nodes": [
                0
            ]
        }
    ],
    "nodes": [
        {
            "mesh": 0,
            "translation": [
                0.0,
                0.5,
                0.0
            ],
            "name": "Sphere"
        }
    ],
    "meshes": [
        {
            "primitives": [
                {
                    "attributes": {
                        "POSITION": 1,
                        "NORMAL": 2,
                        "TEXCOORD_0": 3
                    },
                    "indices": 0,
                    "material": 0
                }
            ],
            "name": "Sphere"
        }
    ],
    "accessors": [
        {
            "bufferView": 0,
            "componentType": 5123,
            "count": 9216,
            "type": "SCALAR",
            "name": "accessorIndices"
        },
        {
            "bufferView": 1,
            "componentType": 5126,
            "count": 1728,
            "max": [
                0.5000792,
                0.4901544,
                0.5000792
            ],
            "min": [
                -0.5000792,
                -0.490154475,
                -0.5000792
            ],
            "type": "VEC3",
            "name": "accessorPositions"
        },
        {
            "bufferView": 1,
            "byteOffset": 20736,
            "componentType": 5126,
            "count": 1728,
            "type": "VEC3",
            "name": "accessorNormals"
        },
        {
            "bufferView": 2,
            "componentType": 5126,
            "count": 1728,
            "type": "VEC2",
            "name": "accessorUVs"
        }
    ],
    "bufferViews": [
        {
            "buffer": 0,
            "byteLength": 18432,
            "name": "bufferViewScalar",
            "target": 34963
        },
        {
            "buffer": 0,
            "byteOffset": 18432,
            "byteLength": 41472,
            "byteStride": 12,
            "name": "bufferViewFloatVec3",
            "target": 34962
        },
        {
            "buffer": 0,
            "byteOffset": 59904,
            "byteLength": 13824,
            "byteStride": 8,
            "name": "bufferViewFloatVec2",
            "target": 34962
        }
    ],
    "buffers": [
        {
            "uri": "ClearCoatCarbonFibre.bin",
            "byteLength": 73728
        }
    ],
    "materials": [
        {
            "pbrMetallicRoughness": {
                "baseColorFactor": [
                    0.05,
                    0.05,
                    0.05,
                    1
                ],
                "metallicFactor": 0,
                "roughnessFactor": 0.6
            },
            "normalTexture": {
                "index": 0,
                "extensions": {
                    "KHR_texture_transform": {
                        "scale": [
                            4,
                            4
                        ]
                    }
                }
            },
            "extensions": {
                "KHR_materials_clearcoat": {
                    "clearcoatFactor": 0.75,
                    "clearcoatRoughnessFactor": 0.05
                }
            },
            "doubleSided": false,
            "name": "carbon fibre"
        }
    ],
    "textures": [
        {
            "sampler": 0,
            "source": 0,
            "name": "ClearCoatCarbonFibre_Normal.png"
        }
    ],
    "images": [
        {
            "uri": "ClearCoatCarbonFibre_Normal.png"
        }
    ],
    "samplers": [
        {
            "magFilter": 9729,
            "minFilter": 9987
        }
    ]
}